<svg width="16" height="14" viewBox="0 0 16 14" fill="none"
    xmlns="http://www.w3.org/2000/svg">
    <path d="M13.76 8.176H6.578C6.518 8.176 6.458 8.158 6.398 8.122C6.35 8.086 6.314 8.044 6.29 7.996L2.996 0.454C2.984 0.405999 2.948 0.363999 2.888 0.327999C2.84 0.291999 2.786 0.274 2.726 0.274H0.314C0.266 0.274 0.218 0.291999 0.17 0.327999C0.134 0.363999 0.116 0.411999 0.116 0.471999V1.066C0.116 1.114 0.134 1.162 0.17 1.21C0.218 1.246 0.266 1.264 0.314 1.264H2.078C2.138 1.264 2.192 1.282 2.24 1.318C2.3 1.354 2.336 1.396 2.348 1.444L5.66 8.986C5.672 9.034 5.702 9.076 5.75 9.112C5.81 9.148 5.87 9.166 5.93 9.166H13.76C13.82 9.166 13.868 9.148 13.904 9.112C13.94 9.064 13.958 9.016 13.958 8.968V8.374C13.958 8.314 13.94 8.266 13.904 8.23C13.868 8.194 13.82 8.176 13.76 8.176ZM7.532 10.156C7.124 10.156 6.776 10.3 6.488 10.588C6.2 10.876 6.056 11.224 6.056 11.632C6.056 12.04 6.2 12.394 6.488 12.694C6.776 12.982 7.124 13.126 7.532 13.126C7.94 13.126 8.288 12.982 8.576 12.694C8.876 12.394 9.026 12.04 9.026 11.632C9.026 11.224 8.882 10.876 8.594 10.588C8.306 10.3 7.952 10.156 7.532 10.156ZM12.482 10.156C12.074 10.156 11.72 10.3 11.42 10.588C11.132 10.876 10.988 11.224 10.988 11.632C10.988 12.04 11.132 12.394 11.42 12.694C11.72 12.982 12.074 13.126 12.482 13.126C12.89 13.126 13.238 12.982 13.526 12.694C13.814 12.406 13.958 12.058 13.958 11.65C13.958 11.23 13.814 10.876 13.526 10.588C13.238 10.3 12.89 10.156 12.482 10.156ZM15.74 2.254H5.264C5.204 2.254 5.162 2.272 5.138 2.308C5.126 2.344 5.126 2.386 5.138 2.434L5.39 3.064C5.414 3.112 5.45 3.154 5.498 3.19C5.558 3.226 5.612 3.244 5.66 3.244H15.344C15.392 3.244 15.44 3.226 15.488 3.19C15.548 3.154 15.59 3.112 15.614 3.064L15.866 2.434C15.878 2.386 15.872 2.344 15.848 2.308C15.836 2.272 15.8 2.254 15.74 2.254ZM14.156 6.196H6.848C6.8 6.196 6.758 6.214 6.722 6.25C6.698 6.286 6.698 6.328 6.722 6.376L6.974 7.006C6.986 7.054 7.016 7.096 7.064 7.132C7.124 7.168 7.184 7.186 7.244 7.186H13.76C13.82 7.186 13.874 7.168 13.922 7.132C13.982 7.096 14.018 7.054 14.03 7.006L14.282 6.376C14.306 6.328 14.3 6.286 14.264 6.25C14.24 6.214 14.204 6.196 14.156 6.196ZM14.948 4.216H6.056C6.008 4.216 5.966 4.234 5.93 4.27C5.906 4.306 5.906 4.348 5.93 4.396L6.182 5.026C6.194 5.074 6.224 5.116 6.272 5.152C6.332 5.188 6.392 5.206 6.452 5.206H14.552C14.612 5.206 14.666 5.188 14.714 5.152C14.774 5.116 14.81 5.074 14.822 5.026L15.074 4.396C15.098 4.348 15.092 4.306 15.056 4.27C15.032 4.234 14.996 4.216 14.948 4.216Z" fill="white" />
</svg>