<svg width="19" height="13" viewBox="0 0 19 13" fill="none"
    xmlns="http://www.w3.org/2000/svg">
    <path d="M18.7364 5.87892L13.0844 0.255665C13.0054 0.175133 12.9092 0.110788 12.8019 0.066762C12.6947 0.0227362 12.5786 0 12.4613 0C12.344 0 12.228 0.0227362 12.1208 0.066762C12.0135 0.110788 11.9173 0.175133 11.8383 0.255665C11.6723 0.425822 11.5804 0.647188 11.5804 0.876748C11.5804 1.10631 11.6723 1.32766 11.8383 1.49782L15.9826 5.61985H0.880729C0.641443 5.63597 0.417604 5.73558 0.254214 5.89865C0.0908248 6.06172 0 6.27616 0 6.49885C0 6.72154 0.0908248 6.93597 0.254214 7.09904C0.417604 7.2621 0.641443 7.36171 0.880729 7.37784H15.9801L11.8358 11.5022C11.6698 11.6723 11.5779 11.8937 11.5779 12.1233C11.5779 12.3528 11.6698 12.5742 11.8358 12.7443C11.9148 12.8249 12.011 12.8892 12.1183 12.9332C12.2255 12.9773 12.3416 13 12.4589 13C12.5762 13 12.6922 12.9773 12.7994 12.9332C12.9067 12.8892 13.0029 12.8249 13.0819 12.7443L18.7364 7.13265C18.9059 6.96181 19 6.73805 19 6.50578C19 6.27352 18.9059 6.04976 18.7364 5.87892Z" fill="white" />
</svg>