<svg width="17" height="22" viewBox="0 0 17 22" fill="none"
    xmlns="http://www.w3.org/2000/svg">
    <path d="M8.49906 12.2547C7.50815 12.2559 6.54747 11.9066 5.78061 11.2663C5.01374 10.626 4.48812 9.73423 4.29324 8.74293C4.27771 8.63851 4.28461 8.5319 4.31347 8.43047C4.34233 8.32904 4.39246 8.23523 4.46038 8.15553C4.52831 8.07583 4.6124 8.01215 4.70684 7.9689C4.80127 7.92566 4.9038 7.90388 5.0073 7.90508C5.17741 7.90255 5.34282 7.96208 5.47373 8.07295C5.60464 8.18381 5.69246 8.33873 5.72136 8.50979C5.85584 9.16472 6.20712 9.75248 6.71618 10.1743C7.22525 10.5962 7.86109 10.8265 8.51691 10.8265C9.17273 10.8265 9.80857 10.5962 10.3176 10.1743C10.8267 9.75248 11.178 9.16472 11.3125 8.50979C11.3414 8.33873 11.4292 8.18381 11.5601 8.07295C11.691 7.96208 11.8564 7.90255 12.0265 7.90508C12.13 7.90388 12.2325 7.92566 12.327 7.9689C12.4214 8.01215 12.5055 8.07583 12.5734 8.15553C12.6414 8.23523 12.6915 8.32904 12.7204 8.43047C12.7492 8.5319 12.7561 8.63851 12.7406 8.74293C12.5445 9.7404 12.0137 10.6369 11.2394 11.2779C10.4652 11.9189 9.49608 12.2643 8.49906 12.2547Z" fill="black" />
    <path d="M14.8551 21.857H2.14486C1.8543 21.8574 1.5667 21.7974 1.29957 21.6808C1.03243 21.5642 0.791333 21.3933 0.590947 21.1787C0.390561 20.964 0.235073 20.71 0.133942 20.432C0.0328113 20.1541 -0.0118486 19.8581 0.0026796 19.562L0.581069 7.0014C0.605007 6.43829 0.841225 5.90638 1.2404 5.51674C1.63957 5.12711 2.17083 4.90987 2.72325 4.9104H14.2768C14.8292 4.90987 15.3604 5.12711 15.7596 5.51674C16.1588 5.90638 16.395 6.43829 16.4189 7.0014L16.9973 19.562C17.0118 19.8581 16.9672 20.1541 16.8661 20.432C16.7649 20.71 16.6094 20.964 16.4091 21.1787C16.2087 21.3933 15.9676 21.5642 15.7004 21.6808C15.4333 21.7974 15.1457 21.8574 14.8551 21.857ZM2.72325 6.37483C2.53387 6.37483 2.35225 6.45159 2.21833 6.58823C2.08442 6.72486 2.00919 6.91017 2.00919 7.1034L1.4308 19.6348C1.42596 19.7335 1.44084 19.8322 1.47455 19.9249C1.50827 20.0175 1.56009 20.1022 1.62689 20.1737C1.69369 20.2453 1.77405 20.3022 1.8631 20.3411C1.95214 20.38 2.04801 20.4 2.14486 20.3998H14.8551C14.952 20.4 15.0479 20.38 15.1369 20.3411C15.226 20.3022 15.3063 20.2453 15.3731 20.1737C15.4399 20.1022 15.4917 20.0175 15.5254 19.9249C15.5592 19.8322 15.574 19.7335 15.5692 19.6348L14.9908 7.07426C14.9908 6.88103 14.9156 6.69572 14.7817 6.55908C14.6478 6.42245 14.4661 6.34569 14.2768 6.34569L2.72325 6.37483Z" fill="black" />
    <path d="M12.7845 5.64643H11.3564V4.37143C11.3564 3.59852 11.0555 2.85725 10.5199 2.31072C9.9842 1.76418 9.25771 1.45714 8.50018 1.45714C7.74266 1.45714 7.01616 1.76418 6.48052 2.31072C5.94487 2.85725 5.64394 3.59852 5.64394 4.37143V5.64643H4.21582V4.37143C4.21582 3.21206 4.66721 2.10017 5.47068 1.28036C6.27416 0.46056 7.3639 0 8.50018 0C9.63647 0 10.7262 0.46056 11.5297 1.28036C12.3332 2.10017 12.7845 3.21206 12.7845 4.37143V5.64643Z" fill="black" />
</svg>