<svg width="14" height="14" viewBox="0 0 14 14" fill="none"
    xmlns="http://www.w3.org/2000/svg">
    <path d="M10.3063 9.37581C10.1788 9.24753 10.0272 9.14574 9.86024 9.07628C9.69333 9.00683 9.51437 8.97108 9.33363 8.97108C9.1529 8.97108 8.97394 9.00683 8.80702 9.07628C8.6401 9.14574 8.48851 9.24753 8.36093 9.37581L7.6972 10.0409C6.9499 9.56564 6.25752 9.00875 5.63279 8.38045C5.00711 7.75322 4.45149 7.05956 3.97576 6.31174L4.63949 5.64663C4.76751 5.51879 4.86909 5.36688 4.9384 5.19962C5.0077 5.03235 5.04338 4.85302 5.04338 4.67191C5.04338 4.4908 5.0077 4.31147 4.9384 4.1442C4.86909 3.97694 4.76751 3.82503 4.63949 3.69719L3.34408 2.40367C3.2183 2.27496 3.06799 2.1729 2.90207 2.10356C2.73615 2.03421 2.55801 1.999 2.37824 2.00002C2.1972 1.99958 2.01785 2.03501 1.85052 2.10429C1.68319 2.17356 1.53119 2.27531 1.40325 2.40367L0.780721 3.02291C0.483999 3.3426 0.262544 3.72487 0.132634 4.1416C0.00272389 4.55834 -0.0323385 4.99895 0.0300243 5.43105C0.176502 7.15115 1.30255 9.21986 3.03739 10.9629C4.77223 12.7059 6.85954 13.8297 8.57607 13.9949C8.70414 14.0017 8.83249 14.0017 8.96057 13.9949C9.33007 14.0104 9.69895 13.9519 10.0456 13.8227C10.3922 13.6935 10.7096 13.4963 10.9792 13.2426L11.5972 12.6188C11.7253 12.4906 11.8268 12.3382 11.8959 12.1706C11.9651 12.0029 12.0004 11.8232 12 11.6418C12.001 11.4616 11.9659 11.2831 11.8967 11.1168C11.8275 10.9506 11.7256 10.8 11.5972 10.6739L10.3063 9.37581ZM10.9517 11.972L10.3292 12.5913C10.099 12.7835 9.83034 12.9239 9.5413 13.0031C9.25226 13.0822 8.94963 13.0982 8.65388 13.0499C7.16622 12.9215 5.27117 11.8665 3.70569 10.2978C2.14021 8.72905 1.08741 6.84382 0.945508 5.35307C0.896145 5.05672 0.911506 4.75316 0.990531 4.46333C1.06956 4.17349 1.21036 3.90428 1.40325 3.67425L2.04867 3.05043C2.09144 3.00792 2.14216 2.97428 2.19793 2.95146C2.2537 2.92863 2.31342 2.91706 2.37366 2.91741C2.43391 2.91706 2.49362 2.92863 2.54939 2.95146C2.60516 2.97428 2.65589 3.00792 2.69866 3.05043L3.99407 4.36229C4.07933 4.44823 4.12718 4.56449 4.12718 4.68567C4.12718 4.80685 4.07933 4.92311 3.99407 5.00905L3.07859 5.92644C3.00695 5.99787 2.96092 6.09105 2.94767 6.19145C2.93442 6.29185 2.9547 6.39382 3.00535 6.48146C3.55344 7.41648 4.21961 8.27675 4.98737 9.04097C5.75 9.81032 6.60849 10.4779 7.54157 11.0271C7.62903 11.0779 7.73078 11.0982 7.83097 11.0849C7.93116 11.0716 8.02415 11.0255 8.09544 10.9537L9.01092 10.0363C9.09669 9.9509 9.2127 9.90295 9.33363 9.90295C9.45456 9.90295 9.57058 9.9509 9.65634 10.0363L10.9517 11.3344C10.9942 11.3773 11.0277 11.4281 11.0505 11.484C11.0733 11.5399 11.0848 11.5997 11.0845 11.6601C11.0816 11.7773 11.0341 11.8889 10.9517 11.972Z" fill="white" />
    <path d="M12.0748 1.90752C11.4668 1.30136 10.744 0.820736 9.94812 0.49335C9.15222 0.165964 8.29894 -0.001704 7.43748 1.30556e-05C7.32145 1.30556e-05 7.21018 0.0457918 7.12814 0.127279C7.04609 0.208765 7 0.319285 7 0.434525C7 0.549765 7.04609 0.660285 7.12814 0.741771C7.21018 0.823258 7.32145 0.869037 7.43748 0.869037C8.18841 0.86901 8.93191 1.01669 9.62507 1.30354C10.3182 1.5904 10.9473 2.01075 11.4761 2.54035C12.0048 3.06995 12.4227 3.69831 12.7057 4.38916C12.9887 5.08001 13.1311 5.81968 13.1247 6.56549C13.1247 6.68073 13.1708 6.79125 13.2529 6.87273C13.3349 6.95422 13.4462 7 13.5622 7C13.6782 7 13.7895 6.95422 13.8716 6.87273C13.9536 6.79125 13.9997 6.68073 13.9997 6.56549C14.0081 5.70078 13.8421 4.84316 13.5115 4.04317C13.1809 3.24319 12.6924 2.51704 12.0748 1.90752Z" fill="white" />
    <path d="M9.32428 4.66593C9.5765 4.91388 9.77602 5.20923 9.91111 5.53458C10.0462 5.85994 10.1141 6.20873 10.1109 6.56044C10.1109 6.67702 10.1577 6.78882 10.2411 6.87126C10.3244 6.95369 10.4374 7 10.5553 7C10.6732 7 10.7862 6.95369 10.8696 6.87126C10.9529 6.78882 10.9997 6.67702 10.9997 6.56044C11.0056 6.09496 10.918 5.63296 10.742 5.20124C10.5659 4.76951 10.305 4.37665 9.97424 4.04545C9.64351 3.71424 9.24959 3.45128 8.81531 3.27182C8.38104 3.09236 7.91507 2.99996 7.44441 3C7.32655 3 7.21351 3.04631 7.13017 3.12874C7.04682 3.21118 7 3.32298 7 3.43956C7 3.55614 7.04682 3.66794 7.13017 3.75038C7.21351 3.83281 7.32655 3.87912 7.44441 3.87912C7.79465 3.88173 8.14093 3.95256 8.46348 4.08756C8.78604 4.22257 9.07854 4.4191 9.32428 4.66593Z" fill="white" />
</svg>