<svg width="265" height="4" viewBox="0 0 265 4" fill="none"
    xmlns="http://www.w3.org/2000/svg">
    <path d="M261.482 3.21678C262.294 3.21678 263.647 3.18881 264.459 3.24476C263.105 3.24476 261.752 3.27273 260.67 3.27273C260.128 3.32867 261.482 3.35664 262.023 3.38462C263.105 3.38462 264.188 3.38462 265 3.44056C264.188 3.46853 263.105 3.46853 262.023 3.46853C260.94 3.46853 259.587 3.44056 258.775 3.4965C259.587 3.52448 259.587 3.52448 259.587 3.58042C257.693 3.60839 257.693 3.77622 254.715 3.72028C253.633 3.72028 252.55 3.72028 251.468 3.72028C250.114 3.83217 248.491 3.94406 244.972 3.88811C243.889 3.91608 242.807 3.91608 241.724 3.88811C238.747 3.94406 235.77 3.91608 232.793 3.94406C232.522 3.97203 232.252 3.97203 231.981 3.94406C230.898 3.94406 229.816 3.94406 228.733 3.94406H228.463H228.192C227.109 3.94406 226.297 3.97203 225.215 3.94406C221.426 3.94406 217.366 3.94406 213.577 3.97203C211.141 3.97203 209.247 3.94406 207.893 3.86014H207.623H207.352C206.54 3.91608 206.811 4 204.104 4C201.398 3.97203 198.691 3.97203 195.714 3.97203C193.82 3.94406 191.925 4 190.031 3.97203C183.264 3.94406 176.498 3.94406 169.732 3.91608C163.778 3.91608 157.824 3.88811 151.869 3.86014C149.704 3.91608 147.539 3.86014 145.644 3.86014C134.819 3.83217 123.722 3.83217 112.896 3.74825C108.024 3.72028 103.153 3.74825 98.2812 3.69231C93.9508 3.69231 89.8911 3.66434 85.5607 3.63636C75.5468 3.58042 65.5328 3.52448 55.7895 3.41259C51.7298 3.41259 47.9407 3.38462 44.4223 3.3007C38.7387 3.3007 33.3258 3.21678 28.1835 3.13287C27.3715 3.13287 26.8302 3.1049 26.2889 3.1049C24.1238 3.13287 22.4999 3.07692 20.6053 3.02098C19.2521 3.02098 18.1695 2.99301 17.3576 2.96503C16.5456 2.93706 15.7337 2.93706 14.9217 2.90909C14.1098 2.85315 12.7566 2.85315 11.4033 2.85315C9.23814 2.7972 6.53168 2.76923 5.99039 2.62937C1.93066 2.6014 0.848083 2.48951 1.11871 2.34965C-0.505157 2.18182 -0.234528 2.01399 1.11871 1.84615C1.11871 1.76224 1.11871 1.67832 1.11871 1.59441V1.56643C0.577423 1.37063 3.55457 1.2028 2.74261 1.03497C2.47195 0.895105 4.09583 0.783217 5.17841 0.671329C5.17841 0.643357 5.17841 0.587413 6.26102 0.559441C6.53165 0.531469 7.34363 0.503497 8.42621 0.475524C9.77945 0.363636 11.4033 0.27972 14.1098 0.251748C14.6511 0.195804 15.7337 0.223776 16.5456 0.223776C17.3576 0.195804 18.1695 0.167832 18.9814 0.13986C19.7934 0.111888 20.6053 0.111888 21.4173 0.111888C24.6651 0.0559441 27.9128 0.027972 31.4312 0.027972C32.7845 0.027972 33.8671 0.027972 35.2203 0.027972C35.7616 0.027972 36.5735 0.027972 37.1148 0C44.4223 0 52.0004 0 59.3079 0.027972C63.097 0.027972 66.8861 0 70.6751 0.0839161C73.9229 0.0839161 77.712 0.027972 81.2304 0.111888C82.0423 0.111888 82.8542 0.111888 83.3956 0.111888C85.8314 0.0839161 87.9966 0.0839161 90.4324 0.111888C96.3866 0.111888 102.341 0.13986 108.024 0.167832C109.919 0.167832 112.084 0.13986 113.708 0.195804C114.791 0.223776 115.873 0.223776 116.956 0.195804C120.474 0.195804 123.993 0.195804 127.511 0.223776C128.052 0.223776 128.594 0.223776 129.135 0.223776C130.488 0.251748 132.112 0.223776 133.465 0.251748C135.36 0.251748 137.525 0.251748 139.42 0.251748C141.043 0.251748 142.938 0.251748 144.291 0.27972C145.374 0.27972 146.456 0.27972 147.539 0.27972C149.704 0.27972 152.14 0.251748 154.305 0.307692C158.365 0.307692 162.425 0.335664 166.214 0.335664C172.709 0.335664 179.205 0.391608 185.7 0.41958C187.865 0.41958 189.76 0.41958 191.925 0.447552C190.031 0.447552 187.865 0.447552 185.971 0.447552C187.865 0.41958 190.031 0.41958 191.925 0.447552C195.444 0.447552 198.691 0.447552 201.939 0.503497C203.292 0.503497 204.646 0.503497 205.999 0.531469C206.269 0.531469 206.54 0.531469 206.811 0.531469C209.788 0.531469 212.765 0.559441 215.742 0.615385C218.449 0.615385 220.884 0.671329 223.32 0.699301C224.674 0.699301 226.027 0.699301 227.38 0.755245C229.816 0.783217 231.981 0.811189 232.793 0.895105C234.417 0.839161 235.499 0.895105 236.853 0.923077C238.206 0.979021 237.665 1.06294 239.288 1.11888C238.477 1.11888 237.665 1.11888 236.853 1.11888C237.123 1.14685 237.394 1.17483 237.665 1.17483C239.559 1.23077 241.454 1.25874 243.348 1.28671C243.619 1.28671 243.889 1.28671 244.16 1.28671C246.055 1.28671 248.22 1.25874 249.844 1.31469H250.114C250.114 1.31469 250.114 1.34266 249.844 1.34266C248.761 1.34266 247.679 1.34266 246.867 1.34266H246.596C247.949 1.31469 249.032 1.31469 249.844 1.34266C250.385 1.45455 248.761 1.48252 248.22 1.53846C248.491 1.56643 247.137 1.59441 248.22 1.62238C249.032 1.62238 250.385 1.59441 250.114 1.65035C249.844 1.70629 248.22 1.67832 247.408 1.67832C247.137 1.67832 246.867 1.70629 246.596 1.70629C248.761 1.79021 250.926 1.81818 253.092 1.87413C256.339 1.87413 257.693 1.98601 259.587 2.06993C260.128 2.0979 260.94 2.06993 261.211 2.0979C259.587 2.0979 260.399 2.18182 259.316 2.20979C255.527 2.26573 255.527 2.34965 259.046 2.46154C260.128 2.48951 262.294 2.51748 262.835 2.6014C262.835 2.62937 262.835 2.65734 262.835 2.65734C263.376 2.65734 263.917 2.65734 263.917 2.68531C263.647 2.74126 262.835 2.71329 262.023 2.71329C261.482 2.71329 260.67 2.71329 260.399 2.74126C260.94 2.82517 260.67 2.85315 259.046 2.85315C259.587 2.90909 261.211 2.88112 260.94 2.96503C261.752 2.96503 262.294 2.99301 263.105 2.99301C262.294 3.04895 260.67 2.99301 260.399 3.04895C261.211 3.1049 261.211 3.13287 259.858 3.1049C258.775 3.1049 257.422 3.07692 258.775 3.16084C259.587 3.16084 260.67 3.16084 261.482 3.21678ZM7.61426 1.48252C7.3436 1.48252 7.3436 1.48252 7.3436 1.51049C7.3436 1.48252 7.61426 1.48252 7.61426 1.48252ZM185.159 1.76224C184.888 1.76224 184.618 1.76224 184.347 1.79021C184.618 1.76224 184.888 1.76224 185.159 1.76224ZM46.5875 1.87413C46.8582 1.87413 46.8582 1.87413 46.5875 1.87413C46.8582 1.87413 46.8582 1.87413 46.5875 1.87413ZM75.8174 1.9021C76.0881 1.93007 76.0881 1.9021 76.3587 1.9021C76.0881 1.9021 75.8174 1.9021 75.8174 1.9021ZM109.648 2.32168C109.648 2.32168 109.378 2.29371 109.648 2.32168C109.378 2.32168 109.378 2.32168 109.648 2.32168ZM86.914 2.01399C86.914 1.98601 86.914 2.01399 86.914 2.01399C86.914 1.98601 86.914 1.98601 86.914 2.01399C86.914 2.01399 86.914 1.98601 86.914 2.01399ZM74.1935 2.54545C73.9229 2.54545 73.9229 2.54545 73.6522 2.51748C73.6522 2.51748 73.3816 2.51748 73.3816 2.54545C73.6522 2.54545 73.9229 2.54545 74.1935 2.54545ZM54.7069 2.20979C54.9776 2.20979 54.9776 2.20979 54.7069 2.20979C54.9776 2.20979 54.9776 2.20979 54.7069 2.20979C54.7069 2.20979 54.9776 2.20979 54.7069 2.20979ZM44.1517 2.18182C44.4223 2.15385 44.1517 2.15385 44.1517 2.18182C44.1517 2.15385 44.1517 2.15385 44.1517 2.18182C44.1517 2.15385 44.1517 2.15385 44.1517 2.18182ZM87.9966 2.7972C88.2672 2.7972 88.2672 2.7972 87.9966 2.7972C88.2672 2.7972 88.2672 2.7972 87.9966 2.7972C88.2672 2.7972 88.2672 2.7972 87.9966 2.7972ZM82.5836 2.71329C82.313 2.71329 82.313 2.74126 81.7717 2.74126C82.0423 2.71329 82.313 2.71329 82.5836 2.71329ZM31.1606 2.18182C31.1606 2.20979 31.1606 2.20979 31.1606 2.18182C31.1606 2.20979 31.1606 2.20979 31.1606 2.18182C31.1606 2.20979 31.1606 2.20979 31.1606 2.18182ZM199.233 1.62238C199.233 1.62238 199.233 1.59441 198.962 1.62238C198.962 1.62238 198.962 1.62238 198.691 1.62238C198.962 1.62238 198.962 1.62238 199.233 1.62238ZM221.155 2.62937C221.155 2.6014 221.426 2.6014 221.426 2.57343C220.884 2.6014 220.884 2.6014 221.155 2.62937ZM157.824 3.02098C157.824 3.02098 157.553 3.02098 157.553 3.04895C157.824 3.04895 158.365 3.04895 158.636 3.04895C158.365 3.02098 158.094 3.02098 157.824 3.02098ZM174.874 1.45455C174.874 1.42657 174.874 1.42657 174.874 1.45455C174.874 1.42657 174.604 1.42657 174.874 1.45455C174.604 1.45455 174.874 1.45455 174.874 1.45455ZM178.663 3.1049C178.934 3.1049 178.934 3.1049 178.663 3.1049C178.934 3.1049 178.934 3.1049 178.663 3.1049ZM41.1745 0.979021C41.1745 0.951049 41.1745 0.979021 41.1745 0.979021C41.1745 0.951049 41.1745 0.979021 41.1745 0.979021ZM216.013 1.84615C216.283 1.84615 216.283 1.84615 216.013 1.84615C216.283 1.81818 216.554 1.81818 216.554 1.79021C216.283 1.79021 216.013 1.79021 215.742 1.79021C216.013 1.81818 216.013 1.81818 216.013 1.84615ZM229.545 1.45455C229.275 1.45455 229.004 1.45455 228.733 1.45455C229.004 1.45455 229.275 1.45455 229.545 1.45455ZM213.036 1.37063C212.765 1.3986 212.765 1.3986 213.036 1.37063C213.577 1.37063 214.118 1.37063 214.66 1.37063C214.118 1.37063 213.577 1.37063 213.036 1.37063ZM134.819 3.41259C134.819 3.44056 134.819 3.44056 134.548 3.46853C134.819 3.46853 135.089 3.46853 135.36 3.46853C135.089 3.44056 135.089 3.44056 134.819 3.41259ZM190.031 0.867133C190.301 0.867133 190.301 0.867133 190.572 0.867133C190.572 0.867133 190.301 0.867133 190.031 0.867133ZM5.71973 1.76224C5.71973 1.76224 5.44907 1.76224 5.71973 1.76224V1.76224ZM61.2025 0.307692H60.9318H61.2025ZM110.731 0.531469C110.46 0.531469 110.46 0.531469 110.731 0.531469C110.731 0.531469 110.46 0.531469 110.731 0.531469ZM122.91 0.391608C123.181 0.391608 123.181 0.391608 123.451 0.391608C123.181 0.391608 123.181 0.391608 122.91 0.391608ZM256.339 3.58042C257.422 3.52448 258.234 3.55245 259.316 3.58042C258.504 3.58042 257.422 3.58042 256.339 3.58042ZM80.9597 0.111888V0.13986V0.111888ZM144.833 0.335664C145.103 0.335664 145.374 0.335664 145.644 0.363636C145.103 0.335664 144.833 0.335664 144.833 0.335664ZM241.724 1.62238C241.724 1.62238 241.724 1.65035 241.724 1.62238V1.62238Z" fill="url(#paint0_linear_392_915)" />
    <defs>
        <linearGradient id="paint0_linear_392_915" x1="223.96" y1="4.37008e-06" x2="40.3766" y2="115.755" gradientUnits="userSpaceOnUse">
            <stop offset="0.247843" stop-color="#3AFFDC" />
            <stop offset="0.247843" stop-color="#94E7A5" />
            <stop offset="1" stop-color="#FFCA63" />
        </linearGradient>
    </defs>
</svg>