<svg width="31" height="31" viewBox="0 0 31 31" fill="none"
    xmlns="http://www.w3.org/2000/svg">
    <path d="M3.01926 16.4688H28.045C28.5386 16.4688 28.9388 16.0621 28.9388 15.5605V0.908203C28.9388 0.406633 28.5386 0 28.045 0H3.01926C2.52566 0 2.12549 0.406633 2.12549 0.908203V15.5605C2.12549 16.0621 2.52566 16.4688 3.01926 16.4688ZM3.91304 1.81641H27.1512V14.6523H3.91304V1.81641Z" fill="#245757" />
    <path d="M30.59 22.2875C29.0505 20.3325 26.2327 20.0146 24.3086 21.5786C23.4533 22.2738 22.8496 22.7422 22.3913 23.059C21.7546 21.3392 20.1101 20.1218 18.2134 20.1218C16.6851 20.1218 14.6257 20.0501 12.2463 19.4909C9.92478 18.9496 8.63507 19.0775 6.40039 20.1015H1.1721C0.678493 20.1015 0.27832 20.5081 0.27832 21.0097V30.0917C0.27832 30.5933 0.678493 30.9999 1.1721 30.9999H6.59434C7.08794 30.9999 7.48811 30.5933 7.48811 30.0917V29.2071C8.90439 28.8074 10.1221 28.7665 11.3673 29.0681C13.3127 29.5392 15.1351 29.774 16.8704 29.774C22.3102 29.774 26.8384 27.4306 30.5394 23.4812C30.8477 23.1523 30.8693 22.6423 30.59 22.2875ZM2.06587 29.1836V21.9179H5.70056V29.1836H2.06587ZM11.7817 27.3012C10.3713 26.9596 9.0095 26.9659 7.48811 27.332V21.5991C9.13898 20.8813 10.0208 20.8356 11.845 21.261C14.3991 21.8613 16.59 21.9383 18.2134 21.9383C19.3634 21.9383 20.3581 22.6831 20.7294 23.73C20.696 23.7316 13.7445 23.7344 13.7445 23.7344C13.2509 23.7344 12.8508 24.141 12.8508 24.6426C12.8508 25.1441 13.2509 25.5508 13.7445 25.5508C13.7445 25.5508 20.6627 25.5506 20.6728 25.5503C22.1899 25.4983 22.9765 24.9875 25.4252 22.9971C26.3675 22.2312 27.667 22.2174 28.615 22.876C22.4415 28.9815 16.0821 28.3426 11.7817 27.3012Z" fill="#245757" />
    <path d="M8.38201 5.44922C8.87561 5.44922 9.27579 5.04259 9.27579 4.54102C9.27579 4.03945 8.87561 3.63281 8.38201 3.63281H6.59446C6.10086 3.63281 5.70068 4.03945 5.70068 4.54102V11.9277C5.70068 12.4293 6.10086 12.8359 6.59446 12.8359H8.38201C8.87561 12.8359 9.27579 12.4293 9.27579 11.9277C9.27579 11.4262 8.87561 11.0195 8.38201 11.0195H7.48824V5.44922H8.38201Z" fill="#245757" />
    <path d="M24.4699 3.63281H22.6823C22.1887 3.63281 21.7886 4.03945 21.7886 4.54102C21.7886 5.04259 22.1887 5.44922 22.6823 5.44922H23.5761V11.0195H22.6823C22.1887 11.0195 21.7886 11.4262 21.7886 11.9277C21.7886 12.4293 22.1887 12.8359 22.6823 12.8359H24.4699C24.9635 12.8359 25.3637 12.4293 25.3637 11.9277V4.54102C25.3637 4.03945 24.9635 3.63281 24.4699 3.63281Z" fill="#245757" />
    <path d="M15.5319 3.63281C13.0617 3.63281 11.063 5.72368 11.063 8.23438C11.063 10.7445 13.0611 12.8359 15.5319 12.8359C18.002 12.8359 20.0007 10.7451 20.0007 8.23438C20.0007 5.72422 18.0026 3.63281 15.5319 3.63281ZM15.5319 11.0195C14.0784 11.0195 12.8505 9.74411 12.8505 8.23438C12.8505 6.72464 14.0784 5.44922 15.5319 5.44922C16.9853 5.44922 18.2132 6.72464 18.2132 8.23438C18.2132 9.74411 16.9853 11.0195 15.5319 11.0195Z" fill="#245757" />
</svg>