<svg width="22" height="29" viewBox="0 0 22 29" fill="none"
    xmlns="http://www.w3.org/2000/svg">
    <path d="M18.3561 12.3328V7.7403C18.3682 5.66229 17.5497 3.66419 16.0884 2.20712C14.6757 0.780793 12.8263 0 10.8679 0C10.8376 0 10.8012 0 10.7709 0C6.59322 0.00614798 3.19775 3.47361 3.19775 7.7403V12.3328C1.62127 12.5234 0.469238 13.8637 0.469238 15.4867V25.8031C0.469238 27.5552 1.85168 29 3.57974 29H17.9802C19.7082 29 21.0907 27.5552 21.0907 25.8031V15.4867C21.0846 13.8698 19.9326 12.5234 18.3561 12.3328ZM4.40435 7.7403H4.41042C4.41042 4.14988 7.26625 1.21115 10.7769 1.21115H10.783C12.4504 1.205 14.0511 1.87513 15.2335 3.06784C16.4644 4.30358 17.1495 5.98813 17.1374 7.7403V12.339H15.8035V7.7403C15.8156 6.34471 15.2699 5.00445 14.2937 4.02078C13.372 3.08628 12.123 2.55756 10.8194 2.55756H10.783C7.99386 2.55756 5.73829 4.88149 5.73829 7.73415V12.339H4.40435V7.7403ZM14.5968 7.7403V12.339H6.95702V7.7403C6.95702 5.56392 8.66689 3.7933 10.7891 3.7933H10.8254C11.8077 3.7933 12.7536 4.19292 13.4509 4.89994C14.1906 5.64999 14.609 6.6767 14.5968 7.7403ZM19.9326 25.8215C19.9326 26.8974 19.0716 27.7704 18.0105 27.7704H3.60399C2.5429 27.7704 1.68191 26.8974 1.68191 25.8215V15.5175C1.68191 14.4416 2.5429 13.5686 3.60399 13.5686H18.0105C19.0716 13.5686 19.9326 14.4416 19.9326 15.5175V25.8215Z" fill="#245757" />
    <path d="M12.8742 20.2882C12.6074 19.3353 11.7525 18.6836 10.7763 18.6836C9.56967 18.6836 8.5874 19.6734 8.5874 20.903C8.5874 21.8928 9.23012 22.7597 10.1699 23.0302V24.7516C10.1699 25.0898 10.4428 25.3664 10.7763 25.3664C11.1098 25.3664 11.3826 25.0898 11.3826 24.7516V23.0302C12.5407 22.6921 13.2137 21.4625 12.8742 20.2882ZM10.7763 21.8867C10.2366 21.8867 9.80007 21.444 9.80007 20.8969C9.80007 20.3497 10.2366 19.907 10.7763 19.907C11.3159 19.907 11.7525 20.3497 11.7525 20.8969C11.7525 21.444 11.3159 21.8867 10.7763 21.8867Z" fill="#245757" />
</svg>