<svg width="32" height="26" viewBox="0 0 32 26" fill="none"
    xmlns="http://www.w3.org/2000/svg">
    <path d="M31.6147 12.377C31.6147 10.8746 30.3065 9.65234 28.6986 9.65234H24.3676C24.9042 8.29688 25.237 6.68688 25.4315 5.46728C25.628 4.23612 25.2423 2.98989 24.3735 2.04802C23.5072 1.10894 22.2492 0.570312 20.9223 0.570312C20.3854 0.570312 19.9502 0.976945 19.9502 1.47852C19.9502 3.67255 18.6007 6.98471 17.0258 7.72247C15.2531 8.55275 11.7657 9.47288 11.071 9.65234C10.6374 9.65234 1.77107 9.65234 1.35192 9.65234C0.815098 9.65234 0.379883 10.059 0.379883 10.5605V23.2754C0.379818 23.777 0.815033 24.1836 1.35186 24.1836H4.26798V25.0918C4.26798 25.5934 4.7032 26 5.24002 26H9.25779C10.445 26 11.4681 25.3333 11.9226 24.3799L18.7424 25.9729C18.8196 25.9909 18.8987 26 18.9782 26H24.8104C26.4184 26 27.7266 24.7777 27.7266 23.2754C27.7266 22.9211 27.6538 22.5824 27.5215 22.2716C28.7585 21.9561 29.6706 20.897 29.6706 19.6426C29.6706 19.2883 29.5979 18.9496 29.4656 18.6388C30.7026 18.3233 31.6147 17.2642 31.6147 16.0098C31.6147 15.3126 31.333 14.6757 30.8704 14.1934C31.333 13.711 31.6147 13.0742 31.6147 12.377ZM4.26792 22.3672H2.32383V11.4688H4.26792V22.3672ZM10.2298 23.2754C10.2298 23.7762 9.7937 24.1836 9.25772 24.1836H6.212V11.4688H10.2298V23.2754ZM22.8664 15.1016H28.6986C29.2346 15.1016 29.6706 15.509 29.6706 16.0098C29.6706 16.5105 29.2346 16.918 28.6986 16.918C27.9657 16.918 23.4654 16.918 22.8664 16.918C22.3295 16.918 21.8943 17.3246 21.8943 17.8262C21.8943 18.3277 22.3295 18.7344 22.8664 18.7344H26.7545C27.2905 18.7344 27.7266 19.1418 27.7266 19.6426C27.7266 20.1434 27.2905 20.5508 26.7545 20.5508C26.3424 20.5508 23.2784 20.5508 22.8664 20.5508C22.3295 20.5508 21.8943 20.9574 21.8943 21.459C21.8943 21.9606 22.3295 22.3672 22.8664 22.3672H24.8104C25.3464 22.3672 25.7825 22.7746 25.7825 23.2754C25.7825 23.7762 25.3464 24.1836 24.8104 24.1836H19.0979L12.1739 22.5663V11.2493C13.4854 10.8975 16.2672 10.1097 17.897 9.34628C20.1295 8.30057 21.4965 4.99302 21.8199 2.53512C22.2334 2.67644 22.6066 2.91487 22.901 3.23395C23.4003 3.77506 23.6218 4.49145 23.5087 5.19942C23.0483 8.08472 22.4707 9.26908 21.997 10.1543C21.8463 10.4359 21.8624 10.7702 22.0395 11.038C22.2166 11.3057 22.5294 11.4688 22.8664 11.4688H28.6986C29.2346 11.4688 29.6706 11.8762 29.6706 12.377C29.6706 12.8777 29.2346 13.2852 28.6986 13.2852H22.8664C22.3295 13.2852 21.8943 13.6918 21.8943 14.1934C21.8943 14.6949 22.3295 15.1016 22.8664 15.1016Z" fill="#245757" />
</svg>