<svg width="38" height="36" viewBox="0 0 38 36" fill="none"
    xmlns="http://www.w3.org/2000/svg">
    <g clip-path="url(#clip0_450_384)">
        <path d="M28.1169 21.4033C25.5312 21.4033 23.4277 23.4389 23.4277 25.9411C23.4277 28.4434 25.5312 30.479 28.1169 30.479C30.703 30.479 32.8061 28.4434 32.8061 25.9411C32.8061 23.4389 30.7026 21.4033 28.1169 21.4033ZM28.1169 28.2101C26.8239 28.2101 25.7723 27.1924 25.7723 25.9411C25.7723 24.6899 26.8239 23.6722 28.1169 23.6722C29.4099 23.6722 30.4615 24.6899 30.4615 25.9411C30.4615 27.1925 29.4099 28.2101 28.1169 28.2101Z" fill="#245757" />
        <path d="M12.0964 21.4033C9.51074 21.4033 7.40723 23.4389 7.40723 25.9411C7.40723 28.4434 9.51074 30.479 12.0964 30.479C14.6821 30.479 16.7856 28.4434 16.7856 25.9411C16.7856 23.4389 14.6821 21.4033 12.0964 21.4033ZM12.0964 28.2101C10.8034 28.2101 9.75181 27.1924 9.75181 25.9411C9.75181 24.6899 10.8034 23.6722 12.0964 23.6722C13.3891 23.6722 14.441 24.6899 14.441 25.9411C14.441 27.1925 13.3894 28.2101 12.0964 28.2101Z" fill="#245757" />
        <path d="M31.2754 8.41477C31.0761 8.0317 30.6709 7.79004 30.2278 7.79004H24.0537V10.059H29.5048L32.697 16.2031L34.7923 15.1836L31.2754 8.41477Z" fill="#245757" />
        <path d="M24.6008 24.8447H15.7305V27.1136H24.6008V24.8447Z" fill="#245757" />
        <path d="M8.58087 24.8447H4.51698C3.86946 24.8447 3.34473 25.3526 3.34473 25.9791C3.34473 26.6058 3.86953 27.1136 4.51698 27.1136H8.58094C9.22846 27.1136 9.7532 26.6057 9.7532 25.9791C9.7532 25.3525 9.22839 24.8447 8.58087 24.8447Z" fill="#245757" />
        <path d="M36.9777 17.9092L34.6718 15.0353C34.4503 14.7584 34.1084 14.5966 33.7461 14.5966H25.2274V6.65542C25.2274 6.02879 24.7026 5.521 24.0552 5.521H4.51698C3.86946 5.521 3.34473 6.02886 3.34473 6.65542C3.34473 7.28197 3.86953 7.78984 4.51698 7.78984H22.8829V15.731C22.8829 16.3576 23.4077 16.8654 24.0551 16.8654H33.172L34.8793 18.9936V24.8444H31.6359C30.9884 24.8444 30.4637 25.3523 30.4637 25.9788C30.4637 26.6055 30.9885 27.1133 31.6359 27.1133H36.0515C36.6991 27.1133 37.2238 26.6054 37.2239 25.9788V18.605C37.2239 18.3532 37.1371 18.1081 36.9777 17.9092Z" fill="#245757" />
        <path d="M8.50135 19.0967H3.10878C2.46126 19.0967 1.93652 19.6045 1.93652 20.2311C1.93652 20.8577 2.46133 21.3655 3.10878 21.3655H8.50128C9.14881 21.3655 9.67354 20.8577 9.67354 20.2311C9.67361 19.6045 9.14881 19.0967 8.50135 19.0967Z" fill="#245757" />
        <path d="M11.1983 14.6344H1.19472C0.547267 14.6344 0.0224609 15.1423 0.0224609 15.7689C0.0224609 16.3955 0.547267 16.9033 1.19472 16.9033H11.1983C11.8458 16.9033 12.3705 16.3954 12.3705 15.7689C12.3705 15.1423 11.8458 14.6344 11.1983 14.6344Z" fill="#245757" />
        <path d="M13.1123 10.1724H3.10878C2.46126 10.1724 1.93652 10.6802 1.93652 11.3068C1.93652 11.9334 2.46133 12.4412 3.10878 12.4412H13.1123C13.7599 12.4412 14.2846 11.9333 14.2846 11.3068C14.2847 10.6802 13.7599 10.1724 13.1123 10.1724Z" fill="#245757" />
    </g>
    <defs>
        <clipPath id="clip0_450_384">
            <rect width="37.2007" height="36" fill="white" transform="translate(0.0224609)" />
        </clipPath>
    </defs>
</svg>