<svg width="26" height="21" viewBox="0 0 26 21" fill="none"
    xmlns="http://www.w3.org/2000/svg">
    <path d="M21.96 12.496H10.788C10.6947 12.496 10.6013 12.468 10.508 12.412C10.4333 12.356 10.3773 12.2907 10.34 12.216L5.216 0.483999C5.19733 0.409332 5.14133 0.343999 5.048 0.287998C4.97333 0.231999 4.88933 0.204 4.796 0.204H1.044C0.969333 0.204 0.894667 0.231999 0.82 0.287998C0.764 0.343999 0.736 0.418666 0.736 0.511999V1.436C0.736 1.51067 0.764 1.58533 0.82 1.66C0.894667 1.716 0.969333 1.744 1.044 1.744H3.788C3.88133 1.744 3.96533 1.772 4.04 1.828C4.13333 1.884 4.18933 1.94933 4.208 2.024L9.36 13.756C9.37867 13.8307 9.42533 13.896 9.5 13.952C9.59333 14.008 9.68667 14.036 9.78 14.036H21.96C22.0533 14.036 22.128 14.008 22.184 13.952C22.24 13.8773 22.268 13.8027 22.268 13.728V12.804C22.268 12.7107 22.24 12.636 22.184 12.58C22.128 12.524 22.0533 12.496 21.96 12.496ZM12.272 15.576C11.6373 15.576 11.096 15.8 10.648 16.248C10.2 16.696 9.976 17.2373 9.976 17.872C9.976 18.5067 10.2 19.0573 10.648 19.524C11.096 19.972 11.6373 20.196 12.272 20.196C12.9067 20.196 13.448 19.972 13.896 19.524C14.3627 19.0573 14.596 18.5067 14.596 17.872C14.596 17.2373 14.372 16.696 13.924 16.248C13.476 15.8 12.9253 15.576 12.272 15.576ZM19.972 15.576C19.3373 15.576 18.7867 15.8 18.32 16.248C17.872 16.696 17.648 17.2373 17.648 17.872C17.648 18.5067 17.872 19.0573 18.32 19.524C18.7867 19.972 19.3373 20.196 19.972 20.196C20.6067 20.196 21.148 19.972 21.596 19.524C22.044 19.076 22.268 18.5347 22.268 17.9C22.268 17.2467 22.044 16.696 21.596 16.248C21.148 15.8 20.6067 15.576 19.972 15.576ZM25.04 3.284H8.744C8.65067 3.284 8.58533 3.312 8.548 3.368C8.52933 3.424 8.52933 3.48933 8.548 3.564L8.94 4.544C8.97733 4.61867 9.03333 4.684 9.108 4.74C9.20133 4.796 9.28533 4.824 9.36 4.824H24.424C24.4987 4.824 24.5733 4.796 24.648 4.74C24.7413 4.684 24.8067 4.61867 24.844 4.544L25.236 3.564C25.2547 3.48933 25.2453 3.424 25.208 3.368C25.1893 3.312 25.1333 3.284 25.04 3.284ZM22.576 9.416H11.208C11.1333 9.416 11.068 9.444 11.012 9.5C10.9747 9.556 10.9747 9.62133 11.012 9.696L11.404 10.676C11.4227 10.7507 11.4693 10.816 11.544 10.872C11.6373 10.928 11.7307 10.956 11.824 10.956H21.96C22.0533 10.956 22.1373 10.928 22.212 10.872C22.3053 10.816 22.3613 10.7507 22.38 10.676L22.772 9.696C22.8093 9.62133 22.8 9.556 22.744 9.5C22.7067 9.444 22.6507 9.416 22.576 9.416ZM23.808 6.336H9.976C9.90133 6.336 9.836 6.364 9.78 6.42C9.74267 6.476 9.74267 6.54133 9.78 6.616L10.172 7.596C10.1907 7.67067 10.2373 7.736 10.312 7.792C10.4053 7.848 10.4987 7.876 10.592 7.876H23.192C23.2853 7.876 23.3693 7.848 23.444 7.792C23.5373 7.736 23.5933 7.67067 23.612 7.596L24.004 6.616C24.0413 6.54133 24.032 6.476 23.976 6.42C23.9387 6.364 23.8827 6.336 23.808 6.336Z" fill="currentColor" />
</svg>