<svg width="34" height="30" viewBox="0 0 34 30" fill="none"
    xmlns="http://www.w3.org/2000/svg">
    <g clip-path="url(#clip0_450_360)">
        <path d="M32.9794 10.3554H29.8945C29.4194 4.57002 24.2957 0 18.0657 0C11.8357 0 6.71188 4.57002 6.2368 10.3554H3.15188C2.63924 10.3554 2.22363 10.749 2.22363 11.2344V20.6484C2.22363 21.1338 2.63924 21.5273 3.15188 21.5273H7.12891C7.64154 21.5273 8.05715 21.1338 8.05715 20.6484V11.2344C8.05715 6.00897 12.5469 1.75781 18.0657 1.75781C23.5844 1.75781 28.0742 6.00897 28.0742 11.2344V20.6484C28.0742 23.7974 25.3684 26.3594 22.0426 26.3594H20.8301C20.4414 25.2663 19.3494 24.4766 18.0657 24.4766C16.4574 24.4766 15.1489 25.7155 15.1489 27.2383C15.1489 28.7611 16.4574 30 18.0657 30C19.3494 30 20.4414 29.2103 20.8301 28.1172H22.0426C26.078 28.1172 29.4149 25.2329 29.8758 21.5273H32.9794C33.4921 21.5273 33.9077 21.1338 33.9077 20.6484V11.2344C33.9077 10.749 33.4921 10.3554 32.9794 10.3554ZM6.20066 19.7695H4.08012V12.1133H6.20066V19.7695ZM18.0657 28.2422C17.4811 28.2422 17.0054 27.7918 17.0054 27.2383C17.0054 26.6848 17.4811 26.2344 18.0657 26.2344C18.6503 26.2344 19.126 26.6848 19.126 27.2383C19.126 27.7918 18.6503 28.2422 18.0657 28.2422ZM32.0512 19.7695H29.9307V12.1133H32.0512V19.7695Z" fill="#245757" />
        <path d="M24.8827 10.4224C24.536 10.2864 24.1367 10.3615 23.8712 10.6129C23.8711 10.6129 20.973 13.356 19.599 14.6561C18.9818 15.2436 18.6279 16.0553 18.6279 16.8829C18.6279 17.3682 19.0435 17.7618 19.5562 17.7618H23.5992V19.7071C23.5992 20.1925 24.0148 20.586 24.5275 20.586C25.0401 20.586 25.4557 20.1925 25.4557 19.7071V17.7618H25.5217C26.0343 17.7618 26.4499 17.3682 26.4499 16.8829C26.4499 16.3975 26.0343 16.004 25.5217 16.004H25.4557V11.2344C25.4557 10.879 25.2295 10.5585 24.8827 10.4224ZM23.5992 16.004H20.8128C20.8443 15.9669 20.8779 15.9314 20.9133 15.8976C21.6086 15.2398 22.6959 14.2107 23.5992 13.3557V16.004Z" fill="#245757" />
        <path d="M17.0059 19.707C17.0059 19.2216 16.5903 18.8281 16.0776 18.8281H12.363C12.3945 18.7911 12.428 18.7555 12.4635 18.7218C13.8356 17.4235 16.7339 14.6802 16.7339 14.6802C16.9081 14.5153 17.006 14.2917 17.006 14.0586V13.5879C17.006 11.8055 15.4745 10.3555 13.5921 10.3555C11.691 10.3555 10.1782 11.814 10.1782 13.5869V13.5879C10.1782 14.0732 10.5938 14.4663 11.1065 14.4663C11.6191 14.4663 12.0347 14.0723 12.0347 13.5869C12.0347 12.7812 12.7198 12.1133 13.5921 12.1133C14.4509 12.1133 15.1495 12.7748 15.1495 13.5879V13.6944C14.3968 14.4069 12.2679 16.4218 11.1492 17.4804C10.5321 18.0679 10.1782 18.8795 10.1782 19.707C10.1782 20.1924 10.5938 20.5859 11.1065 20.5859H16.0777C16.5903 20.5859 17.0059 20.1925 17.0059 19.707Z" fill="#245757" />
    </g>
    <defs>
        <clipPath id="clip0_450_360">
            <rect width="33.179" height="30" fill="white" transform="translate(0.0932617)" />
        </clipPath>
    </defs>
</svg>