<svg version="1.2" xmlns="http://www.w3.org/2000/svg" viewBox="0 0 2600 2000" width="2600" height="2000">
	<title>16375160_Group of customers shopping in online store and huge tablet-ai</title>
	<style>
		.s0 { fill: #103663 } 
		.s1 { fill: #eb5648 } 
		.s2 { fill: #fcb4b4 } 
		.s3 { fill: #7689d6 } 
		.s4 { fill: #8a9edd } 
		.s5 { fill: #ffffff } 
		.s6 { fill: #b1d2ef } 
		.s7 { fill: #b0c7f5 } 
		.s8 { fill: #d4e9f9 } 
		.s9 { fill: #f99370 } 
		.s10 { fill: #ce3932 } 
		.s11 { fill: #ce4abf } 
		.s12 { fill: #1d3f70 } 
		.s13 { fill: #8e4a35 } 
		.s14 { fill: #9358e0 } 
		.s15 { fill: #7640cc } 
		.s16 { fill: #e57d61 } 
		.s17 { fill: #c16256 } 
		.s18 { fill: #f4d4be } 
		.s19 { fill: #ed8569 } 
		.s20 { fill: #3a72aa } 
		.s21 { fill: #23659b } 
		.s22 { fill: #e8c0a6 } 
		.s23 { fill: #f9f8f3 } 
		.s24 { fill: #fdffde } 
		.s25 { fill: #a523a2 } 
		.s26 { fill: #c92828 } 
		.s27 { fill: #395b96 } 
		.s28 { fill: #163356 } 
		.s29 { fill: #d1a68f } 
		.s30 { fill: #163260 } 
	</style>
	<g id="_Artboards_">
	</g>
	<g id="321353356351 1">
		<g id="&lt;Group&gt;">
			<g id="6">
				<g id="&lt;Group&gt;">
					<path id="&lt;Compound Path&gt;" fill-rule="evenodd" class="s0" d="m1154.5 461.5q0 0-0.1 0c-8.4 0-16.3-4-22.2-11.3-5.8-7.1-8.9-16.6-8.9-26.6 0-20.8 14-37.7 31.2-37.7q0 0 0.1 0c17.2 0 31.1 17 31.1 37.8 0 10.1-3.2 19.5-9 26.6-5.9 7.2-13.8 11.2-22.2 11.2zm0-71.2c-14.7 0-26.7 15-26.8 33.3 0 9 2.8 17.5 8 23.8 5 6.2 11.7 9.6 18.7 9.7q0.1 0 0.1 0c7 0 13.7-3.4 18.7-9.6 5.2-6.3 8.1-14.8 8.1-23.8 0-18.4-12-33.4-26.7-33.4q-0.1 0-0.1 0z"/>
					<path id="&lt;Path&gt;" class="s1" d="m1220.9 543.1l-133.2-0.3 17.3-119.4 99 0.2z"/>
				</g>
				<g id="&lt;Group&gt;">
					<path id="&lt;Compound Path&gt;" fill-rule="evenodd" class="s0" d="m1223 487.5q0 0 0 0c-12.4 0-22.4-12.2-22.4-27.1 0-14.9 10.1-27 22.4-27q0.1 0 0.1 0c12.3 0.1 22.4 12.2 22.4 27.1-0.1 14.9-10.1 27-22.5 27zm0-49.6c-9.9 0-18 10.1-18 22.5 0 12.5 8.1 22.7 18 22.7q0 0 0 0c9.9 0 18-10.1 18-22.6 0.1-12.5-8-22.6-17.9-22.6q0 0-0.1 0z"/>
					<path id="&lt;Path&gt;" class="s2" d="m1269.3 543.7l-92.9-0.1 12.1-83.3 69.1 0.1z"/>
				</g>
			</g>
			<g id="5">
				<path id="&lt;Path&gt;" class="s3" d="m1601.2 1600.5l-677.2 16.8c-44.9 0-74.3-30.3-75.7-47.9l-78.8-974.5c-1.5-19.6 23.7-53.1 75.6-53.1l677.3 16.8c17.6 0 32.2 13.5 33.6 31.1l78.8 974.5c1.5 19.5-13.9 36.3-33.6 36.3z"/>
				<path id="&lt;Path&gt;" class="s4" d="m1643.3 1617.3h-719.3c-17.6 0-32.2-13.5-33.6-31.1l-78.9-1008.1c-1.5-19.6 14-36.3 33.6-36.3h719.3c17.6 0 32.2 13.5 33.6 31l78.9 1008.2c1.5 19.6-14 36.3-33.6 36.3z"/>
				<path id="&lt;Path&gt;" class="s5" d="m1599.9 1576.1h-635.2c-17.5 0-32.1-13.4-33.5-30.8l-78.5-924.1c-1.6-19.6 13.9-36.5 33.6-36.5h635.2c17.5 0 32.1 13.4 33.5 30.8l78.4 924.1c1.7 19.7-13.8 36.5-33.5 36.5z"/>
				<path id="&lt;Path&gt;" class="s4" d="m1070.8 541.8v26.2c0 22.5 18.2 40.8 40.8 40.8h35.5v6.6c0 11 8.8 19.8 19.8 19.8h104.2c10.9 0 19.8-8.8 19.8-19.8v-6.6h35.5c22.5 0 40.8-18.3 40.8-40.8v-26.2z"/>
				<g id="&lt;Group&gt;">
					<path id="&lt;Compound Path&gt;" fill-rule="evenodd" class="s6" d="m1408.2 963.3c-132.2 9.6-149.9-186.6-18.2-200.9 132.3-9.6 150 186.6 18.2 200.9zm-16.7-184.7c-110.6 12-95.7 176.6 15.3 168.6 110.6-12 95.6-176.7-15.3-168.6z"/>
					<path id="&lt;Path&gt;" class="s1" d="m1414.3 910.4c-9.3 4.4-63.3-48.9-70.7-52.8-16.2-13.7 4.4-38.4 20.8-24.9 0 0 46.4 38.7 46.4 38.7l87-104.4c13.6-16.2 38.4 4.4 24.9 20.8-4.4 2.6-102.6 130.3-108.4 122.6z"/>
				</g>
				<g id="&lt;Group&gt;">
					<path id="&lt;Compound Path&gt;" fill-rule="evenodd" class="s7" d="m1052.4 1219.1c-24.4 0-44.3-19.9-44.3-44.3 0-24.4 19.9-44.3 44.3-44.3 24.4 0 44.3 19.9 44.3 44.3 0 24.4-19.9 44.3-44.3 44.3zm0-63.8c-10.7 0-19.5 8.7-19.5 19.5 0 10.7 8.8 19.5 19.5 19.5 10.7 0 19.5-8.8 19.5-19.5 0-10.8-8.8-19.5-19.5-19.5z"/>
					<path id="&lt;Compound Path&gt;" fill-rule="evenodd" class="s7" d="m1165.3 1332c-24.4 0-44.3-19.9-44.3-44.3 0-24.4 19.9-44.3 44.3-44.3 24.4 0 44.3 19.9 44.3 44.3 0 24.4-19.9 44.3-44.3 44.3zm0-63.8c-10.7 0-19.5 8.8-19.5 19.5 0 10.7 8.8 19.5 19.5 19.5 10.8 0 19.5-8.8 19.5-19.5 0-10.7-8.7-19.5-19.5-19.5z"/>
					<path id="&lt;Path&gt;" class="s7" d="m1032.9 1319.6c-3.2 0-6.3-1.2-8.7-3.6-4.9-4.9-4.9-12.7 0-17.6l151.8-151.9c4.9-4.8 12.7-4.8 17.6 0 4.8 4.9 4.8 12.7 0 17.6l-151.9 151.9c-2.4 2.4-5.6 3.6-8.8 3.6z"/>
				</g>
				<path id="&lt;Path&gt;" class="s7" d="m1202.2 718.9h-269c-5.7 0-10.2-4.6-10.2-10.2 0-5.7 4.5-10.2 10.2-10.2h269c5.6 0 10.1 4.5 10.1 10.2 0 5.6-4.5 10.2-10.1 10.2z"/>
				<path id="&lt;Path&gt;" class="s7" d="m1212.3 823.9h-269c-5.6 0-10.1-4.6-10.1-10.2 0-5.6 4.5-10.2 10.1-10.2h269c5.7 0 10.2 4.6 10.2 10.2 0 5.6-4.5 10.2-10.2 10.2z"/>
				<path id="&lt;Path&gt;" class="s7" d="m1222.5 928.9h-269c-5.6 0-10.2-4.5-10.2-10.1 0-5.7 4.6-10.2 10.2-10.2h269c5.7 0 10.2 4.5 10.2 10.2 0 5.6-4.5 10.1-10.2 10.1z"/>
				<path id="&lt;Path&gt;" class="s7" d="m1232.7 1034h-269c-5.6 0-10.2-4.6-10.2-10.2 0-5.6 4.6-10.2 10.2-10.2h269c5.6 0 10.2 4.6 10.2 10.2 0 5.6-4.6 10.2-10.2 10.2z"/>
				<path id="&lt;Compound Path&gt;" fill-rule="evenodd" class="s7" d="m1505.6 1513.4h-446.3c-22.6 0-41.5-17.2-43.6-39.7-2.5-25.7 17.7-48 43.6-48h446.3c22.6 0 41.4 17.2 43.6 39.7 2.5 25.7-17.8 48-43.6 48zm-404.7-38.2l15.6-11.3h-19.3l-6-18.4-5.9 18.4h-19.4l15.7 11.3-6 18.4 15.6-11.4 15.7 11.4zm95.6 0l15.6-11.4h-19.3l-6-18.3-6 18.3h-19.3l15.6 11.4-5.9 18.4 15.6-11.4 15.6 11.4zm95.6 0l15.7-11.4h-19.4l-5.9-18.4-6 18.4h-19.3l15.6 11.4-6 18.4 15.7-11.4 15.6 11.4zm95.6 0l15.6-11.4h-19.3l-6-18.4-5.9 18.4h-19.3l15.6 11.4-6 18.3 15.6-11.3 15.7 11.3zm95.6 0l15.6-11.3h-19.3l-6-18.4-6 18.4h-19.3l15.7 11.3-6 18.4 15.6-11.4 15.7 11.4z"/>
				<path id="&lt;Path&gt;" class="s8" d="m1357.6 1186.7l-0.4 9.4c0 0 67.6 17.5 113.6-7.3-0.3-3.8-3.7-50.3-4.1-55.5l6 8 29-18.9c-10.7-19.1-33.6-49.8-64.7-58.5-5.9 30.7-43.1 28.6-53.3 1.4-18.9 11.1-51.9 37.4-57.8 72.1l30.5 9.9 3.1-8.8z"/>
				<path id="&lt;Path&gt;" class="s7" d="m1404.2 1217l-0.4 9.4c0 0 67.5 17.5 113.6-7.3-0.3-3.8-3.7-50.3-4.1-55.5l5.9 8 29.1-18.9c-10.7-19.1-33.7-49.8-64.7-58.5-5.9 30.7-43.2 28.6-53.4 1.4-18.8 11.1-51.8 37.4-57.7 72.1l30.5 9.9 3.1-8.7z"/>
			</g>
			<g id="4">
				<path id="&lt;Path&gt;" class="s9" d="m1847.1 1284.2c0 0 1.2 7.3-4.8 18.5 0 0-26.9 6.1-8-26.5 0 0 10.2 3.1 12.8 8z"/>
				<g id="&lt;Group&gt;">
					<path id="&lt;Compound Path&gt;" fill-rule="evenodd" class="s0" d="m1853.2 1366.7c-12.9 0-26.2-8.8-33-23.3-9-18.8-3.6-40.2 11.9-47.5 7.6-3.7 16.5-3.4 24.9 0.6 8.3 3.9 15.3 11.1 19.5 20.1 9 18.9 3.6 40.2-11.9 47.6-3.7 1.7-7.5 2.5-11.4 2.5zm-9.6-69c-3.4 0-6.6 0.8-9.6 2.2-13.3 6.3-17.7 25-9.8 41.6 7.9 16.6 25.1 25 38.5 18.7 13.3-6.4 17.7-25 9.8-41.7-3.8-8.1-10-14.5-17.4-18-3.8-1.8-7.7-2.8-11.5-2.8z"/>
					<path id="&lt;Path&gt;" class="s10" d="m1959.7 1409.2l-120.4 57.1-35.8-115.2 89.5-42.5z"/>
				</g>
				<g id="&lt;Group&gt;">
					<path id="&lt;Compound Path&gt;" fill-rule="evenodd" class="s0" d="m1833.4 1370.5q-1.2 0-2.4-0.1c-8.3-0.7-15.9-5.4-21.1-13.1-5.2-7.6-7.5-17.3-6.6-27.3 0.9-9.9 4.9-19.1 11.3-25.6 6.5-6.8 14.7-10 23.1-9.3 8.4 0.7 15.9 5.4 21.1 13.2 5.2 7.6 7.5 17.2 6.7 27.2-0.9 10-4.9 19.1-11.3 25.7-5.9 6.1-13.3 9.3-20.8 9.3zm2-71.1c-6.4 0-12.6 2.8-17.7 8-5.6 5.9-9.2 14.1-10 23-0.8 9 1.3 17.6 5.9 24.4 4.5 6.6 10.8 10.6 17.8 11.2 7.1 0.6 14-2.2 19.6-7.9 5.7-5.9 9.2-14 10-23 0.8-8.9-1.3-17.6-5.8-24.4-4.5-6.6-10.9-10.6-17.9-11.2q-1-0.1-1.9-0.1z"/>
					<path id="&lt;Path&gt;" class="s11" d="m1890.2 1457.4l-132.7-11.7 27.5-117.5 98.7 8.7z"/>
				</g>
				<g id="&lt;Group&gt;">
					<path id="&lt;Compound Path&gt;" fill-rule="evenodd" class="s0" d="m1813.6 1362.9c-5.3 0-10.4-1.5-14.9-4.4-7-4.6-11.4-12.3-12.4-21.6-0.9-9.1 1.6-18.7 7.1-27.1 5.5-8.4 13.3-14.5 22.1-17.3 8.9-2.8 17.7-1.8 24.7 2.8 7.1 4.6 11.5 12.3 12.4 21.6 1 9.1-1.5 18.7-7 27.1-5.5 8.4-13.4 14.5-22.1 17.3-3.3 1.1-6.7 1.6-9.9 1.6zm11.7-67.5c-2.8 0-5.6 0.4-8.5 1.3-7.8 2.5-14.8 8-19.7 15.5-4.9 7.5-7.2 16.2-6.4 24.3 0.9 7.9 4.6 14.4 10.5 18.3 5.9 3.9 13.3 4.7 20.9 2.3 7.8-2.5 14.8-8 19.8-15.5 4.9-7.5 7.2-16.1 6.3-24.3-0.8-7.9-4.5-14.4-10.4-18.3-3.7-2.4-8-3.6-12.5-3.6z"/>
					<path id="&lt;Path&gt;" class="s1" d="m1809.8 1463.2l-111.4-73.1 79.8-90.5 82.8 54.3z"/>
				</g>
				<path id="&lt;Path&gt;" class="s9" d="m1988.1 1561.3l60.5-26.4c0 0-0.7-3.6-4.1-8.7-15-16.7-31.1-113-57.3-135.6-87.6-75.3 25.7 127.4 23.9 126.3 9.7 20.7-29.5 23.4-28 41.5 0.2 2.4 2.8 3.9 5 2.9z"/>
				<path id="&lt;Path&gt;" class="s12" d="m1987.8 1561.5l60.8-26.6c-1.8-6.8-8.8-15-11.2-22.1 0 0-3 22-47.2 32.8-4.6 3.9-7.8 7.8-7 13.3 0.3 2.2 2.6 3.4 4.6 2.6z"/>
				<path id="&lt;Path&gt;" class="s0" d="m1987.8 1561.5l60.8-26.6c0 0-0.3-1.5-1.4-3.9l-64 27.9c0.3 2.2 2.6 3.4 4.6 2.6z"/>
				<path id="&lt;Path&gt;" class="s9" d="m1846.5 1285.6l8.6-20.4-18.2-11.6-2.6 22.6z"/>
				<path id="&lt;Path&gt;" class="s13" d="m1933.1 999.8c-29.7-8.8-25.5 21-40.7 36.5-7 9.2-7.8 18.8-5.4 26.3 2.4 7.6-2.9 12.2-5.3 18.9-2.3 6.7-2.3 12.6 1.4 16 3.6 3.3 35.1 11.3 39.7 2.3 4.6-9 10.3-100 10.3-100z"/>
				<path id="&lt;Path&gt;" class="s14" d="m1836.4 1257.1c0 0 6.2 5.2 18.7 8.1 7.2-10.9 22-33.2 28-44.9q2-4 3.8-8c10.9-83.3 25.3-111.6 27.9-116.6-67 17.7-69.1 109.3-78.4 161.4z"/>
				<path id="&lt;Path&gt;" class="s15" d="m1836.4 1257.1c0 0 6.2 5.2 18.7 8.1 0 0 2.1-3.1 5.2-7.8-3.2-0.5-9.4-2.9-22.4-9.8q-0.7 5.1-1.5 9.5z"/>
				<path id="&lt;Path&gt;" class="s9" d="m1835.8 1561.8h66c0.9-6.5-2.8-23.6-1-31.9 0 0 27.8-98.8 11.8-119.3-7.9-10-33.7-25.9-41.6-16-16.9 20.9 3.6 135.7 3.6 135.7 0.7 22.9-36.3 9.6-42.3 26.9-0.7 2.3 1.1 4.6 3.5 4.6z"/>
				<path id="&lt;Path&gt;" class="s12" d="m1835.4 1561.8h66.4c1-6.9-2.1-17.2-1.4-24.7 0 0-11.5 18.9-56.4 11.2-5.8 1.6-10.3 4-11.8 9.4-0.6 2.1 1 4.1 3.2 4.1z"/>
				<path id="&lt;Path&gt;" class="s9" d="m1875.5 1253.6h96.5c-4.9-22.9-7.2-47-7.4-70.4-2.8-31.9 18.5-79.5-23.4-92.9-0.3-2.6-0.5-5.9-0.5-9.4q-0.1-1.2 0-2.4c0-6.7 0.6-14.1 1.5-19.4q0-0.2 0-0.3 0.2-1.2 0.5-2.2 0-0.2 0.1-0.5c1-3.7 0.2-6.9-1.6-9.3q-0.1 0-0.1-0.1c-3.5-4.5-10.5-6.2-15.7-3.7q0 0 0 0c-2.7 1.3-4.9 3.8-5.7 7.6-0.1 0.5-0.3 1.5-0.5 3q0 0.1-0.1 0.3c-0.4 3.4-1 9-1.4 15q0 0.1 0 0.2c-0.3 4.3-0.6 8.8-0.7 12.8q0 0.1 0 0.2 0 0.1 0 0.2c-0.1 2.6-0.1 5.1-0.1 7.1 0.3 11.5-17.8 12.7-21.4 25.3-14.1 44.7-20.5 92-20 138.9z"/>
				<path id="&lt;Path&gt;" class="s16" d="m1917 1082.3c4.7 1.1 15.6 2.1 23.7-1.4q-0.1-1.2 0-2.4-0.1 0-0.1-0.1c0.1-7.6 0.7-13.9 1.6-19.3q0-0.2 0-0.3 0.2-1.1 0.5-2.2 0-0.2 0.1-0.5 0-0.3 0.1-0.7c0.6-3.4-0.1-6.3-1.7-8.6q-0.1 0-0.1-0.1c-3.4-4.7-10.5-6.4-15.7-3.7q0 0 0 0c-2.4 1.2-4.3 3.4-5.4 6.6-0.3 0.9-0.6 2.3-0.8 4q0 0.1-0.1 0.3c-0.5 3.7-1 9-1.4 15q0 0.1 0 0.2c-0.3 4.1-0.5 8.4-0.7 12.8q0 0.1 0 0.2 0 0.1 0 0.2z"/>
				<path id="&lt;Path&gt;" class="s9" d="m1903.2 1070.2c8.1 8.2 20.6 10.5 30.5 8.4q0.9-0.2 1.7-0.4c21.6-5.6 27.8-39.1 19-56.6-5.4-11.9-20.5-19.1-32.6-13.1-8.4 4.4-11.5 13-15.3 22-1.1 2.4-3.3 5.4-5.4 7.5-8.2 8.2-8.2 21.1 2.1 32.2z"/>
				<path id="&lt;Path&gt;" class="s9" d="m1964.4 1050.4c-2.5 11.5-16.5 8.5-14.1-2.9 2.5-11.5 16.4-8.5 14.1 2.9z"/>
				<path id="&lt;Path&gt;" class="s17" d="m1960.7 1052.8c0.3 0 0.5-0.2 0.6-0.4 2.6-7.3-1.4-10.3-6.1-8.4-0.7 0.3-0.3 1.4 0.4 1.1 4.1-1.7 6.8 0.9 4.6 7-0.1 0.3 0.2 0.7 0.5 0.7z"/>
				<path id="&lt;Path&gt;" class="s17" d="m1955.4 1052c1-0.1 1.6-4.4 6-4.8 0.3 0 0.6-0.3 0.6-0.6-0.1-0.3-0.3-0.6-0.6-0.6-4.4 0.3-7.8 5.9-6 6z"/>
				<path id="&lt;Path&gt;" class="s17" d="m1919.6 1039.2c-0.9-1.8 1.8-3.2 2.7-1.4 0.9 1.7-1.8 3.1-2.7 1.4z"/>
				<path id="&lt;Path&gt;" class="s16" d="m1929.9 1029.4c13.4 5.6 1.8 20.4 5 31.2l8.2-29.1c-4.7-5.9-13.8-18.1-17.9-24.4-2.6 0.8-4.9 2-7 3.8 0 0-1.6 12.9 11.7 18.5z"/>
				<path id="&lt;Path&gt;" class="s17" d="m1906.8 1037c-0.9-1.7 1.8-3.1 2.7-1.4 0.9 1.8-1.8 3.2-2.7 1.4z"/>
				<path id="&lt;Path&gt;" class="s17" d="m1911.6 1050.3c0.8-0.1 2.3 0 2.1-1-0.1-0.3-0.4-0.5-0.7-0.4-2 0.7-6.7-0.6-4.4-2 3.2-1.6 7.4-10.9 4.4-8.6 0 0-2.1 6-5 7.6-3.5 2.4 0.8 4.3 3.6 4.4z"/>
				<path id="&lt;Path&gt;" class="s12" d="m1844.3 1492.3c0.7 9.5 1.3 14.6 1.3 14.6 72 33.4 197.1-9.8 197.1-9.8-66.1-102.1-18.7-159.4-49.7-246-3.2-8.6-2-34-12-30.3-28.2 10.2-121 36-121 36-21.8 112.1-18.3 201.7-15.7 235.5z"/>
				<path id="&lt;Path&gt;" class="s14" d="m1860 1256.8v0.6c61.1 7.8 91.7-22.3 121-36.6-9.8-16.5-6.5-54.8 16-54.5 9.4 1.3-49.6-72.9-49.8-73.7-13.5 8.7-14.2 16.2-27.3 15.5-8.6-0.5-5.1-12.4-5.1-12.4-14.5 7.6-21.9 18.1-27.2 33.4q-0.1 0.1-0.2 0.1c-16.2 51-23 85.9-27.4 127.6z"/>
				<path id="&lt;Path&gt;" class="s15" d="m1910.4 1138.6c18.7-0.7 39.5-44.5 37.3-47.1-0.6-0.2-1.3 0.1-1.6 0.7-0.2 0.4-19 45.4-36.4 44-15.1-2.7 1.4-31.1 5.3-39 0.4-0.5 0.2-1.3-0.4-1.6-2.6-1.7-25.7 43-4.2 43z"/>
				<path id="&lt;Path&gt;" class="s15" d="m1976.8 1209c-3.4-12.6 1.4-26.9 4.2-39.1h-15.3c0 0-0.6 29.2 13.8 47.3-1.2-3-2.2-5.8-2.7-8.2z"/>
				<path id="&lt;Path&gt;" class="s9" d="m1952.6 1131.8c24.9 12.3 35.6 44.6 35.7 73.6-0.8 21.4-19.9 38.9-34.2 53.4-11.2 58.3 170.1-79.2-3.7-165.3 0 0 1.6 38 2.2 38.3z"/>
				<path id="&lt;Path&gt;" class="s14" d="m1947.2 1092.6c3.6 12-1.3 56.2 20.5 79.5 20.5 21.3 19.5 48.9 2 70.2 0 0 15.1 20.1 15.3 20.1 90.9-47.1 50.3-153.3-37.8-169.8z"/>
				<path id="&lt;Path&gt;" class="s13" d="m1921.9 1008.5c15-20.2 55.7-15.2 62.6 12.7 1 5.7 7.8 8.9 10.2 15.1 2.5 6.2 1.3 12.4-0.6 18.8-1.9 6.4 2.8 12.1 4.1 17.1 1.3 5 2 12.9 0 17.2-2 4.4 2.2 8.1 1.3 15.1-1 7-55.7 8.6-66.4-1.4-10.7-10 4.8-19.5 5.7-26 0.9-6.6-5.1-11.3-3.8-20.1 1.4-8.8 4.3-12.6 3.8-20.7-0.4-8.1-20.8-11.3-16.9-27.8z"/>
				<path id="&lt;Path&gt;" class="s12" d="m1946.1 1243.6c0 0 4.7 19 26.8 33.1l-12.1 11.1c0 0-18.5-13.2-28.1-34.3z"/>
				<path id="&lt;Path&gt;" class="s15" d="m1860 1257.4c1.7-14.3 5.9-43.2 7.5-51.7 1.6-8.5-11-27.9 1.3-42.2 6.8-7.9 14.9-27.9 14.9-27.9 0 0-7.5 15.2-17.1 26.2-9.6 11.1-7 22.8-3.5 35.8 4.8 12.6-9.3 50.1-3.1 59.8z"/>
				<path id="&lt;Path&gt;" class="s15" d="m1968.8 1243.3c2.5 13.2 16 19.1 16.2 19.1 2.7-1.4 6.8-4 10-6.2 0 0-9.8-3.4-20.3-20.9-2.8 4.4-5.9 8-5.9 8z"/>
				<path id="&lt;Path&gt;" class="s15" d="m1972 1242.2c6.2-5.3 9.7-20.5 10-20.6 0.3-1.3-1.7-1.9-2-0.6-0.1 0.2-3.6 12.9-8.8 19.5-0.6 0.7-0.1 1.7 0.8 1.7z"/>
				<path id="&lt;Path&gt;" class="s0" d="m1835.4 1561.8h66.4c0 0 0.4-1.5 0.3-4.1h-69.9c-0.6 2.1 1 4.1 3.2 4.1z"/>
				<path id="&lt;Path&gt;" class="s10" d="m1966.9 1215.3c7 0 11-1.7 11.4-1.9 2.8-1.2 1-5.6-1.9-4.3 0 0-5.9 2.4-15.9 0.9-43-7.3-85.1-61.7-61.9-106.1 1.4-2.7-2.9-5-4.2-2.2-25.5 47.3 21.6 111.2 72.5 113.6z"/>
				<path id="&lt;Path&gt;" class="s10" d="m1971.5 1210.3c0 0-36.9-16.6-75.5-55.6-37.9 55 45 117.5 75.5 55.6z"/>
				<path id="&lt;Path&gt;" class="s1" d="m1971.5 1210.3c-43.3 17.1-74-17.7-75.5-55.6 0 0 50 27.8 75.5 55.6z"/>
				<path id="&lt;Path&gt;" class="s9" d="m1834.6 1283.8c-0.8 5.2-0.8 10.7 1.2 15.7 1 2 3.1 6.8 6 4.6 2.1-1.8-3-5.4-2.7-10.4-0.2-2.9 0.1-5.9 0.8-8.7 1-3.6-4.8-4.9-5.3-1.2z"/>
				<path id="&lt;Path&gt;" class="s1" d="m1939.7 1028c1 3.4 15.6-1.8 14.2-5-0.9-3.4-15.6 1.7-14.2 5z"/>
				<path id="&lt;Path&gt;" class="s1" d="m1944.2 1036.3c0.9 3.4 15.6-1.7 14.2-4.9-0.9-3.4-15.6 1.7-14.2 4.9z"/>
				<path id="&lt;Path&gt;" class="s18" d="m1913.5 1205.2c0 7.4 11.4 7.4 11.4 0 0-7.5-11.4-7.5-11.4 0z"/>
				<path id="&lt;Path&gt;" class="s0" d="m2010.1 1503.9c1.4 0 2.3-1.7 1.3-2.8-51.7-59.2-42-177.5-33.3-223.7-0.2-0.1-23.9-11.4-30.3-34.3-0.3-0.9-1.2-1.4-2.2-1.2-0.9 0.3-1.4 1.2-1.2 2.2 6.1 21.6 25.7 33.1 31 35.8-14.6 51.4-13 177 34.7 224z"/>
				<path id="&lt;Path&gt;" class="s0" d="m1844.3 1492.3c0.7 9.5 1.3 14.6 1.3 14.6 72 33.4 197.1-9.8 197.1-9.8q-3.8-6.3-7.2-12.4c-0.6 0.2-118 38-190.8 7.3z"/>
				<path id="&lt;Path&gt;" class="s17" d="m1926.7 1035.4c-0.2 0-0.4-0.2-0.5-0.4-1.8-3.9-5.5-6.2-5.5-6.3-0.3-0.1-0.4-0.5-0.2-0.7 0.1-0.3 0.5-0.4 0.7-0.2 0.2 0.1 4 2.6 6 6.8 0.2 0.3 0 0.6-0.2 0.7q-0.2 0.1-0.3 0.1z"/>
				<path id="&lt;Path&gt;" class="s17" d="m1908.1 1030.8q-0.2 0-0.4-0.2c-0.2-0.2-0.2-0.6 0.1-0.8 0.1-0.1 2.9-2.6 7-2.9 0.3-0.1 0.5 0.2 0.5 0.5 0.1 0.3-0.2 0.5-0.5 0.6-3.6 0.2-6.3 2.6-6.3 2.6q-0.1 0.2-0.4 0.2z"/>
				<path id="&lt;Path&gt;" class="s17" d="m1912.3 1055.7c-2.4 0-4.2-0.7-4.4-0.8-0.3-0.1-0.4-0.4-0.3-0.7 0.2-0.3 0.5-0.4 0.8-0.3 0 0 5.2 2.2 9.4-1.1 0.3-0.2 0.6-0.2 0.8 0.1 0.2 0.2 0.2 0.5-0.1 0.7-2.1 1.7-4.3 2.1-6.2 2.1z"/>
			</g>
			<g id="3">
				<path id="&lt;Path&gt;" class="s19" d="m1073.5 738.6c-2.8 13 4.9 5.6-13.7 9.2-3.9 0.8-12.2 1.6-9.2-7 2.1-9.8-4.1-35.1-3.2-45 4-44.2 40.3-23 26.1 42.8z"/>
				<path id="&lt;Path&gt;" class="s20" d="m1091.7 706.1c-0.9 7.5-1.7 12-1.7 12.5 0 0-23.6 4.8-55.1 0-0.2-41.4 0.1-118.2-30.5-143.6-7.1-4.8-25.1-17.4-38.5-25.3-33.5-16.3-83.3-28.8-97-60.5 18.1-7.4 55.9-23.1 74.2-30.6 148.5 16.2 162.7 149.8 148.6 247.5z"/>
				<path id="&lt;Path&gt;" class="s21" d="m1033.8 670.5c-4.9-68.2-12-91-67.9-120.8l-26.2-60c70.7 21.9 130.7 94.3 94.1 180.8z"/>
				<path id="&lt;Path&gt;" class="s9" d="m984.8 781.3c-5.8 11.3 2.7 13.6-12.3 9.2-10-3.7-13.2-4.6-10.2-13.6 2.2-10.7 4.2-31.2 5.6-42.1 3.3-33 48.1-14.1 16.9 46.5z"/>
				<path id="&lt;Path&gt;" class="s20" d="m1033 659.5c-6.9 39.7-18.7 70.9-28.6 102.3 0 0-38.6 2.5-58-18 8.3-30.8 22.9-90.6 7.1-135.3-6.3-16.4-22.8-42.1-72.4-56.7-61.9-18.1-52.5-74.2-52.5-74.2 21.6-41.9 37.8-7 39.4-7 10.6 0.2 22.1 2 33.8 5 98.6 29.8 154.3 92 131.2 183.9z"/>
				<path id="&lt;Path&gt;" class="s21" d="m990.4 751.7c53.4-156.9 26.3-207.5-99.6-263.1-1-0.3-0.4-2.2 0.7-1.6 123.7 53.7 158.3 110 98.9 264.7z"/>
				<path id="&lt;Path&gt;" class="s21" d="m1073.3 710.5c9.6-103.7 15.5-201.5-133-240.3-1.1-0.2-0.7-2.1 0.4-1.7 145.9 37.7 148.5 138.2 132.6 242z"/>
				<path id="&lt;Path&gt;" class="s21" d="m1008.2 750.2q-2 6.1-3.8 11.6c0 0-38.6 2.5-58-18 0 0 1.3-4.1 3-11 0 0 21.4 22.8 58.8 17.4z"/>
				<path id="&lt;Path&gt;" class="s21" d="m1091.7 706.1c-0.9 7.5-1.7 12-1.7 12.5 0 0-23.6 4.8-55.1 0 0-2.9 0-6.6 0-11v-0.1c0 0 31.2 6.6 56.8-1.4z"/>
				<g id="&lt;Group&gt;">
					<path id="&lt;Path&gt;" class="s1" d="m1049.9 756.6c0.5 2.8 2.3 5.8 5.5 5.4 0 0 59.4-6.5 59.4-6.5 3.1-0.3 4.9-3.6 3.5-6.4-3-6.2-14-16.3-44.4-12.6-4 0.4-9.1 2.3-22.6 2 0 0-3.8 7.6-1.4 18.1z"/>
					<path id="&lt;Path&gt;" class="s22" d="m1099.7 749q-0.2 0-0.4 0c-0.7-0.2-1.1-0.9-0.9-1.6 2-7 6.8-9.6 7-9.7 0.6-0.3 1.4-0.1 1.7 0.6 0.3 0.6 0.1 1.3-0.5 1.7-0.2 0.1-4.1 2.2-5.8 8.1-0.1 0.5-0.6 0.9-1.1 0.9z"/>
					<path id="&lt;Path&gt;" class="s22" d="m1089.8 748.9q-0.2 0-0.4 0c-0.7-0.1-1.1-0.8-1-1.5 1.5-7.8 7.6-11.8 7.8-12 0.6-0.4 1.4-0.2 1.8 0.3 0.4 0.6 0.2 1.4-0.4 1.8 0 0-5.4 3.7-6.7 10.4-0.1 0.5-0.5 1-1.1 1z"/>
					<path id="&lt;Path&gt;" class="s22" d="m1078.5 748.8q-0.2 0-0.4-0.1c-0.7-0.1-1.1-0.8-1-1.5 1.8-7.9 7.4-12.5 7.6-12.7 0.5-0.5 1.3-0.4 1.8 0.2 0.4 0.5 0.4 1.3-0.2 1.7 0 0.1-5.1 4.4-6.7 11.4-0.1 0.5-0.6 0.9-1.1 1z"/>
					<path id="&lt;Path&gt;" class="s10" d="m1118.3 749.1l-68.4 7.5c0.5 2 1.3 4 2.6 5.7l62.3-6.8c3-0.3 4.9-3.5 3.5-6.3q0 0 0-0.1z"/>
				</g>
				<g id="&lt;Group&gt;">
					<path id="&lt;Path&gt;" class="s1" d="m955.8 793.5c-0.5 2.8 0.3 6.2 3.5 6.8 0 0 58.5 12.2 58.5 12.2 3 0.6 5.8-1.9 5.3-5-1-6.8-6.5-19.9-38.4-25.8-4-0.7-9.3-0.5-22.1-5 0 0-5.9 6.1-6.8 16.8z"/>
					<path id="&lt;Path&gt;" class="s22" d="m1005.5 801.7q-0.3-0.1-0.5-0.2c-0.6-0.4-0.7-1.2-0.3-1.8 4-6 9.4-7 9.6-7 0.7-0.1 1.4 0.4 1.5 1 0.1 0.7-0.3 1.4-1 1.5-0.2 0-4.6 0.9-8 6-0.3 0.4-0.8 0.6-1.3 0.5z"/>
					<path id="&lt;Path&gt;" class="s22" d="m996.1 798.5q-0.2 0-0.4-0.1c-0.6-0.4-0.8-1.1-0.5-1.7 3.8-7 10.8-9 11.1-9.1 0.7-0.2 1.4 0.2 1.6 0.9 0.2 0.7-0.2 1.4-0.9 1.6 0 0-6.3 1.8-9.6 7.8-0.3 0.5-0.8 0.7-1.3 0.6z"/>
					<path id="&lt;Path&gt;" class="s22" d="m985.3 794.9q-0.2-0.1-0.3-0.2c-0.7-0.3-0.8-1.1-0.5-1.7 4.2-6.9 10.9-9.7 11.1-9.8 0.7-0.2 1.4 0.1 1.7 0.7 0.2 0.7-0.1 1.4-0.7 1.7-0.1 0-6.2 2.5-9.9 8.7-0.3 0.5-0.8 0.7-1.4 0.6z"/>
					<path id="&lt;Path&gt;" class="s10" d="m1023.1 807.5l-67.3-14c-0.2 2.1-0.1 4.2 0.6 6.2l61.4 12.8c2.9 0.6 5.7-1.9 5.3-4.9q0 0 0-0.1z"/>
				</g>
				<path id="&lt;Path&gt;" class="s9" d="m840.8 356.7c-73.6-44.5-93.4-111.5-77.6-193.3 2.4-11.5 19.7-9 18.9 2.6-0.3 64.9 29.9 114.6 94.2 137.9 0 0-1.5 68.4-35.5 52.8z"/>
				<path id="&lt;Path&gt;" class="s9" d="m781.6 135.4c-3.4 0-2.1 8-3.9 10.6-3.4-4.4-5.4-9.8-5.5-9.8q-1.9-10-2.7-20.2c-6.1-8.5-3.3 17.4-3.4 20q-0.1 0-0.1 0.1c-2.8-6.6-5.2-13.4-7-20.3-8.1-7.2 1.2 20.3 1.8 22.9q0 0 0 0c-3.7-5.7-6.6-11.9-8.8-18.3-8.8-6.7 2.8 20.5 4.3 22.9q-0.1 0-0.1 0c-3.5-4.1-6.5-8.6-9.3-13.3-9-5 4.4 17.1 5.9 19.1 0.4 1.9 5.3 12.7 9.7 17.8 2.7 3 18.1 2.7 19.6-0.9 2.7-7 2.5-14.5 2.1-16.2-1-4.1 1.1-12.6-2.6-14.4z"/>
				<path id="&lt;Path&gt;" class="s12" d="m788.6 338c13.5 15.8 27.9 36.6 48.6 43 9.1-4.3 40.8-35.6 40.7-82-41.2-13.8-86.4-39.6-95.7-123.6 0 0-12.3 4.5-21.3 1.5-11.2 46.3-13.8 112.8 27.7 161.1z"/>
				<path id="&lt;Path&gt;" class="s22" d="m759.4 184c10.3 3.6 23.3-1.5 23.7-1.7q-0.5-3.4-0.9-6.9c0 0-12.3 4.5-21.3 1.5 0 0-0.6 2.6-1.5 7.1z"/>
				<path id="&lt;Path&gt;" class="s9" d="m914.3 355.4c84-18.8 124.1-76 135.2-158.6 1.4-11.6-15.8-14.8-18.7-3.5-20.9 61-54.4 103.8-122.9 105.3 0.1 0 0.1 0 0.1 0-37.1 4.3-30.8 60.7 6.3 56.8z"/>
				<path id="&lt;Path&gt;" class="s9" d="m1042.4 164c3.2 1-0.5 8.2 0.3 11.2 4.6-3.1 8.3-7.5 8.3-7.5q5-8.9 9.1-18.3c8.4-6.1-2.5 17.6-3.2 20.1q0 0.1 0.1 0.1c4.7-5.4 9.1-11 13.1-17 9.9-4.3-7.7 18.8-9.1 21.1q0 0 0 0.1c5.3-4.3 10.1-9.3 14.3-14.6 10.4-3.5-9.3 18.6-11.4 20.3q0 0 0 0.1c4.7-2.8 9-6.1 13-9.7 10.2-1.8-9.5 14.9-11.6 16.2-1 1.7-6.9 7.5-16.1 13-3.4 2.1-18.7-1.9-18.4-5.8 0.3-3.7 3.8-14.7 4.3-16.4 0.6-3.5 3.2-12.4 7.3-12.9z"/>
				<path id="&lt;Path&gt;" class="s12" d="m900.7 297.4l47.4 70.1c0 0 23.2-11.9 43.7-34.1 37.8-41.1 54.5-101.9 56.2-126.8-12.9 1.1-19.8-6-19.8-6q-1.3 3-2.8 6.1c-26.8 56.2-74.8 92.5-124.7 90.7z"/>
				<path id="&lt;Path&gt;" class="s22" d="m1025.4 206.7c7.5 7.3 21.8 7.1 21.8 7.1 0.6-4.6 0.8-7.2 0.8-7.2-12.9 1.1-19.8-6-19.8-6q-1.3 3-2.8 6.1z"/>
				<path id="&lt;Path&gt;" class="s9" d="m900.7 297.4c0.5-12.4-2.7-30.1-4.9-37.2-4.2-14.2-26.6-7-21.8 6.9 0.7-0.5 5 25.4 3.8 32.8-20.9 8 45.1 24.5 22.9-2.5z"/>
				<path id="&lt;Path&gt;" class="s16" d="m873.7 266q0 0.2 0.1 0.5 0.1 0.3 0.2 0.6c0.5-0.4 3 13.9 3.8 24.4 10.2 3.7 21 1 23 0.4-0.4-11.1-3.1-24.6-4.4-29.7-0.3-1.2-0.6-1.9-0.6-2q-0.2-0.5-0.4-0.9c-1.3-3.2-4-5.6-7.1-6.5q0 0 0 0c-2.2-0.7-4.6-0.7-6.9 0-2.3 0.7-4.2 2.1-5.6 3.9q-0.1 0.1-0.2 0.2c-1.8 2.6-2.6 5.8-1.9 9.1z"/>
				<path id="&lt;Path&gt;" class="s13" d="m910.5 236.5c0 0-3-11.9-8.8-19.3l-6 5z"/>
				<path id="&lt;Path&gt;" class="s9" d="m919.1 271.6c-6.2 10.2-18.3 15.6-28.9 15.8-3.2 0.1-6.5-0.3-9.6-1.3q-1.5-0.5-3-1.2c-47.5-29.5-10.4-105 26.4-55.6 11.7 13.7 27.7 18.6 15.1 42.3z"/>
				<g id="&lt;Group&gt;">
					<path id="&lt;Path&gt;" class="s23" d="m909.5 259.8l-14.9-3.6c0 0 0.9 7.5 6.6 8.2 5.5 0.7 8.3-4.6 8.3-4.6z"/>
				</g>
				<path id="&lt;Path&gt;" class="s17" d="m895.1 244.2c0.2-0.8-0.3-1.7-1.1-1.9-0.9-0.2-1.7 0.4-2 1.2-0.2 0.8 0.4 1.7 1.2 1.9 0.9 0.2 1.7-0.3 1.9-1.2z"/>
				<path id="&lt;Path&gt;" class="s17" d="m907.5 239c0.2-0.8-0.3-1.7-1.1-1.9-0.9-0.2-1.7 0.3-1.9 1.2-0.2 0.8 0.3 1.7 1.1 1.9 0.9 0.2 1.7-0.3 1.9-1.2z"/>
				<path id="&lt;Path&gt;" class="s17" d="m909.7 260.4q-0.2 0.1-0.4 0l-14.9-3.6c-0.3-0.1-0.5-0.4-0.4-0.7 0.1-0.4 0.4-0.5 0.7-0.5l14.9 3.7c0.3 0 0.5 0.4 0.5 0.7-0.1 0.2-0.2 0.3-0.4 0.4z"/>
				<path id="&lt;Path&gt;" class="s17" d="m906.7 253.3c-0.9 0.3-1.8 0.4-2.7 0.4-0.3 0-0.5-0.3-0.5-0.7 0-0.3 0.3-0.5 0.6-0.5 2.1 0.1 4.7-1.5 4.8-2.5 0.1-0.3-0.4-0.5-0.8-0.6-3.7-1-7.4-6.7-7.6-7-0.2-0.3-0.1-0.6 0.2-0.8 0.3-0.2 0.6-0.1 0.8 0.2 0.1 0 3.6 5.5 6.9 6.4 1.8 0.5 1.8 1.6 1.7 2-0.2 1.2-1.7 2.4-3.4 3.1z"/>
				<path id="&lt;Path&gt;" class="s16" d="m901.3 226c-9.3-2.5-23.5 5.1-30.9 6.8 0 0 4.6 12.4-6.1 24.4 1.7 12 1 17.5 16.3 28.9q-1.5-0.5-3-1.2c-45.6-28-12.5-102.3 23.7-58.9z"/>
				<path id="&lt;Path&gt;" class="s13" d="m901.6 199.2c-7-8.3-22.4-10.1-31.9 4.5-7.3 11.2-17.5 13.6-15 23-16.9 13.1-2.6 31.7-2.6 31.7l9.3-3.4c8.7-11.3 5.3-24.2 5.3-24.2 2.4-0.4 5-1.1 7.1-2.2 6.5-3.5 16.7-6.8 25.2-5.8 8.6 1.1 10.5-14.4 2.6-23.6z"/>
				<path id="&lt;Path&gt;" class="s9" d="m852.6 266.3c2.2 4.7 7 7 10.7 5.2 3.7-1.7 5-6.9 2.8-11.5-2.2-4.7-7-7-10.7-5.2-3.7 1.7-5 6.9-2.8 11.5z"/>
				<path id="&lt;Path&gt;" class="s17" d="m860.4 257.7c-0.2-0.1-4.1-0.6-5.7 1.8q-0.6 0.9-0.6 2.1 0 0 0 0 0 0.1 0 0.3 0 0 0 0 0 0 0 0 0.1 2.3 2.1 5.7c0.1 0.2 0.4 0.3 0.7 0.2q0 0 0.1 0c0.3-0.2 0.4-0.5 0.2-0.8q-1.6-2.8-1.8-4.7c3.4-0.2 6 3.2 6 3.2 0.2 0.2 0.5 0.3 0.7 0.2q0.1 0 0.2 0c0.3-0.2 0.3-0.6 0.1-0.9-0.1-0.2-2.9-3.9-7-3.7q0-0.6 0.3-1c1.2-1.7 4.5-1.2 4.5-1.2 0.3 0 0.6-0.2 0.7-0.6 0-0.3-0.2-0.6-0.5-0.6z"/>
				<path id="&lt;Path&gt;" class="s24" d="m868 266.1l-5.6-3q-0.1-0.4-0.2-0.7c-0.7-1.4-2.3-1.9-3.6-1.2-1.4 0.6-1.9 2.2-1.2 3.6 0.6 1.2 2.1 1.8 3.4 1.2l5.7 3c0.4 0.2 0.9 0.2 1.3 0.1 0.4-0.2 0.7-0.4 0.9-0.8 0.5-0.8 0.1-1.8-0.7-2.2z"/>
				<path id="&lt;Path&gt;" class="s12" d="m977.1 464.1c0 0-54.5 29.4-149 21.5 0 0-0.3-2.5-0.7-6.8-2-18.3-7-69.8-5.2-105.4 0 0 2.5-30.2 7.9-44.9 16.2-44.7 47.8-29.5 47.8-29.5 7.4 14.9 24.9 26.8 24.9 26.8 3-15.6-1.8-27.7-2.1-28.4 24.4 5.6 46.2 23.9 56 64.2 4.6 18.9 21.2 64.6 23 88.6 0.5 6.7-0.2 11.7-2.6 13.9z"/>
				<path id="&lt;Path&gt;" class="s22" d="m909 296.8c0 0 4.8 23-3.7 36.6 0 0-25.6-8.8-35-37.3 0 0 3.5 0.1 7.6 2.9 0 0 12 16.7 23.8 24.6 0 0 2.7-9.8-1-26.2 0 0 4.3-1.8 8.3-0.6z"/>
				<path id="&lt;Path&gt;" class="s25" d="m792.4 328.5q0.3 0.4 0.7 0.8-0.4-0.5-0.7-0.8z"/>
				<path id="&lt;Path&gt;" class="s17" d="m886 242.6c0.2 0 0.5-0.2 0.6-0.4 2-4.6 6.3-5.9 6.4-5.9 0.4-0.1 0.6-0.5 0.5-0.9-0.1-0.4-0.5-0.6-0.9-0.5-0.2 0-5 1.4-7.4 6.6-0.1 0.4 0 0.9 0.4 1q0.2 0.1 0.4 0.1z"/>
				<path id="&lt;Path&gt;" class="s17" d="m897.4 233.7q0.2 0 0.4-0.2c3.8-2.7 6.6-1.2 6.6-1.2 0.4 0.2 0.8 0 1-0.3 0.2-0.4 0.1-0.9-0.3-1.1-0.1 0-3.6-1.8-8.1 1.4-0.4 0.2-0.5 0.7-0.2 1.1 0.1 0.2 0.4 0.3 0.6 0.3z"/>
				<path id="&lt;Path&gt;" class="s22" d="m977.1 464.1c0 0-54.5 29.4-149 21.5 0 0-0.3-2.5-0.7-6.8l1.2-1.2c0 0 109.3 4.6 151.1-27.4 0.5 6.7-0.2 11.7-2.6 13.9z"/>
			</g>
			<g id="2">
				<path id="&lt;Path&gt;" class="s2" d="m1213 1801.4h-236.1v-83.7h236.1z"/>
				<path id="&lt;Path&gt;" class="s1" d="m1125.8 1717.7h-141.4v-111.4h141.4z"/>
				<path id="&lt;Path&gt;" class="s11" d="m1201.7 1717.7h-92.8v-160.7h92.8z"/>
				<path id="&lt;Path&gt;" class="s26" d="m1432.2 1297.5c0 0 19.7-27.8 58.5 3.5 38.9 31.4 18.5 34.8 73 44.8 45.3 8.4 66.1 54.1 12.1 77.7-51.7 22.5-93.4-14.8-125.2-7.1-31.9 7.7-47.7-60.7-40.4-79.9 7.3-19.2 22-39 22-39z"/>
				<path id="&lt;Path&gt;" class="s9" d="m1429.1 1439.3c-34.6-5-69.3-18.5-94.1-44-26.5-29.7-44.9-68-47.4-108-0.4-5.2 5.8-8.9 10.2-6 0.1 0.2 6.1 3.5 6 3.9q2 5.3 4.3 10.4c20.2 43.7 55.2 84.5 104.7 93.3 7.3 1.7 14.7 3 22.1 3.9 30.3 4.4 24.7 49.7-5.8 46.5z"/>
				<path id="&lt;Path&gt;" class="s12" d="m1434.5 1392l-9 22.4-11 27.6q-2.2-0.1-4.4-0.4-3.5-0.3-6.9-1c-27-5-55.3-22-60.7-27.9-2.4-2.5-3.6-5.3-4.2-7.7q0 0 0 0c-1-4.1-0.4-7.4-0.4-7.4 21.9-4.5 27.1-29 27.1-29 2.9-1.3 5.7-0.4 9.1 1.3 6.3 3.3 14.1 10.1 25.9 12.1 12.8 2.2 24.8 6.3 30.7 8.5 2.1 0.8 3.4 1.3 3.7 1.4q0.1 0.1 0.1 0.1z"/>
				<path id="&lt;Path&gt;" class="s9" d="m1653.3 1729.9c0 0-18.2-2.7-33-6.9l-5.4 32.4 34.6-1.7c0 0 11-8.8 3.8-23.8z"/>
				<path id="&lt;Path&gt;" class="s9" d="m1464.1 1863l-2.9-21.2-28.5 0.2c0 0 3.8 9.3 7.3 21.3 0 0 12.3 10.4 24.1-0.3z"/>
				<path id="&lt;Path&gt;" class="s26" d="m1432.2 1297.5c-32.7-3.9-23 47.2-18.2 56.8z"/>
				<g id="&lt;Group&gt;">
					<path id="&lt;Path&gt;" class="s12" d="m1670.2 1729.6c1.8 0.5 3.6 1.4 5.1 2.6l-9.3 57.3c-0.4 2.8-3.5 4.4-6 3q0 0 0 0c-5.7-3.1-13.5-12.2-10.5-38.8 0 0 4.1-8.6 3.8-23.8 0 0 9.2-2.5 16.9-0.3z"/>
					<path id="&lt;Path&gt;" class="s27" d="m1660 1792.5l10.2-62.9c1.8 0.5 3.6 1.4 5.1 2.6l-9.3 57.3c-0.4 2.8-3.5 4.4-6 3z"/>
				</g>
				<g id="&lt;Group&gt;">
					<path id="&lt;Path&gt;" class="s22" d="m1651 1781.8c0.4 0 0.8-0.2 1.1-0.6 0-0.2 2.3-3.7 7.8-4.9 0.6-0.2 1-0.8 0.8-1.4-0.1-0.7-0.7-1.1-1.4-0.9-6.5 1.5-9.2 5.8-9.3 6-0.3 0.6-0.1 1.3 0.4 1.6q0.3 0.2 0.6 0.2z"/>
					<path id="&lt;Path&gt;" class="s22" d="m1649.2 1773.3c1.9-0.4 3.4-5 10.9-6.2 1.5-0.2 1.2-2.6-0.3-2.3-7.2 1-11.3 6.4-11.5 6.6-0.6 0.7 0 1.9 0.9 1.9z"/>
					<path id="&lt;Path&gt;" class="s22" d="m1648.9 1762.6c0.3 0 0.6-0.1 0.9-0.3 0-0.1 4.2-4.5 10.8-5.7 0.6-0.1 1.1-0.7 0.9-1.4-0.1-0.6-0.7-1-1.3-0.9-7.4 1.3-12 6.2-12.2 6.4-0.4 0.4-0.4 1.2 0.1 1.6q0.4 0.3 0.8 0.3z"/>
				</g>
				<g id="&lt;Group&gt;">
					<path id="&lt;Path&gt;" class="s12" d="m1467.3 1879.5c-0.2 2-0.7 3.9-1.7 5.6l-58 0.6c-2.9 0-4.9-2.7-4-5.4q0 0 0-0.1c2.1-6.1 9.7-15.3 36.4-16.9 0 0 9.1 2.6 24.1-0.3 0 0 4.1 8.6 3.2 16.5z"/>
					<path id="&lt;Path&gt;" class="s22" d="m1420.6 1878.1c0.8 0 1.5-0.9 1.1-1.7-2.7-7.3-11.4-10.6-8.4-5.9 0.2 0.1 4.1 1.6 6.2 6.9 0.2 0.4 0.7 0.7 1.1 0.7z"/>
					<path id="&lt;Path&gt;" class="s22" d="m1429.8 1876.9c0.7 0 1.3-0.8 1.1-1.6-2.3-7.8-12.1-13.5-9.6-8.1 0.1 0.1 5.4 2.8 7.3 8.9 0.2 0.5 0.7 0.8 1.2 0.8z"/>
					<path id="&lt;Path&gt;" class="s22" d="m1440.1 1875.5c5.5-1.3-11.5-18.8-8.5-10.5 0.1 0 5.2 3.4 7.4 9.7 0.2 0.5 0.7 0.8 1.1 0.8z"/>
					<path id="&lt;Path&gt;" class="s27" d="m1403.6 1880.2l63.7-0.7c-0.2 2-0.7 3.9-1.7 5.6l-58 0.6c-2.9 0-4.9-2.7-4-5.4z"/>
				</g>
				<path id="&lt;Path&gt;" class="s14" d="m1640.4 1719.7c0 0-1.5 54.5-18.9 73.3-65.2-10.1-118.5-31.7-151.3-66.8-46.3-48.4-53.1-120.6-53.1-185.5 10.5-61.5 103.1-45.4 93.3 14.9v-0.1c-30.4 87 37.7 146.3 130 164.2z"/>
				<path id="&lt;Path&gt;" class="s15" d="m1467.3 1531.1l-45.5 73.8-1.5-0.8q-1.1-9.1-1.8-18.7-0.4-6.3-0.7-12.8-0.6-13.9-0.7-28.6l15.6-4.4z"/>
				<path id="&lt;Path&gt;" class="s15" d="m1632 1736.1c-6.1 0-30.8-2.2-83.9-31.6-61.7-34.1-63-77.5-63-79.3l5.5-0.1c0 0.4 1.5 42.2 60.1 74.6 59 32.7 82.1 30.9 82.3 30.8l0.6 5.5c-0.1 0-0.6 0.1-1.6 0.1z"/>
				<path id="&lt;Path&gt;" class="s15" d="m1628.3 1761.2c-0.3-0.1-37.5-7.9-91.1-33.9-54.3-26.4-71.8-74.5-72.5-76.5l5.2-1.9q0 0 0 0c0.2 0.6 17.6 48.2 69.7 73.5 53 25.7 89.5 33.3 89.8 33.4z"/>
				<path id="&lt;Path&gt;" class="s15" d="m1621.6 1780.6c-55-10.3-97.5-32-123.4-48.4-28.2-17.7-43.2-32.8-43.8-33.5l3.9-3.8c0.6 0.6 60.9 60.9 164.3 80.3z"/>
				<path id="&lt;Path&gt;" class="s15" d="m1477.4 1733.3c-22.8-21.2-37.6-47.2-46.9-77.6l10.7-59 62.4-4c-0.6 12.8 1.1 24.6 4.6 35.6 0 0-32.2 28-30.8 105z"/>
				<path id="&lt;Path&gt;" class="s28" d="m1425.5 1414.4l-11 27.6q-2.2-0.1-4.4-0.4-3.5-0.3-6.9-1c8.6-20.8 21.6-35.6 21.6-35.6z"/>
				<path id="&lt;Path&gt;" class="s14" d="m1521.9 1595.9c-74.6 76.4-51.7 152.4-29.3 242.7 0 0-51.2 17.8-79.9 6.2-37.1-148.8-43-181.9 38.1-319.3 47.1-57.6 117.9 2.8 71.1 70.4z"/>
				<path id="&lt;Path&gt;" class="s15" d="m1474.3 1832.2c-17.9-52.1-24.9-95.6-21.5-132.9 2.9-32.3 13.7-61.3 33.9-91.4 27-40.3 20.1-72.4 20-72.8l5.4-1.2c0.3 1.4 7.6 34.6-20.9 77-29.9 44.6-52 102-11.7 219.5z"/>
				<path id="&lt;Path&gt;" class="s15" d="m1448.4 1839.9c-15.1-58.9-21.3-97.8-21-130.1 0.3-30.6 6.5-55.8 21.2-87 22.2-47.2 31.1-88.4 31.2-88.9l5.4 1.2c-0.1 0.4-9.1 42.3-31.7 90.1-24.8 52.7-30.3 94 0.2 213.3z"/>
				<path id="&lt;Path&gt;" class="s15" d="m1430.1 1842.9c-1.5-4.5-37.1-110.2-23.6-172.3 15.6-72.2 52.8-131.8 53.2-132.4l4.6 2.9c-0.3 0.6-37 59.4-52.5 130.7-13.1 60.6 23.2 168.3 23.5 169.3z"/>
				<path id="&lt;Path&gt;" class="s12" d="m1535.7 1538.2c0 0-41.9 21.5-118.6 6.1 0 0 0-12.2 3.8-38.4 2.9-27.7-20.2-44.3-13.4-66.2 4-13 23-46.3 26.9-47.8 24.9-10.2 64.2-4.8 75.7 27.6 13.4 21.6 28.3 119.6 25.6 118.7z"/>
				<path id="&lt;Path&gt;" class="s28" d="m1463 1392.6c-1 1-1.8 1.9-0.9 3.4 1.5 2.7 0.1 9.6-3.7 11-0.9 0.3-1.8 0.3-3-0.1-6-2-6.1 0.6-10.7 5.5-4.6 4.8-9.3 2.2-11.1-1.9-1.8-4.1-5.7-1.5-6.8-6.4-0.3-1.2-0.2-2.3 0-3.4 0.6-2.8 2.4-5 2.9-5.6q0 0 0 0 0.1-0.1 0.1-0.1 0-0.1 0-0.1l0.9-4.4c2.1 0.8 3.4 1.3 3.7 1.4 9.2-5.2 20.2-6.1 30.7-4.5q0 0 0 0c0.5 2.8-0.9 4.1-2.1 5.2z"/>
				<path id="&lt;Path&gt;" class="s9" d="m1433.4 1384.6l1.1 7.4c0 0-5 12.1 5.9 11.2 15.4-1.3 18.4-16 18.4-16 0 0-1.6-4.6-1.9-8z"/>
				<path id="&lt;Path&gt;" class="s16" d="m1456.4 1369.6c0 0.2-0.8-1.3 0.5 9.6-9.7 5.8-21.3 5.5-23.5 5.4-1.8-11.5-0.3-7.6-1-10.8 0.2-1.3 24-7.6 24-4.2z"/>
				<path id="&lt;Path&gt;" class="s9" d="m1415.1 1372.2c9.6 7.7 23.1 8.6 33.4 5.1 4.3-1.4 8.2-3.7 11.3-6.9 12.4-14.4 13.5-40.6 3.3-56-14.7-22.6-44.7-15.1-48.4 11.7-0.9 4.1-3 8.7-5.9 12.3-7.6 9.8-6 23.4 6.3 33.8z"/>
				<g id="&lt;Group&gt;">
					<path id="&lt;Path&gt;" class="s23" d="m1420.2 1357.5l13.1-8.8c0 0 1.8 7.5-3.5 10.2-5 2.6-9.6-1.4-9.6-1.4z"/>
				</g>
				<path id="&lt;Path&gt;" class="s16" d="m1464.5 1350.2c0 0 0.5 10.4-6.9 22.2q1.1-0.9 2.2-2c12.3-14.4 13.5-40.6 3.3-56-7.8-13.3-27-18.9-39.7-6.4 0 0-3.6 22.8 38.7 34.9z"/>
				<path id="&lt;Path&gt;" class="s17" d="m1428.6 1337.3c-0.5-0.7-0.3-1.7 0.4-2.2 0.8-0.5 1.8-0.3 2.3 0.4 0.5 0.8 0.3 1.8-0.5 2.3-0.7 0.5-1.7 0.3-2.2-0.5z"/>
				<path id="&lt;Path&gt;" class="s26" d="m1427.1 1304.6c0 0-2.4 23.7 35.8 34.5l9.7 3.8c0 0 5.2-16.6-4-33.6-9.1-16.9-38.8-19.1-41.5-4.7z"/>
				<path id="&lt;Path&gt;" class="s17" d="m1414.7 1336.7c-0.5-0.8-0.3-1.8 0.5-2.3 0.7-0.5 1.7-0.3 2.2 0.5 0.5 0.7 0.3 1.7-0.4 2.2-0.8 0.5-1.8 0.3-2.3-0.4z"/>
				<path id="&lt;Path&gt;" class="s17" d="m1420.2 1358.1q0.2 0 0.4-0.1l13.1-8.8c0.3-0.2 0.3-0.6 0.1-0.8-0.1-0.3-0.5-0.4-0.8-0.2l-13.1 8.8c-0.3 0.2-0.4 0.6-0.2 0.8 0.1 0.2 0.3 0.3 0.5 0.3z"/>
				<path id="&lt;Path&gt;" class="s17" d="m1420.6 1350.1c1 0 1.9-0.1 2.7-0.5 0.3-0.1 0.4-0.5 0.3-0.8-0.1-0.3-0.5-0.4-0.8-0.3-2 0.9-5 0.2-5.5-0.7-0.2-0.3 0.2-0.6 0.6-0.9 3.2-2.3 4.8-9.1 4.8-9.4 0.1-0.3-0.1-0.7-0.4-0.7-0.4-0.1-0.7 0.1-0.8 0.4 0 0.1-1.5 6.7-4.3 8.7-1.6 1.1-1.2 2.1-1 2.5 0.6 1.1 2.5 1.7 4.4 1.7z"/>
				<path id="&lt;Path&gt;" class="s9" d="m1477.4 1343.6c-0.5 5.3-4.3 9.2-8.5 8.8-4.2-0.3-7.3-4.9-6.8-10.1 0.5-5.3 4.3-9.2 8.5-8.8 4.2 0.3 7.2 4.9 6.8 10.1z"/>
				<path id="&lt;Path&gt;" class="s17" d="m1466.8 1338c13.1-6.5 5.9 19.6 6.5 2.7-3.5 1-4.7 5.2-4.8 5.3-2.7 2 0-5.3 4.4-6.5-1.4-3.4-7.7 1.6-6.1-1.5z"/>
				<path id="&lt;Path&gt;" class="s18" d="m1471.4 1350c0.1 0.8-0.5 1.5-1.2 1.5-0.8 0.1-1.5-0.4-1.6-1.2-0.1-0.7 0.5-1.4 1.2-1.5 0.8-0.1 1.5 0.5 1.6 1.2z"/>
				<path id="&lt;Path&gt;" class="s9" d="m1299.7 1257.3c-3.4 0.3-1.2 8.2-2.7 10.9-3.8-3.9-6.5-9-6.5-9.1q-3-9.7-5.1-19.7c-6.9-7.7-1.2 17.7-1 20.3q-0.1 0-0.1 0c-3.5-6.2-6.7-12.6-9.3-19.2-8.9-6.3 3.6 19.9 4.5 22.4q0 0.1-0.1 0.1c-4.2-5.3-7.9-11.1-10.9-17.2-9.5-5.6 5.2 20.1 7 22.2q-0.1 0-0.1 0.1c-4-3.7-7.5-7.8-10.7-12.2-9.6-3.9 6.3 16.5 8 18.3 0.6 1.9 8.1 11.4 16 18.8 2.9 2.7 15.7-0.8 16.3-4.7 0.5-3.6-0.7-15.1-0.9-16.9 0.2-3.5-0.5-12.7-4.4-14.1z"/>
				<path id="&lt;Path&gt;" class="s9" d="m1505.4 1413.2c6.2 37.5-2.2 79.5-29.9 107.1-34.3 33.9-87.3 30.8-130.3 19.9-11.5-4.4-5.8-18.6 5.9-16.3 69.8 0.9 121.2-22.8 108.2-101-6.2-30.2 39.6-39.8 46.1-9.7z"/>
				<path id="&lt;Path&gt;" class="s12" d="m1482.2 1521.2c-2.6 0.8-5.3 1.1-8.1 0.9 0 0-4.2-23.3-30.7-25.7 0 0-2.1-2.4-0.9-7.3 0.5-2.2 1.7-5 4.2-8.3 7.7-10.4 6.8-42.9 10.2-61 1.9-10.1 3.3-11.8 6.4-19.4 0 0 4.5-8.4 1.8-13 7.4-1.1 38.4-3.6 44.4 28.6q0.4 1.7 0.6 3.5c5.2 34.1-2.3 93.7-27.9 101.7z"/>
				<path id="&lt;Path&gt;" class="s9" d="m1348.7 1523.9c0 0-23.3-6.1-35.8 10 0 0 21.2 4.3 31.4 5.7z"/>
				<path id="&lt;Path&gt;" class="s15" d="m1492.6 1838.6c0 0-51.2 17.8-79.9 6.2 0 0-1.2-5.1-3.1-13.5 0 0 32.6 10.6 79.6-8.2q1.7 7.6 3.4 15.5z"/>
				<path id="&lt;Path&gt;" class="s15" d="m1640.4 1719.7c0 0-1.5 54.5-18.9 73.3q-6.5-1-12.8-2.2c0.5-0.7 20.9-28.8 17.7-74.5q6.9 1.8 14 3.4z"/>
				<path id="&lt;Path&gt;" class="s28" d="m1482.2 1521.2c-2.6 0.8-5.3 1.1-8.1 0.9 0 0-4.2-23.3-30.7-25.7 0 0-2.1-2.4-0.9-7.3 0 0 6.3-8.9 12.2-1.6 5.9 7.3 6.5 7 15 7.8 8.6 0.9 8.1 9.9 7.2 16.3-0.6 4.5 3.5 6.1 5.3 9.6z"/>
				<path id="&lt;Path&gt;" class="s28" d="m1370.4 1375.4c-3.4 5.6 2.2 7.3-2.5 12.6-4.8 5.4-10.1 0.9-15.2 11.5-4.9 10.6-14.1 5.6-14.4 5.5q0 0 0 0c-1-4.1-0.4-7.4-0.4-7.4 21.9-4.5 27.1-29 27.1-29 2.9-1.3 5.7-0.4 9.1 1.3-1.2 1.6-2.5 3.5-3.7 5.5z"/>
				<path id="&lt;Path&gt;" class="s28" d="m1443.2 1492.5q-0.1 0-0.1 0c-0.6 0-1.1-0.5-1-1.1 0-0.2 0.2-5.1 4.6-12.6 3.5-6.1 4.9-20.1 6.3-33.7q0.3-3.3 0.6-6.5c1.6-15.1 3.3-23.4 3.3-23.5 0.1-0.6 0.7-0.9 1.3-0.8 0.6 0.1 1 0.7 0.8 1.3 0 0.1-1.6 8.2-3.2 23.3q-0.3 3.1-0.7 6.4c-1.3 13.8-2.7 28.1-6.5 34.6-4.1 7-4.3 11.5-4.3 11.6-0.1 0.5-0.5 1-1.1 1z"/>
				<path id="&lt;Path&gt;" class="s28" d="m1479.6 1521.7c-0.6 0-1-0.4-1.1-1 0-0.6 0.5-1.1 1.1-1.2 0.1 0 6.1-0.4 12.6-6.4 5.9-5.5 17.8-31.4 18.4-66.4 0-0.6 0.5-1.1 1.1-1.1q0 0 0 0c0.6 0.1 1.1 0.6 1.1 1.2-0.6 32.9-11.7 61-19.1 67.9-7.1 6.6-13.7 7-14 7q-0.1 0-0.1 0z"/>
				<path id="&lt;Path&gt;" class="s17" d="m1435.5 1332.2q-0.1 0-0.2 0c-5.4-1.7-9-5.7-9.1-5.9-0.3-0.3-0.3-0.9 0-1.2 0.4-0.3 0.9-0.2 1.2 0.1 0 0 3.4 3.8 8.4 5.4 0.4 0.2 0.7 0.6 0.5 1.1-0.1 0.3-0.4 0.5-0.8 0.5z"/>
				<path id="&lt;Path&gt;" class="s17" d="m1414.5 1329.4c-0.4 0-0.8-0.3-0.8-0.7-0.1-0.4 0.2-0.8 0.6-0.9 0 0 3.2-0.7 5.7-3.3 0.3-0.3 0.8-0.3 1.1 0 0.4 0.3 0.4 0.8 0.1 1.2-2.8 2.9-6.4 3.7-6.6 3.7q0 0-0.1 0z"/>
				<path id="&lt;Path&gt;" class="s1" d="m1164.6 1717.7h-18.7v-160.7h18.7z"/>
				<path id="&lt;Path&gt;" class="s22" d="m1036.1 1717.7h-18.7v-111.4h18.7z"/>
				<path id="&lt;Path&gt;" class="s22" d="m1086.3 1717.7h-18.7v-111.4h18.7z"/>
				<path id="&lt;Path&gt;" class="s26" d="m1213 1768.9h-236.1v-18.7h236.1z"/>
				<g id="&lt;Group&gt;">
					<path id="&lt;Compound Path&gt;" fill-rule="evenodd" class="s20" d="m1225.2 1816.4h-261.5l-32.5-183.1h326.5zm-249.1-14.9h236.6l27.2-153.2h-290.9z"/>
					<path id="&lt;Path&gt;" class="s20" d="m1226.3 1810.2l-14.7-2.6 42.2-237.7c3.8-21.8 22.8-37.7 45-37.7h0.6l42 3.2-1.2 14.9-41.7-3.2c-14.8 0.1-27.5 10.8-30.1 25.4z"/>
					<path id="&lt;Path&gt;" class="s20" d="m1198.5 1849.3h-198.5v-15h185.8l4.5-26.6 14.7 2.4z"/>
					<path id="&lt;Path&gt;" class="s21" d="m1034.4 1855.5c0 13.4-10.8 24.2-24.2 24.2-13.4 0-24.2-10.8-24.2-24.2 0-13.4 10.8-24.2 24.2-24.2 13.4 0 24.2 10.8 24.2 24.2z"/>
					<path id="&lt;Path&gt;" class="s21" d="m1205.4 1855.5c0 13.4-10.8 24.2-24.2 24.2-13.4 0-24.2-10.8-24.2-24.2 0-13.4 10.8-24.2 24.2-24.2 13.4 0 24.2 10.8 24.2 24.2z"/>
					<path id="&lt;Path&gt;" class="s20" d="m1239.7 1701.3h-290.5v-9h290.5z"/>
					<path id="&lt;Path&gt;" class="s20" d="m1228.3 1757.3h-267.6v-8.9h267.6z"/>
					<path id="&lt;Path&gt;" class="s20" d="m1098.9 1808.9h-8.9v-168.1h8.9z"/>
					<path id="&lt;Path&gt;" class="s20" d="m1028.7 1809.2l-12.8-168.1 8.9-0.7 12.8 168.2z"/>
					<path id="&lt;Path&gt;" class="s20" d="m1161.4 1809.3l-8.9-0.8 15.1-168.1 8.9 0.8z"/>
				</g>
				<path id="&lt;Path&gt;" class="s1" d="m1148.8 1534.4c7.2 11.2 8.6 23.2 3.1 26.7-5.6 3.6-15.9-2.6-23.1-13.9-7.2-11.2-8.6-23.2-3-26.7 5.5-3.6 15.8 2.7 23 13.9z"/>
				<path id="&lt;Path&gt;" class="s1" d="m1160.4 1534.4c-7.2 11.2-8.6 23.2-3.1 26.7 5.6 3.6 15.9-2.6 23.1-13.9 7.2-11.2 8.6-23.2 3-26.7-5.5-3.6-15.8 2.7-23 13.9z"/>
				<path id="&lt;Path&gt;" class="s22" d="m1021 1585.7c7.2 11.2 8.6 23.2 3 26.7-5.5 3.6-15.8-2.6-23-13.8-7.2-11.3-8.6-23.2-3.1-26.8 5.6-3.5 15.9 2.7 23.1 13.9z"/>
				<path id="&lt;Path&gt;" class="s22" d="m1032.5 1585.7c-7.2 11.2-8.5 23.2-3 26.7 5.5 3.6 15.9-2.6 23.1-13.8 7.2-11.3 8.5-23.2 3-26.8-5.5-3.5-15.9 2.7-23.1 13.9z"/>
				<path id="&lt;Path&gt;" class="s16" d="m1316.5 1531.6q-0.2 0-0.4-0.2c-0.2-0.2-0.1-0.5 0.1-0.7 0.3-0.3 7.8-6.7 19.7-5.4 0.3 0 0.5 0.2 0.5 0.5 0 0.3-0.3 0.5-0.6 0.5-11.5-1.3-18.9 5.1-19 5.1q-0.1 0.2-0.3 0.2z"/>
				<path id="&lt;Path&gt;" class="s16" d="m1319.2 1534.1c-0.2 0-0.4-0.1-0.4-0.3-0.2-0.3 0-0.6 0.2-0.7 0.4-0.1 9.9-4.1 15.8-2.5 0.3 0.1 0.5 0.3 0.4 0.6-0.1 0.3-0.4 0.4-0.6 0.3-5.6-1.4-15.1 2.5-15.2 2.6q-0.1 0-0.2 0z"/>
			</g>
			<g id="1">
				<g id="&lt;Group&gt;">
					<path id="&lt;Compound Path&gt;" fill-rule="evenodd" class="s0" d="m631.8 1448.7c-12.9 0-26.2-8.8-33-23.3-9-18.8-3.6-40.2 11.9-47.5 15.6-7.4 35.5 1.9 44.5 20.7 8.9 18.9 3.5 40.2-12 47.6-3.7 1.7-7.5 2.5-11.4 2.5zm-9.6-68.9c-3.3 0-6.5 0.6-9.6 2.1-13.3 6.3-17.7 25-9.8 41.6 7.9 16.6 25.1 25 38.5 18.7 13.3-6.4 17.7-25 9.8-41.7-6.1-12.8-17.8-20.7-28.9-20.7z"/>
					<path id="&lt;Path&gt;" class="s2" d="m738.3 1491.2l-120.4 57.1-35.8-115.2 89.5-42.5z"/>
				</g>
				<g id="&lt;Group&gt;">
					<path id="&lt;Compound Path&gt;" fill-rule="evenodd" class="s0" d="m612 1452.5q-1.2 0-2.3-0.1c-17.2-1.5-29.7-19.6-27.8-40.4 0.9-9.9 4.9-19.1 11.3-25.6 6.5-6.7 14.7-10 23.1-9.3 17.1 1.5 29.6 19.6 27.8 40.4-0.9 10-4.9 19.1-11.3 25.7-5.9 6.1-13.3 9.3-20.8 9.3zm2-71.1c-6.4 0-12.6 2.8-17.7 8-5.6 5.9-9.2 14.1-10 23-1.6 18.4 9 34.3 23.7 35.6 7.1 0.6 14-2.2 19.6-7.9 5.7-5.9 9.3-14 10-23 1.7-18.3-9-34.3-23.7-35.6q-1-0.1-1.9-0.1z"/>
					<path id="&lt;Path&gt;" class="s14" d="m668.8 1539.4l-132.6-11.7 27.5-117.5 98.6 8.7z"/>
				</g>
				<g id="&lt;Group&gt;">
					<path id="&lt;Compound Path&gt;" fill-rule="evenodd" class="s0" d="m592.2 1444.9c-5.3 0-10.4-1.4-14.9-4.4-14.3-9.4-16.8-31.3-5.3-48.7 11.4-17.4 32.4-23.9 46.8-14.5 14.4 9.4 16.8 31.3 5.4 48.7-7.9 12-20.3 18.9-32 18.9zm11.7-67.5c-10.2 0-21.2 6.1-28.2 16.8-10.1 15.4-8.3 34.5 4.1 42.6 12.3 8.1 30.6 2.2 40.7-13.2 10.1-15.4 8.2-34.5-4.1-42.6-3.8-2.5-8.1-3.6-12.5-3.6z"/>
					<path id="&lt;Path&gt;" class="s1" d="m588.4 1545.2l-111.4-73.1 79.8-90.5 82.8 54.3z"/>
				</g>
				<g id="&lt;Group&gt;">
					<g id="&lt;Group&gt;">
						<path id="&lt;Path&gt;" class="s9" d="m769.3 1704.6l-59.3-2.1c-0.9-3.2 2.5-17.3 2.1-22.6 0.4-3.2-2.8-45.4-3-49.8l33.8 1.2-7 43.2c-0.9 5.2 2.1 10.2 7 12 10.8 4.6 24.3 2.7 30.2 12.6 1.2 2.6-0.9 5.6-3.8 5.5z"/>
						<path id="&lt;Path&gt;" class="s1" d="m708.4 1696.7c0.2 2 0.7 4 1.6 5.8l59.3 2.1c2.9 0.1 5.1-2.7 4.2-5.4-2-6.5-9.5-16-36.8-18.4 0 0-9.4 2.5-24.6-0.9 0 0-4.4 8.8-3.7 16.8z"/>
						<path id="&lt;Path&gt;" class="s22" d="m756.2 1696.4c0.4 0 0.9-0.2 1.1-0.7 2.3-5.3 6.3-6.8 6.5-6.8 3.2-4.7-5.8-1.6-8.7 5.8-0.4 0.8 0.2 1.8 1.1 1.7z"/>
						<path id="&lt;Path&gt;" class="s22" d="m746.9 1695c0.5 0 0.9-0.3 1.1-0.8 2.2-6.2 7.7-8.8 7.7-8.9 3-5.5-7.6 0.2-10 8.1-0.2 0.7 0.4 1.6 1.2 1.6z"/>
						<path id="&lt;Path&gt;" class="s22" d="m736.3 1693.3c0.5 0 0.9-0.3 1.1-0.8 2.5-6.3 7.8-9.7 7.9-9.7 1.3-0.8 0-2.9-1.3-2-0.2 0.1-6 3.7-8.8 10.9-0.3 0.7 0.3 1.6 1.1 1.6z"/>
						<path id="&lt;Path&gt;" class="s10" d="m773.5 1699.1l-65.1-2.4c0.2 2 0.7 4 1.6 5.8l59.3 2.1c2.9 0.1 5.1-2.8 4.2-5.5z"/>
					</g>
					<g id="&lt;Group&gt;">
						<path id="&lt;Path&gt;" class="s9" d="m856.8 1706.5l-58.4-1.3c1.5-13.7 2.8-60.1 2.7-73.6l29.1 2-6.4 43.3c-0.7 5.2 2.3 10.1 7.2 11.8 10.6 4.3 22.4 2.8 29.5 10.7 2.1 3-0.1 7.2-3.7 7.1z"/>
						<path id="&lt;Path&gt;" class="s1" d="m796.7 1699.5c0.2 2 0.7 3.9 1.7 5.7l59.3 1.3c2.9 0.1 5-2.7 4.1-5.5-2.1-6.4-9.7-15.8-37-17.8 0 0-9.4 2.5-24.6-0.6 0 0-4.3 8.8-3.5 16.9z"/>
						<path id="&lt;Path&gt;" class="s22" d="m844.4 1698.5c0.5 0 0.9-0.2 1.1-0.7 2.3-5.3 6.3-6.9 6.4-6.9 3.2-4.8-5.8-1.5-8.6 6-0.3 0.7 0.3 1.7 1.1 1.6z"/>
						<path id="&lt;Path&gt;" class="s22" d="m835.1 1697.2c0.5 0 1-0.3 1.1-0.8 2.1-6.1 7.6-8.9 7.6-9 2.9-5.5-7.6 0.3-9.8 8.2-0.3 0.8 0.3 1.6 1.1 1.6z"/>
						<path id="&lt;Path&gt;" class="s22" d="m824.5 1695.7c0.5 0 0.9-0.3 1.1-0.8 2.4-6.4 7.7-9.8 7.7-9.8 2.3-5.9-7.3 1-9.9 8.9-0.3 0.8 0.3 1.7 1.1 1.7z"/>
						<path id="&lt;Path&gt;" class="s10" d="m861.8 1700.9l-65.1-1.4c0.2 2 0.7 3.9 1.7 5.7l59.3 1.3c2.9 0.1 5.1-2.8 4.1-5.6z"/>
					</g>
					<path id="&lt;Path&gt;" class="s1" d="m703.1 1661.8c0 0 29.2 12.4 56.7 5.2 11.7-37.6 17.1-202.6 22.7-230.9 0.1-4.6 9.3 127.2 0.4 231.2 0 0 34.5 9.7 56.3 0 9.9-45.8 32.9-159.6 8.8-305.2-16.8-6.6-109.7-17.4-131.4-7.4 0 0-15.8 37.2-11.1 88.9 7.9 94.8 1.5 174.6-2.4 218.2z"/>
					<path id="&lt;Path&gt;" class="s22" d="m709.5 1378.7c-15.1-7.5 28.9-163.6 88.7-158.6 30.2 2.6 42.1 33.4 45.6 68.2 2.3 22.2 18.4 88 7.6 95.3 0 0-98.6 16.8-141.9-4.9z"/>
					<path id="&lt;Path&gt;" class="s10" d="m782.9 1667.3c0 0 34.5 9.7 56.3 0 0 0 0.8-3.2 2.1-9.2-0.5 0.1-26.4 7.2-57.6-1.9q-0.4 5.6-0.8 11.1z"/>
					<path id="&lt;Path&gt;" class="s10" d="m703.1 1661.8c0 0 29.2 12.4 56.7 5.2 0 0 0.8-4 2-10.8 0 0-27.9 5-57.5-6.4-0.7 7.7-1.2 12-1.2 12z"/>
					<path id="&lt;Path&gt;" class="s10" d="m753.1 1663l7.6-0.5c10.8-35.6 16.4-200.6 21.8-226.4 0 0-12.9-11.2-14.2-27.7 3.2 45-3.2 197.2-15.2 254.6z"/>
					<path id="&lt;Path&gt;" class="s29" d="m854.4 1356l-24.5-65.9 13.9-1.8c6.7 30 10.6 67.7 10.6 67.7z"/>
					<path id="&lt;Path&gt;" class="s9" d="m786.4 1273.3c77.4 44.2 150.5 37.6 184.7-52.6 5.2-12-10.6-17.9-15.8-6.2-41.7 59-81.3 56.1-134.3 12.7 0 0-0.1-0.1 0 0-30.2-22.5-64.7 23.3-34.6 46.1z"/>
					<path id="&lt;Path&gt;" class="s22" d="m791.6 1219.8c-74.9 58.1 70.6 109.6 125.7 70.5 4.2-2.9 6.4-5.2 6.4-5.2 1-19.8-13.1-30-13.1-30-13.2 1.1-36.9 4.9-51.4-5.7-50.7-39.3-67.6-29.6-67.6-29.6z"/>
					<path id="&lt;Path&gt;" class="s29" d="m902.6 1255.9c0 0 15.1 11.1 14.7 34.4 4.2-2.9 6.4-5.2 6.4-5.2 1-19.8-13.1-30-13.1-30 0 0-3.1 0.5-8 0.8z"/>
				</g>
				<path id="&lt;Path&gt;" class="s9" d="m781.4 1262.2c-35.6 20.8-57.8 55.1-86.9 83.4-20.5 17.6-44.7 29.7-70.3 37.3-12 2.3-14.9-12.9-3.8-17 66-37.6 65-77.3 113.3-123.9 6.6-6.3 13.5-12.1 20.5-17.5 25.3-18.9 53.2 19.5 27.2 37.7z"/>
				<path id="&lt;Path&gt;" class="s22" d="m763 1286c-12.3 9.8-39 33-51.1 43.5-3.8 3.3-6.1 5.4-6.1 5.4-20.8-6.3-25-22.7-25-22.7 0 0 1-2.9 3.5-8.2 5.2-11 17-32.1 41-58.8 35.5-39.8 60.5-23.8 60.5-23.8 27 28.7-6.7 51.7-22.8 64.6z"/>
				<path id="&lt;Path&gt;" class="s30" d="m724.2 1297.6c8.2-15-2.3-15.5 4.1-36.2 6.3-20-2.5-37.3 8.3-53.3 15.5-22.8 20.3-48.8 26.2-63.4 20.7-50.9 76.1-34.4 78.8 15.8h0.1c0.5 3 2.3 16.2 0 41.2-2.6 26.9 9.2 22.7 8.7 41.1-0.2 11.1-13.9 21.7-19 35.7-5.1 14 4.4 23-5.2 39.3-9.5 16.3-19 26.4-37.1 22.8-18-3.5-21-10.9-36-7.2-14.9 3.7-46.7-3.3-28.9-35.8z"/>
				<path id="&lt;Path&gt;" class="s29" d="m711.9 1329.5c-3.8 3.3-6.1 5.4-6.1 5.4-20.8-6.3-25-22.7-25-22.7 0 0 1-2.9 3.5-8.2 0 0 5.6 16.6 27.6 25.5z"/>
				<path id="&lt;Path&gt;" class="s9" d="m618.2 1366.9c0 0-13.8 3.1-10.7 18.5 0 0 6.4 4.8 17.1 5.2 0 0 6.5-3.9 9.7-11z"/>
				<path id="&lt;Path&gt;" class="s15" d="m954.5 1215.7c0 0 2.4 6.8 14.7 9.8 0 0-0.2 3.3-1.9 4.7 0 0-11.5-0.9-16.1-10.1 0 0 0.9-3.4 3.3-4.4z"/>
				<g id="&lt;Group&gt;">
					<path id="&lt;Path&gt;" class="s9" d="m954.3 1205.5c0.4-0.8 0.7-1.4 1.1-2.1q0.5-0.9 1.1-1.9 1.2-1.8 2.5-3.5 2.6-3.5 5.7-6.5c2-2.1 4.3-3.9 6.7-5.4 2.3-1.7 5-2.9 7.6-4 1.2-0.5 2.6 0 3.1 1.3 0.4 1 0 2.3-1 2.9l-0.1 0.1c-2.1 1.3-4.2 2.7-6 4.4q-2.8 2.5-5 5.5-2.2 2.9-3.9 6.2-0.9 1.6-1.6 3.3-0.4 0.8-0.7 1.7c-0.2 0.5-0.4 1.1-0.6 1.5-0.6 2.6-3.3 4.1-5.9 3.4-2.6-0.7-4.1-3.3-3.4-5.9q0.1-0.4 0.3-0.8z"/>
					<path id="&lt;Path&gt;" class="s9" d="m969.6 1225.1c0 0 9.9-7.8 10.4-18 0.5-10.3-8.3-15.2-8.3-15.2 0 0-15.1 20.9-2.1 33.2z"/>
					<path id="&lt;Path&gt;" class="s9" d="m955.4 1214.6c0 0 6.8-14.8 18-21.3l-8.3 24z"/>
				</g>
				<path id="&lt;Path&gt;" class="s9" d="m956.6 1192.9c0.4 1.8 0.9 3.6 1.4 5.4q0.7 2.6 1.5 5.2c0.6 1.7 1.2 3.3 1.9 4.9l0.5 1.1c0.1 0.4 0.3 0.7 0.5 1 0.2 0.4 0.4 0.6 0.5 0.8 0.1 0.2 0.2 0.2 0.3 0.3q0.1 0.1 0.1 0.2l0.3 0.3c1.7 2 1.4 5.1-0.6 6.8-2.1 1.7-5.1 1.4-6.8-0.6q-0.3-0.3-0.4-0.6-0.3-0.5-0.6-1c-0.2-0.3-0.4-0.6-0.5-0.9-0.2-0.6-0.5-1.2-0.7-1.7-0.1-0.5-0.3-1.1-0.5-1.6l-0.3-1.5c-0.5-2-0.8-4-1-5.9q-0.4-2.9-0.6-5.7c-0.1-2-0.2-3.8-0.3-5.8-0.1-1.5 1.1-2.7 2.6-2.8 1.3 0 2.4 0.9 2.7 2.1z"/>
				<path id="&lt;Path&gt;" class="s16" d="m971.5 1201.5q-0.1 0-0.3 0c-0.2-0.2-0.3-0.5-0.1-0.7 2.6-4.9 5.4-5 5.5-5 0.3 0 0.5 0.3 0.5 0.6 0 0.2-0.2 0.4-0.5 0.4 0 0-2.3 0.2-4.7 4.5-0.1 0.1-0.2 0.2-0.4 0.2z"/>
				<path id="&lt;Path&gt;" class="s16" d="m975.3 1205.8q-0.1 0-0.2-0.1c-0.3-0.1-0.4-0.5-0.2-0.7 2.1-3.4 4.2-3.9 4.3-4 0.3 0 0.6 0.2 0.6 0.4 0.1 0.3-0.1 0.6-0.4 0.6 0 0-1.8 0.5-3.7 3.5 0 0.2-0.2 0.3-0.4 0.3z"/>
			</g>
		</g>
	</g>
</svg>