<svg width="762" height="398" viewBox="0 0 762 398" fill="none" xmlns="http://www.w3.org/2000/svg">
<path d="M471.35 133.65C471.35 131.657 470.613 129.75 469.14 127.93C467.667 126.023 465.067 124.94 461.34 124.68C458.913 127.627 455.967 129.1 452.5 129.1C449.553 129.1 447.04 128.06 444.96 125.98C442.88 123.9 441.84 121.343 441.84 118.31C441.84 115.277 442.88 112.72 444.96 110.64C447.04 108.56 449.553 107.52 452.5 107.52C454.06 107.52 455.577 107.953 457.05 108.82C458.61 109.687 459.997 110.727 461.21 111.94C463.117 111.853 464.59 111.55 465.63 111.03C466.67 110.51 467.407 109.903 467.84 109.21C468.36 108.43 468.663 107.563 468.75 106.61C468.837 105.657 468.88 104.703 468.88 103.75V90.62C468.88 88.4533 468.187 86.46 466.8 84.64C465.5 82.82 463.247 81.91 460.04 81.91H432.87L432.74 167.71C432.74 169.443 431.917 170.787 430.27 171.74C428.71 172.607 426.977 173.04 425.07 173.04C419.957 173.04 417.4 170.96 417.4 166.8V76.58C417.4 73.46 418.18 71.38 419.74 70.34C421.387 69.3 423.337 68.78 425.59 68.78H463.29C465.543 68.78 467.927 69.2133 470.44 70.08C473.04 70.9467 475.467 72.1167 477.72 73.59H477.59C479.843 75.2367 481.49 77.4033 482.53 80.09C483.657 82.7767 484.22 85.8967 484.22 89.45V104.14C484.22 107.607 483.483 110.467 482.01 112.72C480.537 114.887 478.977 116.62 477.33 117.92C478.457 118.613 479.54 119.35 480.58 120.13C481.62 120.823 482.487 121.603 483.18 122.47C484.307 123.683 485.173 125.113 485.78 126.76C486.473 128.407 486.82 130.357 486.82 132.61V151.2C486.82 158.307 484.047 163.55 478.5 166.93C475.727 168.663 473.083 169.963 470.57 170.83C468.143 171.697 465.717 172.13 463.29 172.13H444.05C442.577 172.13 441.407 171.523 440.54 170.31C439.76 169.097 439.37 167.493 439.37 165.5C439.37 161.167 441.19 159 444.83 159H462.64C465.847 159 468.1 158.09 469.4 156.27C470.7 154.45 471.35 152.413 471.35 150.16V133.65ZM519.917 166.93C519.917 171.003 517.534 173.04 512.767 173.04C507.914 173.04 505.487 171.003 505.487 166.93V73.72C505.487 69.6467 507.914 67.61 512.767 67.61C517.534 67.61 519.917 69.6467 519.917 73.72V166.93ZM552.541 166.54C552.541 170.7 550.158 172.78 545.391 172.78C540.538 172.78 538.111 170.7 538.111 166.54V99.46C538.111 95.3 540.538 93.22 545.391 93.22C550.158 93.22 552.541 95.3 552.541 99.46V166.54ZM555.271 76.84C555.271 79.6133 554.318 81.9533 552.411 83.86C550.504 85.7667 548.164 86.72 545.391 86.72C542.618 86.72 540.234 85.7667 538.241 83.86C536.334 81.9533 535.381 79.6133 535.381 76.84C535.381 73.98 536.334 71.5967 538.241 69.69C540.234 67.7833 542.618 66.83 545.391 66.83C548.164 66.83 550.504 67.7833 552.411 69.69C554.318 71.5967 555.271 73.98 555.271 76.84ZM584.905 166.54C584.905 170.7 582.522 172.78 577.755 172.78C572.988 172.78 570.605 170.7 570.605 166.54V114.28C570.605 110.727 571.168 107.65 572.295 105.05C573.422 102.45 575.198 100.327 577.625 98.68C582.218 95.3867 586.812 93.74 591.405 93.74H612.335C616.755 93.74 621.348 95.3867 626.115 98.68C630.795 101.973 633.135 107.173 633.135 114.28V166.54C633.135 170.7 630.752 172.78 625.985 172.78C621.218 172.78 618.835 170.7 618.835 166.54V115.45C618.835 113.197 618.142 111.03 616.755 108.95L616.885 109.08C615.758 107 613.462 105.96 609.995 105.96H593.745C590.192 105.96 587.852 107 586.725 109.08C585.512 110.9 584.905 113.023 584.905 115.45V166.54ZM664.251 150.29V166.8C664.251 170.873 661.867 172.91 657.101 172.91C652.334 172.91 649.951 170.873 649.951 166.8V74.24C649.951 70.08 652.334 68 657.101 68C661.867 68 664.251 70.08 664.251 74.24V129.36C666.417 126.76 668.801 123.987 671.401 121.04C674.087 118.007 676.731 114.973 679.331 111.94C682.017 108.82 684.661 105.787 687.261 102.84C689.861 99.8067 692.287 96.99 694.541 94.39V94.52C696.101 92.7 697.661 91.79 699.221 91.79C700.087 91.79 700.911 92.0067 701.691 92.44C702.557 92.7867 703.467 93.3067 704.421 94H704.291C706.371 95.7333 707.411 97.4667 707.411 99.2C707.411 99.8067 707.281 100.5 707.021 101.28C706.761 101.973 706.327 102.58 705.721 103.1L664.251 150.29ZM707.671 163.29C708.277 164.417 708.581 165.587 708.581 166.8C708.581 169.053 707.281 170.743 704.681 171.87C702.947 172.91 701.387 173.43 700.001 173.43C699.047 173.43 698.137 173.083 697.271 172.39C696.404 171.783 695.711 171.003 695.191 170.05L682.191 144.96C681.411 143.66 681.021 142.36 681.021 141.06C681.021 138.893 682.147 137.073 684.401 135.6C685.007 135.167 685.614 134.777 686.221 134.43C686.914 134.083 687.651 133.823 688.431 133.65C689.384 133.477 690.294 133.65 691.161 134.17C692.027 134.69 692.764 135.383 693.371 136.25L707.671 163.29Z" fill="url(#paint0_linear_178_317)"/>
<path d="M539.47 276.2C539.47 283.22 537.13 288.463 532.45 291.93C530.197 293.577 527.857 294.877 525.43 295.83C523.09 296.697 520.793 297.13 518.54 297.13H490.2C487.947 297.13 485.607 296.697 483.18 295.83C480.84 294.877 478.543 293.577 476.29 291.93C474.037 290.197 472.303 288.073 471.09 285.56C469.877 282.96 469.27 279.84 469.27 276.2V214.45C469.27 210.983 469.877 207.95 471.09 205.35C472.303 202.663 474.037 200.497 476.29 198.85H476.16C478.413 197.377 480.753 196.163 483.18 195.21C485.607 194.257 487.947 193.78 490.2 193.78H518.54C520.793 193.78 523.133 194.257 525.56 195.21C527.987 196.163 530.327 197.377 532.58 198.85H532.45C534.703 200.497 536.437 202.663 537.65 205.35C538.863 207.95 539.47 210.983 539.47 214.45V223.42C539.47 227.58 536.87 229.66 531.67 229.66C526.557 229.66 524 227.58 524 223.42V215.62C524 213.453 523.35 211.46 522.05 209.64C520.75 207.82 518.497 206.91 515.29 206.91H493.45C490.243 206.91 487.99 207.82 486.69 209.64C485.39 211.46 484.74 213.453 484.74 215.62V275.16C484.74 277.413 485.39 279.45 486.69 281.27C487.99 283.09 490.243 284 493.45 284H515.29C518.497 284 520.75 283.09 522.05 281.27C523.35 279.45 524 277.413 524 275.16V267.62C524 263.547 526.557 261.51 531.67 261.51C536.87 261.51 539.47 263.547 539.47 267.62V276.2ZM571.917 291.93C571.917 296.003 569.534 298.04 564.767 298.04C559.914 298.04 557.487 296.003 557.487 291.93V198.72C557.487 194.647 559.914 192.61 564.767 192.61C569.534 192.61 571.917 194.647 571.917 198.72V291.93ZM604.541 291.54C604.541 295.7 602.158 297.78 597.391 297.78C592.538 297.78 590.111 295.7 590.111 291.54V224.46C590.111 220.3 592.538 218.22 597.391 218.22C602.158 218.22 604.541 220.3 604.541 224.46V291.54ZM607.271 201.84C607.271 204.613 606.318 206.953 604.411 208.86C602.504 210.767 600.164 211.72 597.391 211.72C594.618 211.72 592.234 210.767 590.241 208.86C588.334 206.953 587.381 204.613 587.381 201.84C587.381 198.98 588.334 196.597 590.241 194.69C592.234 192.783 594.618 191.83 597.391 191.83C600.164 191.83 602.504 192.783 604.411 194.69C606.318 196.597 607.271 198.98 607.271 201.84ZM685.135 276.33C685.135 283.437 682.795 288.68 678.115 292.06C673.522 295.353 668.928 297 664.335 297H642.495C637.902 297 633.438 295.353 629.105 292.06C627.025 290.327 625.422 288.16 624.295 285.56C623.168 282.873 622.605 279.797 622.605 276.33V239.28C622.605 232.26 624.772 227.06 629.105 223.68C631.272 222.12 633.482 220.907 635.735 220.04C638.075 219.087 640.328 218.61 642.495 218.61H664.335C666.415 218.61 668.712 219.043 671.225 219.91C673.738 220.69 676.078 221.773 678.245 223.16C680.325 224.633 681.972 226.67 683.185 229.27C684.485 231.87 685.135 234.947 685.135 238.5V245C685.135 249.16 682.752 251.24 677.985 251.24C673.218 251.24 670.835 249.16 670.835 245V239.41C670.835 237.243 670.142 235.293 668.755 233.56C667.455 231.74 665.202 230.83 661.995 230.83H645.745C642.538 230.83 640.242 231.74 638.855 233.56C637.555 235.293 636.905 237.243 636.905 239.41V276.2C636.905 278.28 637.555 280.23 638.855 282.05C640.242 283.87 642.538 284.78 645.745 284.78H661.995C665.202 284.78 667.455 283.87 668.755 282.05C670.142 280.23 670.835 278.28 670.835 276.2V270.22C670.835 266.147 673.218 264.11 677.985 264.11C682.752 264.11 685.135 266.147 685.135 270.22V276.33ZM715.743 275.29V291.8C715.743 295.873 713.36 297.91 708.593 297.91C703.826 297.91 701.443 295.873 701.443 291.8V199.24C701.443 195.08 703.826 193 708.593 193C713.36 193 715.743 195.08 715.743 199.24V254.36C717.91 251.76 720.293 248.987 722.893 246.04C725.58 243.007 728.223 239.973 730.823 236.94C733.51 233.82 736.153 230.787 738.753 227.84C741.353 224.807 743.78 221.99 746.033 219.39V219.52C747.593 217.7 749.153 216.79 750.713 216.79C751.58 216.79 752.403 217.007 753.183 217.44C754.05 217.787 754.96 218.307 755.913 219H755.783C757.863 220.733 758.903 222.467 758.903 224.2C758.903 224.807 758.773 225.5 758.513 226.28C758.253 226.973 757.82 227.58 757.213 228.1L715.743 275.29ZM759.163 288.29C759.77 289.417 760.073 290.587 760.073 291.8C760.073 294.053 758.773 295.743 756.173 296.87C754.44 297.91 752.88 298.43 751.493 298.43C750.54 298.43 749.63 298.083 748.763 297.39C747.896 296.783 747.203 296.003 746.683 295.05L733.683 269.96C732.903 268.66 732.513 267.36 732.513 266.06C732.513 263.893 733.64 262.073 735.893 260.6C736.5 260.167 737.106 259.777 737.713 259.43C738.406 259.083 739.143 258.823 739.923 258.65C740.876 258.477 741.786 258.65 742.653 259.17C743.52 259.69 744.256 260.383 744.863 261.25L759.163 288.29Z" fill="url(#paint1_linear_178_317)"/>
<path d="M465.687 311.773L413.58 275.605C408.47 272.058 401.479 275.719 401.479 281.94V304.008H154.884L118.776 180.153C117.022 174.136 111.512 170 105.249 170H14.094C6.31016 170 0 176.313 0 184.1C0 191.888 6.31016 198.201 14.094 198.201H94.6783L130.786 322.055C132.536 328.072 138.05 332.209 144.313 332.209H401.479V354.276C401.479 360.501 408.47 364.158 413.58 360.611L465.687 324.447C470.104 321.378 470.104 314.841 465.687 311.773Z" fill="url(#paint2_linear_178_317)"/>
<path d="M311 398C323.703 398 334 387.703 334 375C334 362.297 323.703 352 311 352C298.297 352 288 362.297 288 375C288 387.703 298.297 398 311 398Z" fill="url(#paint3_linear_178_317)"/>
<path d="M211 398C223.703 398 234 387.703 234 375C234 362.297 223.703 352 211 352C198.297 352 188 362.297 188 375C188 387.703 198.297 398 211 398Z" fill="url(#paint4_linear_178_317)"/>
<path d="M203.024 286.64C199.924 286.072 196.933 284.874 194.205 283.136C191.474 281.395 189.009 279.115 186.966 276.388C184.922 273.659 183.303 270.486 182.263 266.962C182.263 266.962 117.078 46.1317 117.057 46.0607C114.479 37.3287 118.089 26.7437 124.954 19.9127C122.53 21.7477 118.3 25.4287 116.001 27.4477C114.865 28.4447 112.49 30.6707 111.391 32.7187C107.732 38.6317 107.139 46.0127 109.106 52.6097L173.014 269.717C174.033 273.179 175.624 276.297 177.633 278.977C179.642 281.655 182.068 283.894 184.757 285.602C187.443 287.308 190.39 288.483 193.446 289.038C196.495 289.592 199.651 289.529 202.762 288.762L212.471 286.368C209.318 287.145 206.118 287.207 203.024 286.64Z" fill="url(#paint5_linear_178_317)"/>
<path d="M217.739 0.365765C230.844 -2.08823 243.282 8.16976 246.986 20.2418C246.986 20.2418 310.756 228.196 310.773 228.252C315.003 242.102 309.832 255.852 296.834 259.932L213.823 285.989C210.575 287.009 207.253 287.247 204.027 286.801C200.794 286.354 197.66 285.221 194.796 283.502C191.928 281.78 189.335 279.472 187.187 276.68C185.039 273.887 183.34 270.612 182.262 266.962C182.262 266.962 117.067 46.0978 117.056 46.0608C113.326 33.4258 119.881 18.6918 133.591 16.1248C133.591 16.1248 217.733 0.366765 217.739 0.365765Z" fill="url(#paint6_linear_178_317)"/>
<path d="M223.137 25.3558C225.404 24.9198 227.713 25.0068 229.947 25.5378C232.178 26.0678 234.335 27.0398 236.303 28.3738C238.269 29.7068 240.048 31.4028 241.524 33.3828C242.999 35.3618 244.173 37.6268 244.93 40.0998L301.903 225.518C302.685 228.075 302.983 230.647 302.852 233.11C302.72 235.576 302.158 237.934 301.22 240.06C300.28 242.189 298.963 244.085 297.323 245.621C295.68 247.16 293.711 248.339 291.474 249.028L212.279 273.428C209.87 274.17 207.409 274.333 205.02 273.992C202.627 273.65 200.308 272.801 198.19 271.52C196.07 270.238 194.152 268.525 192.565 266.457C190.977 264.388 189.72 261.966 188.922 259.268C188.922 259.268 130.783 63.1248 130.76 63.0478C128.001 53.7248 132.829 42.7388 142.956 40.7898C142.954 40.7888 222.351 25.5078 223.137 25.3558Z" fill="url(#paint7_linear_178_317)"/>
<path d="M171.032 25.0778C171.032 27.2228 169.294 28.9608 167.149 28.9608C165.004 28.9608 163.266 27.2218 163.266 25.0778C163.266 22.9338 165.004 21.1948 167.149 21.1948C169.294 21.1948 171.032 22.9328 171.032 25.0778Z" fill="url(#paint8_linear_178_317)"/>
<path d="M203.045 21.1858L179.041 25.7318C177.281 26.0648 175.585 24.9088 175.251 23.1488C174.918 21.3888 176.074 19.6928 177.834 19.3588L201.838 14.8128C203.598 14.4798 205.294 15.6358 205.628 17.3958C205.961 19.1558 204.805 20.8528 203.045 21.1858Z" fill="url(#paint9_linear_178_317)"/>
<path d="M311.96 65.9933C310.944 59.9429 308.77 53.7086 305.04 48.8715C301.862 44.7483 297.136 41.797 292.013 41.1336C286.89 40.4701 281.536 42.3073 277.871 45.9923C265.842 58.0859 264.087 74.6128 264 86.2503C263.995 86.8615 265.703 87.2744 265.908 87.8477C266.527 89.5766 268.602 90.1662 270.385 90.5141C268.589 77.7661 271.655 64.3762 278.806 53.7302C280.258 51.5668 281.919 49.4718 284.114 48.0945C287.906 45.7165 292.931 45.8589 296.923 47.8745C300.914 49.8901 303.923 53.5752 305.795 57.6767C307.667 61.7782 307.793 65.9951 308.236 70.4915C309.163 79.87 309.204 89.7064 306.999 98.865C309.551 100.378 311.605 100.771 312.231 97.5543C312.891 94.1667 312.861 90.4474 312.927 87.0039C313.065 79.9511 313.128 72.9524 311.96 65.9933Z" fill="url(#paint10_linear_178_317)"/>
<path d="M347.914 63.4839C346.839 57.5423 343.431 50.48 339.48 45.7299C336.112 41.6809 331.106 38.7827 325.679 38.1312C320.252 37.4797 314.577 39.2837 310.694 42.9025C297.949 54.7786 296.09 71.0083 296 82.4347C295.995 83.0349 297.803 83.4403 298.021 84.0033C298.676 85.7012 300.876 86.2801 302.765 86.6218C300.862 74.103 304.11 60.9539 311.687 50.4995C313.226 48.375 314.985 46.3177 317.311 44.9669C321.329 42.6316 326.652 42.7715 330.882 44.7509C335.111 46.7302 338.297 50.349 340.281 54.3768C342.266 58.4045 343.305 63.3405 343.776 67.756C344.759 76.9658 343.894 85.8322 341.558 94.8243C344.261 96.3097 347.497 96.8355 348.161 93.677C348.86 90.3504 348.848 87.3017 348.92 83.9219C349.064 76.9924 349.151 70.316 347.914 63.4839Z" fill="#F0C545"/>
<path d="M234.788 212.93L198 222L238.32 72.2178L261.034 65.4123L262 65" fill="url(#paint11_linear_178_317)"/>
<path d="M379 245.812L349.744 252L198 221.917L234.525 213L379 245.812Z" fill="url(#paint12_linear_178_317)"/>
<path d="M261.853 65C247.042 113.179 245.562 153.451 235 212.683C286.033 225.027 320.338 232.483 378.596 246C378.966 233.139 379.138 186.071 379.236 179.979C379.6 157.619 381 94.7189 381 94.7189C381 94.7189 283.844 70.6212 261.853 65Z" fill="url(#paint13_linear_178_317)"/>
<path d="M267.643 163.757C272.981 171.245 279.446 177.147 286.719 181.465C293.968 185.802 301.962 188.522 310.195 189.692C318.456 190.821 326.89 190.389 335.048 188.2C343.225 186.035 351.057 182.125 358.239 176.382C358.523 176.128 358.945 176.186 359.2 176.471C359.372 176.698 359.379 176.971 359.256 177.203C354.904 185.694 347.003 192.378 337.966 196.323C328.88 200.307 318.61 201.569 308.729 200.215C298.875 198.819 289.342 194.798 281.691 188.481C274.077 182.215 268.304 173.625 266.44 164.268C266.353 163.917 266.586 163.542 266.957 163.48C267.236 163.429 267.493 163.532 267.643 163.757Z" fill="#F0C545"/>
<path d="M258.758 166.615C258.806 164.97 259.438 163.519 260.407 162.251C261.398 160.986 262.764 159.954 264.334 159.403C265.902 158.875 267.581 158.679 269.123 158.984C269.903 159.07 270.623 159.42 271.337 159.655C272.014 159.998 272.662 160.383 273.253 160.85C273.558 161.096 273.61 161.533 273.364 161.839C273.254 161.982 273.105 162.074 272.943 162.097L272.848 162.129C272.126 162.277 271.47 162.276 270.827 162.345C270.2 162.461 269.588 162.466 269.027 162.592C267.852 162.745 266.835 163.056 265.835 163.414C264.86 163.754 263.952 164.261 262.981 164.895C262.016 165.485 261.065 166.303 260.002 167.105L259.876 167.201C259.572 167.43 259.151 167.371 258.899 167.065C258.804 166.938 258.759 166.773 258.758 166.615Z" fill="#F0C545"/>
<path d="M364.606 181.683C363.804 180.62 363.113 179.573 362.346 178.742C361.585 177.867 360.85 177.131 360.005 176.538C359.141 175.919 358.248 175.342 357.159 174.874C356.654 174.6 356.067 174.428 355.474 174.141C354.896 173.902 354.264 173.724 353.613 173.361L353.505 173.324C353.169 173.141 353.025 172.714 353.207 172.377C353.299 172.209 353.425 172.113 353.571 172.043C354.267 171.755 354.996 171.562 355.74 171.417C356.491 171.386 357.28 171.247 358.054 171.378C359.62 171.505 361.182 172.153 362.545 173.09C363.883 174.046 364.937 175.415 365.544 176.902C366.129 178.387 366.341 179.955 365.937 181.551C365.84 181.922 365.445 182.161 365.074 182.064C364.921 182.021 364.775 181.932 364.702 181.809L364.606 181.683Z" fill="#F0C545"/>
<defs>
<linearGradient id="paint0_linear_178_317" x1="375.665" y1="125.5" x2="736.723" y2="125.5" gradientUnits="userSpaceOnUse">
<stop stop-color="#994AC2"/>
<stop offset="1" stop-color="#3C246B"/>
</linearGradient>
<linearGradient id="paint1_linear_178_317" x1="427.768" y1="250.5" x2="787.638" y2="250.5" gradientUnits="userSpaceOnUse">
<stop stop-color="#994AC2"/>
<stop offset="1" stop-color="#3C246B"/>
</linearGradient>
<linearGradient id="paint2_linear_178_317" x1="56.7412" y1="76.4529" x2="439.708" y2="459.247" gradientUnits="userSpaceOnUse">
<stop stop-color="#A04BC7"/>
<stop offset="1" stop-color="#3F3E82"/>
</linearGradient>
<linearGradient id="paint3_linear_178_317" x1="97.8306" y1="161.833" x2="407.212" y2="471.214" gradientUnits="userSpaceOnUse">
<stop stop-color="#A04BC7"/>
<stop offset="1" stop-color="#3F3E82"/>
</linearGradient>
<linearGradient id="paint4_linear_178_317" x1="-2.16945" y1="161.833" x2="307.212" y2="471.214" gradientUnits="userSpaceOnUse">
<stop stop-color="#A04BC7"/>
<stop offset="1" stop-color="#3F3E82"/>
</linearGradient>
<linearGradient id="paint5_linear_178_317" x1="108" y1="154.658" x2="212.472" y2="154.658" gradientUnits="userSpaceOnUse">
<stop stop-color="#DC678E"/>
<stop offset="0.0085" stop-color="#D9658E"/>
<stop offset="0.1334" stop-color="#B04D92"/>
<stop offset="0.247" stop-color="#923C96"/>
<stop offset="0.3446" stop-color="#803297"/>
<stop offset="0.4146" stop-color="#7A2E98"/>
<stop offset="0.7523" stop-color="#9A5599"/>
<stop offset="1" stop-color="#AD6D99"/>
</linearGradient>
<linearGradient id="paint6_linear_178_317" x1="116.024" y1="143.508" x2="312.22" y2="143.508" gradientUnits="userSpaceOnUse">
<stop stop-color="#E68A33"/>
<stop offset="0.5221" stop-color="#E166C8"/>
<stop offset="0.5816" stop-color="#D060C2"/>
<stop offset="0.6993" stop-color="#A44FB2"/>
<stop offset="0.8623" stop-color="#5E3498"/>
<stop offset="1" stop-color="#1E1C80"/>
</linearGradient>
<linearGradient id="paint7_linear_178_317" x1="266.213" y1="194.554" x2="111.73" y2="54.161" gradientUnits="userSpaceOnUse">
<stop stop-color="#E4D5FD"/>
<stop offset="0.3891" stop-color="#EFE7FE"/>
<stop offset="1" stop-color="white"/>
</linearGradient>
<linearGradient id="paint8_linear_178_317" x1="168.729" y1="26.5135" x2="164.026" y2="22.2395" gradientUnits="userSpaceOnUse">
<stop stop-color="#E4D5FD"/>
<stop offset="0.3891" stop-color="#EFE7FE"/>
<stop offset="1" stop-color="white"/>
</linearGradient>
<linearGradient id="paint9_linear_178_317" x1="196.196" y1="23.8049" x2="179.063" y2="13.2902" gradientUnits="userSpaceOnUse">
<stop stop-color="#E4D5FD"/>
<stop offset="0.3891" stop-color="#EFE7FE"/>
<stop offset="1" stop-color="white"/>
</linearGradient>
<linearGradient id="paint10_linear_178_317" x1="267.547" y1="81.0503" x2="296.233" y2="71.6127" gradientUnits="userSpaceOnUse">
<stop stop-color="#E4793D"/>
<stop offset="1" stop-color="#EDB440"/>
</linearGradient>
<linearGradient id="paint11_linear_178_317" x1="264.864" y1="74.9181" x2="211.516" y2="204.08" gradientUnits="userSpaceOnUse">
<stop offset="0.00052083" stop-color="#D65E7E"/>
<stop offset="1" stop-color="#883355"/>
</linearGradient>
<linearGradient id="paint12_linear_178_317" x1="170.751" y1="269.862" x2="298.486" y2="229.518" gradientUnits="userSpaceOnUse">
<stop offset="0.00052083" stop-color="#4F2373"/>
<stop offset="1" stop-color="#38246A"/>
</linearGradient>
<linearGradient id="paint13_linear_178_317" x1="265.782" y1="198.855" x2="366.92" y2="98.2299" gradientUnits="userSpaceOnUse">
<stop offset="0.00052083" stop-color="#5C51B1"/>
<stop offset="1" stop-color="#A69CFB"/>
</linearGradient>
</defs>
</svg>
