<svg width="441" height="258" viewBox="0 0 441 258" fill="none" xmlns="http://www.w3.org/2000/svg">
<path d="M228.9 127.1C231.1 127.1 232.9 126.933 234.3 126.6C235.767 126.2 236.933 125.7 237.8 125.1C238.667 124.433 239.267 123.667 239.6 122.8C239.933 121.933 240.1 120.967 240.1 119.9C240.1 117.633 239.033 115.767 236.9 114.3C234.767 112.767 231.1 111.133 225.9 109.4C223.633 108.6 221.367 107.7 219.1 106.7C216.833 105.633 214.8 104.333 213 102.8C211.2 101.2 209.733 99.3 208.6 97.1C207.467 94.8333 206.9 92.1 206.9 88.9C206.9 85.7 207.5 82.8333 208.7 80.3C209.9 77.7 211.6 75.5 213.8 73.7C216 71.9 218.667 70.5333 221.8 69.6C224.933 68.6 228.467 68.1 232.4 68.1C237.067 68.1 241.1 68.6 244.5 69.6C247.9 70.6 250.7 71.7 252.9 72.9L248.4 85.2C246.467 84.2 244.3 83.3333 241.9 82.6C239.567 81.8 236.733 81.4 233.4 81.4C229.667 81.4 226.967 81.9333 225.3 83C223.7 84 222.9 85.5667 222.9 87.7C222.9 88.9667 223.2 90.0333 223.8 90.9C224.4 91.7667 225.233 92.5667 226.3 93.3C227.433 93.9667 228.7 94.6 230.1 95.2C231.567 95.7333 233.167 96.3 234.9 96.9C238.5 98.2333 241.633 99.5667 244.3 100.9C246.967 102.167 249.167 103.667 250.9 105.4C252.7 107.133 254.033 109.167 254.9 111.5C255.767 113.833 256.2 116.667 256.2 120C256.2 126.467 253.933 131.5 249.4 135.1C244.867 138.633 238.033 140.4 228.9 140.4C225.833 140.4 223.067 140.2 220.6 139.8C218.133 139.467 215.933 139.033 214 138.5C212.133 137.967 210.5 137.4 209.1 136.8C207.767 136.2 206.633 135.633 205.7 135.1L210.1 122.7C212.167 123.833 214.7 124.867 217.7 125.8C220.767 126.667 224.5 127.1 228.9 127.1ZM267.203 139V63.8L282.103 61.4V86.6C283.103 86.2667 284.37 85.9667 285.903 85.7C287.503 85.3667 289.036 85.2 290.503 85.2C294.77 85.2 298.303 85.8 301.103 87C303.97 88.1333 306.236 89.7667 307.903 91.9C309.636 94.0333 310.836 96.5667 311.503 99.5C312.236 102.433 312.603 105.7 312.603 109.3V139H297.703V111.1C297.703 106.3 297.07 102.9 295.803 100.9C294.603 98.9 292.336 97.9 289.003 97.9C287.67 97.9 286.403 98.0333 285.203 98.3C284.07 98.5 283.036 98.7333 282.103 99V139H267.203ZM375.29 112.6C375.29 116.733 374.69 120.533 373.49 124C372.29 127.4 370.557 130.333 368.29 132.8C366.023 135.2 363.29 137.067 360.09 138.4C356.957 139.733 353.423 140.4 349.49 140.4C345.623 140.4 342.09 139.733 338.89 138.4C335.757 137.067 333.057 135.2 330.79 132.8C328.523 130.333 326.757 127.4 325.49 124C324.223 120.533 323.59 116.733 323.59 112.6C323.59 108.467 324.223 104.7 325.49 101.3C326.823 97.9 328.623 95 330.89 92.6C333.223 90.2 335.957 88.3333 339.09 87C342.29 85.6667 345.757 85 349.49 85C353.29 85 356.757 85.6667 359.89 87C363.09 88.3333 365.823 90.2 368.09 92.6C370.357 95 372.123 97.9 373.39 101.3C374.657 104.7 375.29 108.467 375.29 112.6ZM360.09 112.6C360.09 108 359.157 104.4 357.29 101.8C355.49 99.1333 352.89 97.8 349.49 97.8C346.09 97.8 343.457 99.1333 341.59 101.8C339.723 104.4 338.79 108 338.79 112.6C338.79 117.2 339.723 120.867 341.59 123.6C343.457 126.267 346.09 127.6 349.49 127.6C352.89 127.6 355.49 126.267 357.29 123.6C359.157 120.867 360.09 117.2 360.09 112.6ZM420.532 113.1C420.532 108.5 419.499 104.833 417.432 102.1C415.365 99.3 412.299 97.9 408.232 97.9C406.899 97.9 405.665 97.9667 404.532 98.1C403.399 98.1667 402.465 98.2667 401.732 98.4V125.3C402.665 125.9 403.865 126.4 405.332 126.8C406.865 127.2 408.399 127.4 409.932 127.4C416.999 127.4 420.532 122.633 420.532 113.1ZM435.732 112.7C435.732 116.767 435.232 120.467 434.232 123.8C433.232 127.133 431.765 130 429.832 132.4C427.899 134.8 425.499 136.667 422.632 138C419.765 139.333 416.465 140 412.732 140C410.665 140 408.732 139.8 406.932 139.4C405.132 139 403.399 138.433 401.732 137.7V157.5H386.832V88.2C388.165 87.8 389.699 87.4333 391.432 87.1C393.165 86.7 394.965 86.3667 396.832 86.1C398.765 85.8333 400.699 85.6333 402.632 85.5C404.632 85.3 406.532 85.2 408.332 85.2C412.665 85.2 416.532 85.8667 419.932 87.2C423.332 88.4667 426.199 90.3 428.532 92.7C430.865 95.0333 432.632 97.9 433.832 101.3C435.099 104.7 435.732 108.5 435.732 112.7Z" fill="#984583"/>
<path d="M253.585 226.27V239H209.6V173.165H224.42V226.27H253.585ZM308.92 213.92C308.92 217.847 308.35 221.457 307.21 224.75C306.07 227.98 304.424 230.767 302.27 233.11C300.117 235.39 297.52 237.163 294.48 238.43C291.504 239.697 288.147 240.33 284.41 240.33C280.737 240.33 277.38 239.697 274.34 238.43C271.364 237.163 268.799 235.39 266.645 233.11C264.492 230.767 262.814 227.98 261.61 224.75C260.407 221.457 259.805 217.847 259.805 213.92C259.805 209.993 260.407 206.415 261.61 203.185C262.877 199.955 264.587 197.2 266.74 194.92C268.957 192.64 271.554 190.867 274.53 189.6C277.57 188.333 280.864 187.7 284.41 187.7C288.02 187.7 291.314 188.333 294.29 189.6C297.33 190.867 299.927 192.64 302.08 194.92C304.234 197.2 305.912 199.955 307.115 203.185C308.319 206.415 308.92 209.993 308.92 213.92ZM294.48 213.92C294.48 209.55 293.594 206.13 291.82 203.66C290.11 201.127 287.64 199.86 284.41 199.86C281.18 199.86 278.679 201.127 276.905 203.66C275.132 206.13 274.245 209.55 274.245 213.92C274.245 218.29 275.132 221.773 276.905 224.37C278.679 226.903 281.18 228.17 284.41 228.17C287.64 228.17 290.11 226.903 291.82 224.37C293.594 221.773 294.48 218.29 294.48 213.92ZM317.51 214.015C317.51 210.405 318.08 207.017 319.22 203.85C320.424 200.62 322.134 197.833 324.35 195.49C326.567 193.083 329.259 191.183 332.425 189.79C335.592 188.397 339.202 187.7 343.255 187.7C345.915 187.7 348.354 187.953 350.57 188.46C352.787 188.903 354.94 189.568 357.03 190.455L354.085 201.76C352.755 201.253 351.299 200.81 349.715 200.43C348.132 200.05 346.359 199.86 344.395 199.86C340.215 199.86 337.08 201.158 334.99 203.755C332.964 206.352 331.95 209.772 331.95 214.015C331.95 218.512 332.9 221.995 334.8 224.465C336.764 226.935 340.152 228.17 344.965 228.17C346.675 228.17 348.512 228.012 350.475 227.695C352.439 227.378 354.244 226.872 355.89 226.175L357.885 237.765C356.239 238.462 354.18 239.063 351.71 239.57C349.24 240.077 346.517 240.33 343.54 240.33C338.98 240.33 335.054 239.665 331.76 238.335C328.467 236.942 325.744 235.073 323.59 232.73C321.5 230.387 319.949 227.632 318.935 224.465C317.985 221.235 317.51 217.752 317.51 214.015ZM384.068 229.12C385.462 229.12 386.792 229.088 388.058 229.025C389.325 228.962 390.338 228.867 391.098 228.74V218.005C390.528 217.878 389.673 217.752 388.533 217.625C387.393 217.498 386.348 217.435 385.398 217.435C384.068 217.435 382.802 217.53 381.598 217.72C380.458 217.847 379.445 218.132 378.558 218.575C377.672 219.018 376.975 219.62 376.468 220.38C375.962 221.14 375.708 222.09 375.708 223.23C375.708 225.447 376.437 226.998 377.893 227.885C379.413 228.708 381.472 229.12 384.068 229.12ZM382.928 187.7C387.108 187.7 390.592 188.175 393.378 189.125C396.165 190.075 398.382 191.437 400.028 193.21C401.738 194.983 402.942 197.137 403.638 199.67C404.335 202.203 404.683 205.022 404.683 208.125V237.575C402.657 238.018 399.838 238.525 396.228 239.095C392.618 239.728 388.248 240.045 383.118 240.045C379.888 240.045 376.943 239.76 374.283 239.19C371.687 238.62 369.438 237.702 367.538 236.435C365.638 235.105 364.182 233.395 363.168 231.305C362.155 229.215 361.648 226.65 361.648 223.61C361.648 220.697 362.218 218.227 363.358 216.2C364.562 214.173 366.145 212.558 368.108 211.355C370.072 210.152 372.32 209.297 374.853 208.79C377.387 208.22 380.015 207.935 382.738 207.935C384.575 207.935 386.19 208.03 387.583 208.22C389.04 208.347 390.212 208.537 391.098 208.79V207.46C391.098 205.053 390.37 203.122 388.913 201.665C387.457 200.208 384.923 199.48 381.313 199.48C378.907 199.48 376.532 199.67 374.188 200.05C371.845 200.367 369.818 200.842 368.108 201.475L366.303 190.075C367.127 189.822 368.14 189.568 369.343 189.315C370.61 188.998 371.972 188.745 373.428 188.555C374.885 188.302 376.405 188.112 377.988 187.985C379.635 187.795 381.282 187.7 382.928 187.7ZM437.433 239.95C433.316 239.887 429.96 239.443 427.363 238.62C424.83 237.797 422.803 236.657 421.283 235.2C419.826 233.68 418.813 231.875 418.243 229.785C417.736 227.632 417.483 225.225 417.483 222.565V167.56L431.638 165.28V219.715C431.638 220.982 431.733 222.122 431.923 223.135C432.113 224.148 432.461 225.003 432.968 225.7C433.538 226.397 434.33 226.967 435.343 227.41C436.356 227.853 437.718 228.138 439.428 228.265L437.433 239.95Z" fill="#E47B37"/>
<path d="M161.527 238.944H25.4756C10.8588 238.944 -0.768569 226.662 0.0397344 212.045L3.47823 161.282L106.98 198.111C107.666 198.362 108.365 198.471 109.065 198.471C111.618 198.471 114.03 196.883 114.934 194.33C116.086 191.093 114.389 187.527 111.153 186.375L4.35067 148.378L9.65919 69.9857C10.4066 56.4883 21.5817 45.9194 35.0951 45.9194H151.905C165.415 45.9194 176.593 56.4883 177.341 69.9857L180.875 122.086L81.579 86.7516C78.3394 85.6001 74.7757 87.2969 73.6242 90.5333C72.4727 93.7697 74.1695 97.3365 77.4059 98.488L181.793 135.628L186.96 212.045C187.771 226.662 176.144 238.944 161.527 238.944Z" fill="#984583"/>
<path d="M94.2776 0C71.9563 0 53.8047 18.1515 53.8047 40.4729H72.4855C72.4855 28.4542 82.2621 18.6808 94.2776 18.6808C106.296 18.6808 116.07 28.4574 116.07 40.4729H134.751C134.751 18.1515 116.602 0 94.2776 0Z" fill="#E47B37"/>
</svg>
