<svg version="1.2" xmlns="http://www.w3.org/2000/svg" viewBox="0 0 1500 1000" width="1500" height="1000">
	<title>12286146_4907368 (1)-ai</title>
	<style>
		.s0 { fill: #602968 } 
		.s1 { fill: #ee9c7f } 
		.s2 { fill: #ffffff } 
		.s3 { fill: #6f9fe7 } 
		.s4 { fill: #e56998 } 
		.s5 { fill: #d55488 } 
		.s6 { fill: #ec9f2f } 
		.s7 { fill: #f6b342 } 
		.s8 { fill: #4886d2 } 
		.s9 { fill: #8f9f4e } 
		.s10 { fill: #a0b162 } 
		.s11 { fill: #776fd7 } 
		.s12 { fill: #978ae9 } 
		.s13 { fill: #cd4d80 } 
		.s14 { fill: #f3a786 } 
		.s15 { fill: #683172 } 
		.s16 { fill: #fba785 } 
		.s17 { fill: #5e1f3c } 
		.s18 { fill: #ec9374 } 
	</style>
	<g id="OBJECTS">
		<g id="&lt;Group&gt;">
			<g id="&lt;Group&gt;">
				<path id="&lt;Compound Path&gt;" class="s0" d="m553.1 820q-25.8-10.1-43.3-28l31-42.1q32 23.3 63.7 23.3 12.3 0 19.7-4.5 7.4-4.6 7.4-12.5 0-7.8-9.3-11.2-9.2-3.3-29.8-5.4-34.8-4-53.4-19.7-18.6-15.8-18.6-45.5 0-22.4 11.1-40.1 11.1-17.8 30.9-27.8 19.9-10 45.1-10 24.3 0 48.1 9.6 23.9 9.5 41.7 27.4l-30.1 40.6q-16-11.2-28.2-15.9-12.1-4.7-30-4.7-13.2 0-20.1 4.1-7 4.1-7 11.7 0 7.2 6.8 10.6 6.8 3.3 21.9 3.9 31.6 0.9 56.9 15.2 25.2 14.2 25.2 49.7 0 23.9-11.9 42.4-11.8 18.5-32.1 28.8-20.3 10.3-44.9 10.3-24.9 0-50.8-10.2z"/>
				<path id="&lt;Compound Path&gt;" fill-rule="evenodd" class="s0" d="m852.9 596.5l80.5 233.4h-73l-12.5-52-73.5-3.3-19.4 55.3h-75.8l108.6-233.4zm-21.9 118.8l-14.2-53.3-19 50.6z"/>
				<path id="&lt;Path&gt;" class="s0" d="m1012.2 766.2l-0.9-169.7h-64l-1.2 233.4 156.2-0.3v-65.6z"/>
				<path id="&lt;Path&gt;" class="s0" d="m1182.4 739.3l83.4-4-2.8-56.6-84 2.8-1.2-26.6 101.5-1.9-3.8-56.5h-163.8l7.4 233.4h163.3v-65.6l-98.7 1.9z"/>
			</g>
			<g id="&lt;Group&gt;">
				<path id="&lt;Path&gt;" class="s1" d="m1254.7 364.9l-1.9 76.2 28.9 65.2c8.3 14.9 20.9 18.3 29.7 15 8.4-3.1 16.7-13.6 12.7-32.8l-39.8-101.9c-4.8-13.8-15.2-18.9-29.6-21.7z"/>
				<path id="&lt;Path&gt;" class="s2" d="m1313.8 453.3l-26.5-67.9c-5.5-15.8-17.7-21.4-35.7-24.3l-2 80.6 16.4 36.9c17.4-5.2 32.5-15.5 47.8-25.3z"/>
				<path id="&lt;Path&gt;" class="s1" d="m1129.8 365.2l1.8 76.2-28.9 65.3c-8.2 14.8-20.8 18.3-29.6 15-8.4-3.1-16.7-13.6-12.7-32.9l39.8-101.9c4.8-13.7 15.2-18.9 29.6-21.7z"/>
				<path id="&lt;Path&gt;" class="s2" d="m1070.7 453.7l26.5-67.9c5.5-15.8 17.7-21.4 35.7-24.4l1.9 80.7-16.3 36.8c-17.4-5.2-32.5-15.4-47.8-25.2z"/>
				<g id="&lt;Group&gt;">
					<path id="&lt;Path&gt;" class="s2" d="m1106.9 752.9c-0.4 9.1 1 18.5 2.2 27.3q0.4 2.4 0.9 4.9c2 10.1 5.5 21.6 11.9 29.8 8 10.1 24.1 14 31.5 1 6.4-11.1 2.4-27.8-2-39 0 0-11.4-38.3-11.4-38.3-1.9-8.3-11-12.7-18.9-11-8.4 1.9-12.2 9.6-13.5 17.5q-0.6 3.8-0.7 7.8z"/>
					<path id="&lt;Path&gt;" class="s0" d="m1137 818c-6.8 0-13.1-4.9-18.2-14.5l0.8-0.5c5.9 11 13 15.6 20.9 13.6 8-2 12-9.1 12.1-21.2l1 0.1c-0.1 12.3-4.5 20-12.8 22.1q-1.9 0.4-3.8 0.4z"/>
					<path id="&lt;Path&gt;" class="s1" d="m1106.1 717.8l5.2 36.5q0.3 1.9 0.9 3.5c3.1-14.2 21.9-14.7 28-3.5l-2.4-38z"/>
				</g>
				<g id="&lt;Group&gt;">
					<path id="&lt;Path&gt;" class="s2" d="m1283.5 752.9c0.3 9.1-1 18.5-2.3 27.3q-0.3 2.4-0.8 4.9c-2 10.1-5.5 21.6-12 29.8-8 10.1-24 14-31.5 1-6.4-11.1-2.3-27.8 2-39 0 0 11.5-38.3 11.5-38.3 1.8-8.3 10.9-12.7 18.8-11 8.4 1.9 12.3 9.6 13.5 17.5q0.7 3.8 0.8 7.8z"/>
					<path id="&lt;Path&gt;" class="s0" d="m1253.3 818q-1.8 0-3.7-0.4c-8.3-2.1-12.8-9.8-12.9-22.1l1-0.1c0.1 12.1 4.2 19.2 12.1 21.2 8 2 15-2.6 20.9-13.6l0.9 0.5c-5.2 9.6-11.4 14.5-18.3 14.5z"/>
					<path id="&lt;Path&gt;" class="s1" d="m1284.2 717.8l-5.2 36.5q-0.2 1.9-0.8 3.5c-3.2-14.2-21.9-14.7-28.1-3.5l2.4-38z"/>
				</g>
				<path id="&lt;Path&gt;" class="s3" d="m1295 536.6l-25.9-8.2-16.7-7.3h-113.3l-16 6.1-26.5 9.4c-23.6 7.3-32.4 25.1-26.9 49.6l30.5 149.7c8.5 7 33.7 3.3 44.2-4.6l-11.9-134.7h55.5 7 64.1l-11.6 132.8c11.9 8.1 23.3 12.2 43.3 6.1l31.1-149.3c5.4-24.5-3.3-42.3-26.9-49.6z"/>
				<path id="&lt;Path&gt;" class="s0" d="m1132 596.7l-4.6-29.8c-0.1-0.1-0.9-4.6-4.1-9.2-4.4-6.2-10.8-9.6-19.1-10.2l0.1-1c10.7 0.7 16.7 6.2 19.8 10.6 3.4 4.8 4.2 9.4 4.2 9.6l4.7 29.8z"/>
				<path id="&lt;Path&gt;" class="s0" d="m1259.4 596.7l-1-0.2 4.7-29.8c0-0.2 0.8-4.8 4.2-9.6 3.1-4.4 9.1-9.9 19.8-10.6l0.1 1c-8.3 0.6-14.7 4-19.1 10.2-3.2 4.6-4 9.1-4.1 9.2z"/>
				<path id="&lt;Path&gt;" class="s0" d="m1193.6 596.6l-2.3-50.1h1l2.3 50.1z"/>
				<path id="&lt;Path&gt;" class="s0" d="m1193.7 586.6l-0.1-0.1-64.1-7.9 0.2-1 63.9 7.9 68.4-14.4 0.2 0.9z"/>
				<path id="&lt;Path&gt;" class="s1" d="m1242.9 363.1c-34.1 36.6-67 32.4-99-0.5l27.5-10.3 0.1-39h41.7l0.5 38.9c2.9 0.7 18 6.7 29.2 10.9z"/>
				<path id="&lt;Path&gt;" class="s2" d="m1124.2 483.2c3.3 14.7 2 30.5-1.1 44 25.8 12.5 99.8 15.8 146 1.2-3-11.7-5.1-29.8-7-41.7-2.5-15.9 13-70.4 16.9-85.8 4.4-13.9 2.6-30.7-14.4-36.9l-50.9-11.8c-9.7 9.9-34.4 9.9-42.3 0.1l-50.1 11.7c-17 6.2-18.9 23-14.4 36.9 3.8 17.1 13.5 65.1 17.3 82.3z"/>
				<path id="&lt;Path&gt;" class="s1" d="m1334.2 388.2c0 0.3-1.6 17.4 3.1 27.4 2.4 6.2 7.2 14.1 15.9 14.9 14.5 1.2 18.9-16.5 19.8-18.6 3.1-7 3-17.5 2.6-23.7 0.2-4.5-3.6-8-9.1-8-1.4-2.8-9.9-3.6-11.5-0.3-2.3-3-10.3-2.5-11.3 0-5.8-0.4-9.3 4.1-9.5 8.3z"/>
				<path id="&lt;Path&gt;" class="s0" d="m1143.9 534.4l-18.1-172.7 9.9-3.2c0.2 0 16 176.9 15.8 177z"/>
				<path id="&lt;Path&gt;" class="s0" d="m1240.9 534.4l19.1-173.3-10.5-3.3c-0.2 0-16.9 177.6-16.7 177.7z"/>
				<path id="&lt;Path&gt;" class="s1" d="m1283.8 509.2c4.7 8.1 13.9 13.4 22.8 13.3 8-0.1 14.8-4.7 19.3-12.8l41-87.4c-8.1-0.8-27.1-14.2-30.1-18.2l-52.6 80.8c-4.6 8-4.8 16.7-0.4 24.3z"/>
				<g id="&lt;Group&gt;">
					<path id="&lt;Path&gt;" class="s4" d="m1253.6 548.4h-77.5c-2.2 0-4-1.8-4-4v-84.1c0-2.2 1.8-4 4-4h77.5c2.2 0 4 1.8 4 4v84.1c0 2.2-1.8 4-4 4z"/>
					<path id="&lt;Path&gt;" class="s5" d="m1151.9 548.4h26.3c2.7 0 5-2.3 5-5.1v-81.9c0-2.8-2.3-5.1-5-5.1h-26.3c-2.8 0-5.1 2.3-5.1 5.1v81.9c0 2.8 2.3 5.1 5.1 5.1z"/>
				</g>
				<g id="&lt;Group&gt;">
					<path id="&lt;Path&gt;" class="s6" d="m1142 404.3h64.1c3 0 5.4 2.4 5.4 5.4v41.3c0 2.9-2.4 5.3-5.4 5.3h-64.1c-3 0-5.4-2.4-5.4-5.3v-41.3c0-3 2.4-5.4 5.4-5.4z"/>
					<path id="&lt;Path&gt;" class="s7" d="m1218.1 404.3h-47.2c-3.4 0-6.1 2.7-6.1 6v40c0 3.3 2.7 6 6.1 6h47.2c3.3 0 6-2.7 6-6v-40c0-3.3-2.7-6-6-6z"/>
					<path id="&lt;Path&gt;" class="s3" d="m1200.3 456.3h-10.5v-52h10.5z"/>
					<path id="&lt;Path&gt;" class="s3" d="m1164.8 435.6v-10.6h59.3v10.6z"/>
					<path id="&lt;Path&gt;" class="s8" d="m1164.8 435.6v-10.6h-28.2v10.6z"/>
				</g>
				<g id="&lt;Group&gt;">
					<path id="&lt;Path&gt;" class="s9" d="m1141.1 548.4h84.3c3.3 0 5.9 2.6 5.9 5.8v36.5c0 3.3-2.6 5.9-5.9 5.9h-84.3c-3.2 0-5.9-2.6-5.9-5.9v-36.5c0-3.2 2.7-5.8 5.9-5.8z"/>
					<path id="&lt;Path&gt;" class="s10" d="m1240.9 548.4h-62.9c-3.6 0-6.6 2.9-6.6 6.6v35c0 3.7 3 6.6 6.6 6.6h62.9c3.6 0 6.6-2.9 6.6-6.6v-35c0-3.7-3-6.6-6.6-6.6z"/>
				</g>
				<path id="&lt;Path&gt;" class="s1" d="m1060.3 488.2c-3.8 8.5-2.7 19 2.5 26.2 4.8 6.4 12.5 9.3 21.7 8.2l92.8-19.3c-4.1-7.1-2.7-26.1-1.2-30.8l-95.8 1.8c-9.2 0.9-16.4 5.8-20 13.9z"/>
				<g id="&lt;Group&gt;">
					<path id="&lt;Path&gt;" class="s1" d="m1159 490.7c2.1 14.9 12.7 15.7 23.3 15.7 10.6 0 39.2-6.2 39.2-6.2 7.2-1.7 6-7.6 3.8-7.5-1 0.2 4-0.8 5-1 8.9-2.4 5.6-8.9 1.8-8.9 7.2-0.7 7-8.6 2.4-8.5 5-1.1 4.5-8.3-3.1-8.1-4.3-0.3-39.4 3.4-39.4 3.4-0.1-3.2 13.5-4.3 13.9-12.2-0.1-0.8-0.8-1.1-1.5-1.1-20.3 4.1-30.3 12.4-34.1 14.9-5.6 3.9-12.5 10.5-11.3 19.5z"/>
					<path id="&lt;Path&gt;" class="s0" d="m1204.2 495.8l-0.1-1 20.9-2.2 0.1 1z"/>
					<path id="&lt;Path&gt;" class="s0" d="m1204.6 487.5l-0.2-1 27.6-4 0.1 0.9z"/>
					<path id="&lt;Path&gt;" class="s0" d="m1203.8 478.5l-0.2-1 30.7-3.8 0.1 1z"/>
					<path id="&lt;Path&gt;" class="s0" d="m1169.7 505.3c-5.6-1.4-8.6-6.5-8.8-6.7l0.9-0.5c0 0 3 4.9 8.2 6.2z"/>
				</g>
				<g id="&lt;Group&gt;">
					<path id="&lt;Path&gt;" class="s0" d="m1326.4 417.7l-1-0.2c0.1-0.3 6.8-33.9 30.9-34q0.1 0 0.2 0c5.4 0 9.2 1.7 11.3 5.1 5.9 9.4-3.5 28.2-3.9 29l-0.9-0.4c0.1-0.2 9.5-19.1 4-28.1-1.9-3.1-5.5-4.6-10.5-4.6q-0.1 0-0.2 0c-9.7 0-17.7 5.6-23.7 16.6-4.6 8.2-6.2 16.5-6.2 16.6z"/>
					<path id="&lt;Path&gt;" class="s11" d="m1326.5 582.9l-4.7-172.9-20.4 0.1-9.3 166c-0.3 3.8 3.6 6.9 8.3 6.9z"/>
					<path id="&lt;Path&gt;" class="s12" d="m1418.9 582.4l-93.6 0.5c-4 0-7.2-3.5-7.3-7.9l-0.7-164.9 98.6-0.5 9.5 165c0.3 4.2-2.7 7.8-6.5 7.8z"/>
					<path id="&lt;Path&gt;" class="s0" d="m1351.9 417.5c0 1.8-1.5 3.3-3.3 3.4-1.9 0-3.4-1.5-3.4-3.4 0-1.9 1.5-3.4 3.3-3.4 1.9 0 3.4 1.5 3.4 3.4z"/>
					<path id="&lt;Path&gt;" class="s0" d="m1389.8 417.2c0 1.9-1.5 3.4-3.4 3.4-1.8 0-3.3-1.5-3.4-3.3 0-1.9 1.5-3.4 3.4-3.4 1.9 0 3.4 1.5 3.4 3.3z"/>
					<path id="&lt;Path&gt;" class="s0" d="m1348.4 417.7c-0.4-0.8-9.9-19.5-4.2-28.9 2.1-3.5 6-5.3 11.5-5.3q0 0 0.1 0c24.1 0 31 33.4 31.1 33.7l-1 0.2c0-0.1-1.7-8.4-6.3-16.6-6.1-10.8-14.1-16.3-23.8-16.3q-0.1 0-0.1 0c-5.2 0-8.7 1.6-10.6 4.8-5.5 9 4.1 27.8 4.2 28z"/>
				</g>
				<path id="&lt;Path&gt;" class="s1" d="m1335.1 387c0 0.2-1.6 8.1 3 12.8 2.3 2.9 31.3 3.5 34.1-1.7 3-3.3 2.9-8.2 2.5-11.1 0.6-6.7-39.1-6.4-39.6 0z"/>
				<path id="&lt;Path&gt;" class="s0" d="m1360.7 404.8c-2.2 0-4.2-1.1-5.8-3-1.4 1.9-4.4 3-7.2 2.5-2.4-0.3-3.9-1.7-4.4-3.8-2.5 0.4-4.6 0-6-1.2-2.4-2-2.2-5.6-2.2-5.7h1c0 0.1-0.2 3.2 1.9 4.9q1.9 1.7 5.6 0.9 0.2 0 0.4 0.1 0.2 0.1 0.2 0.3c0.3 2.6 2.4 3.4 3.6 3.6 2.7 0.4 5.7-0.8 6.6-2.7 0.1-0.2 0.3-0.3 0.4-0.3 0.2 0 0.4 0.1 0.5 0.2 1.8 2.6 4.3 3.6 6.8 3 2.1-0.5 3.7-2.1 3.9-3.9q0.1-0.2 0.3-0.3c0.1-0.1 0.3-0.1 0.5 0q2.8 1.5 4.5 0.5c2.7-1.7 2.6-7.8 2.6-7.8l1-0.1c0 0.3 0.1 6.8-3.1 8.7q-2 1.2-4.9-0.2c-0.6 1.9-2.3 3.5-4.6 4.1q-0.8 0.2-1.6 0.2z"/>
				<path id="&lt;Path&gt;" class="s0" d="m1344.2 400.9h-1v-21h1z"/>
				<path id="&lt;Path&gt;" class="s0" d="m1367 400.9h-1v-21h1z"/>
				<path id="&lt;Path&gt;" class="s0" d="m1355.5 400.9h-1v-21h1z"/>
				<path id="&lt;Path&gt;" class="s0" d="m1085.9 482.3l-0.9-0.4c0.1-0.4 3.6-8.5 19.8-8.7v1c-15.5 0.2-18.8 8-18.9 8.1z"/>
				<g id="&lt;Group&gt;">
					<path id="&lt;Path&gt;" class="s6" d="m1165.8 574.5h72.8c2 0 3.7 1.6 3.7 3.6v14.9c0 2-1.7 3.6-3.7 3.6h-72.8c-2 0-3.6-1.6-3.6-3.6v-14.9c0-2 1.6-3.6 3.6-3.6z"/>
					<path id="&lt;Path&gt;" class="s7" d="m1251.7 574.5h-55.3c-2.2 0-4 1.8-4 4.1v13.9c0 2.3 1.8 4.1 4 4.1h55.3c2.2 0 4-1.8 4-4.1v-13.9c0-2.3-1.8-4.1-4-4.1z"/>
				</g>
				<path id="&lt;Path&gt;" class="s0" d="m1121.7 473.8l-12.5-59.8 1-0.2 12.5 59.8z"/>
				<path id="&lt;Path&gt;" class="s0" d="m1263.1 472.6l-1-0.2 11.6-62.9 1 0.2z"/>
				<g id="&lt;Group&gt;">
					<path id="&lt;Path&gt;" class="s0" d="m1193.3 336.5l-2.1-0.2c-23.9 0-43.4-15.2-43.4-39.5v-25.4c0-24.3 19.5-44.2 43.4-44.2h2.1c23.9 0 43.4 19.9 43.4 44.2v25.4c0 24.3-19.5 39.7-43.4 39.7z"/>
					<path id="&lt;Path&gt;" class="s1" d="m1192.3 343.1c-22.3 0-40.6-18.3-40.6-40.6v-37.9c0-15.6 12.8-28.4 28.5-28.4h21c17.5 0 31.8 14.3 31.8 31.7v34.6c0 22.3-18.3 40.6-40.7 40.6z"/>
					<path id="&lt;Path&gt;" class="s1" d="m1166.7 303.7c0 7.2-5.5 13.1-12.3 13.1-12.1 5.4-25.8-30.2-7.3-31.1 6.8 0 19.6 10.7 19.6 18z"/>
					<g id="&lt;Group&gt;">
						<path id="&lt;Path&gt;" class="s0" d="m1152.3 309.6c-7.8-0.7-9.9-10.5-9.8-14 0.1-1.8 1.1-3.4 2.6-4.2 1.8-0.9 4-0.6 6 0.8l-0.5 0.8c-1.8-1.2-3.6-1.5-5-0.7-1.3 0.6-2 1.9-2.1 3.4-0.1 3.2 1.8 12.3 8.9 12.9z"/>
						<path id="&lt;Path&gt;" class="s0" d="m1145.7 304.7l-0.7-0.7c0 0 3-3.3 7.2-0.9l-0.5 0.9c-3.5-2-5.9 0.6-6 0.7z"/>
					</g>
					<path id="&lt;Path&gt;" class="s1" d="m1217.8 303.7c0 7.2 5.4 13.1 12.2 13.1 12.2 5.4 25.9-30.2 7.3-31.1-6.8 0-19.5 10.7-19.5 18z"/>
					<g id="&lt;Group&gt;">
						<path id="&lt;Path&gt;" class="s0" d="m1232.2 309.6l-0.1-1c7-0.6 8.9-9.7 8.8-12.9 0-1.5-0.8-2.8-2-3.4-1.4-0.8-3.3-0.5-5 0.7l-0.6-0.8c2.1-1.4 4.3-1.7 6.1-0.8 1.5 0.8 2.5 2.4 2.5 4.2 0.1 3.5-2 13.3-9.7 14z"/>
						<path id="&lt;Path&gt;" class="s0" d="m1238.7 304.7c-0.1-0.1-2.5-2.7-5.9-0.7l-0.5-0.9c4.1-2.4 7.1 0.9 7.2 0.9z"/>
					</g>
					<path id="&lt;Path&gt;" class="s0" d="m1151.7 296.8c0 0 5.8-3.5 6.2-12 0.4-8.6-0.5-20.4-0.5-20.4l-5.8 2.9v7.8z"/>
					<path id="&lt;Path&gt;" class="s0" d="m1233 296.9c0 0-5.9-3.5-6.2-12-0.4-8.6 0.5-20.4 0.5-20.4l5.8 2.9v7.8z"/>
					<path id="&lt;Path&gt;" class="s0" d="m1164.4 263.3c0 0 24.4 11.1 40.4 10.1 16.1-0.9 22.1-8.7 22.1-8.7z"/>
					<path id="&lt;Path&gt;" class="s4" d="m1236.7 272.6c-29.7-7.9-59.4-7.9-88.9 0 0 0-1.9-15.1 0-18.8 9.5-10.8 78.8-11.3 88.9 0 1.5 3 0 18.8 0 18.8z"/>
					<path id="&lt;Path&gt;" class="s4" d="m1235.2 253.3c0 0-9.4-31.3-42.1-32.1q-0.4 0-0.8 0-0.3 0-0.7 0c-32.7 0.8-42.1 32.1-42.1 32.1l42.8-1.1z"/>
					<path id="&lt;Path&gt;" class="s0" d="m1234.4 252.5c-28.9-8.6-57.2-8.6-84.3 0l-0.3-0.9c27.3-8.7 55.8-8.7 84.9 0z"/>
					<path id="&lt;Path&gt;" class="s13" d="m1192.5 263.4h-1v-14.5h1z"/>
					<path id="&lt;Path&gt;" class="s13" d="m1185.8 263.4h-1v-14.5h1z"/>
					<path id="&lt;Path&gt;" class="s13" d="m1179.2 263.8h-1v-14.5h1z"/>
					<path id="&lt;Path&gt;" class="s13" d="m1172.6 264.4h-1v-14.5h1z"/>
					<path id="&lt;Path&gt;" class="s13" d="m1165.9 265.8h-1v-14.5h1z"/>
					<path id="&lt;Path&gt;" class="s13" d="m1159.3 267.4h-1v-14.5h1z"/>
					<path id="&lt;Path&gt;" class="s13" d="m1152.6 269h-1v-14.4h1z"/>
					<path id="&lt;Path&gt;" class="s13" d="m1232.4 268.8h-1v-14.5h1z"/>
					<path id="&lt;Path&gt;" class="s13" d="m1225.7 267.2h-1v-14.5h1z"/>
					<path id="&lt;Path&gt;" class="s13" d="m1219.1 266.1h-1v-14.5h1z"/>
					<path id="&lt;Path&gt;" class="s13" d="m1212.4 264.7h-1v-14.5h1z"/>
					<path id="&lt;Path&gt;" class="s13" d="m1205.8 264h-1v-14.5h1z"/>
					<path id="&lt;Path&gt;" class="s13" d="m1199.2 263.8h-1v-14.5h1z"/>
					<path id="&lt;Path&gt;" class="s0" d="m1191.7 343.3c-7.3 0-14.4-1.9-20.6-5.8l0.6-0.9c12 7.6 27.6 7.6 41.6 0l0.5 0.9c-7.2 3.9-14.7 5.8-22.1 5.8z"/>
					<g id="&lt;Group&gt;">
						<path id="&lt;Path&gt;" class="s0" d="m1176.2 297.3c0 1.2-1 2.2-2.2 2.2-1.3 0-2.2-1-2.2-2.2 0-1.2 0.9-2.2 2.2-2.2 1.2 0 2.2 1 2.2 2.2z"/>
						<path id="&lt;Path&gt;" class="s0" d="m1212.7 297.3c0 1.2-1 2.2-2.2 2.2-1.2 0-2.2-1-2.2-2.2 0-1.2 1-2.2 2.2-2.2 1.2 0 2.2 1 2.2 2.2z"/>
						<path id="&lt;Path&gt;" class="s0" d="m1180.5 285.6c0 1.4-13 1.4-13 0 0-1.5 2.9-2.7 6.5-2.7 3.5 0 6.5 1.2 6.5 2.7z"/>
						<path id="&lt;Path&gt;" class="s0" d="m1217 285.6c0 1.4-13 1.4-13 0 0-1.5 2.9-2.7 6.5-2.7 3.6 0 6.5 1.2 6.5 2.7z"/>
						<path id="&lt;Path&gt;" class="s2" d="m1180.6 312.3c5.3 9.1 18 9.1 23.5 0q-11.8 1.7-23.5 0z"/>
						<path id="&lt;Path&gt;" class="s0" d="m1196.3 304h-1.8c-2.4 0-4.4-2-4.4-4.5v-9.8h1v9.8c0 1.9 1.5 3.5 3.4 3.5h1.8z"/>
						<path id="&lt;Compound Path&gt;" fill-rule="evenodd" class="s2" d="m1180.7 303h-14.6c-3.5 0-6.4-2.8-6.4-6.3v-0.4c0-3.6 2.9-6.4 6.4-6.4h14.6c3.6 0 6.4 2.8 6.4 6.4v0.4c0 3.5-2.8 6.3-6.4 6.3zm-14.6-12.1c-3 0-5.4 2.4-5.4 5.4v0.4c0 2.9 2.4 5.3 5.4 5.3h14.6c3 0 5.4-2.4 5.4-5.3v-0.4c0-3-2.4-5.4-5.4-5.4z"/>
						<path id="&lt;Compound Path&gt;" fill-rule="evenodd" class="s2" d="m1218.4 303h-14.7c-3.5 0-6.4-2.8-6.4-6.3v-0.4c0-3.6 2.9-6.4 6.4-6.4h14.7c3.5 0 6.3 2.8 6.3 6.4v0.4c0 3.5-2.8 6.3-6.3 6.3zm-14.7-12.1c-3 0-5.4 2.4-5.4 5.4v0.4c0 2.9 2.4 5.3 5.4 5.3h14.7c2.9 0 5.3-2.4 5.3-5.3v-0.4c0-3-2.4-5.4-5.3-5.4z"/>
						<path id="&lt;Path&gt;" class="s2" d="m1197.8 294.9c-3.9-3-7.5-3-11.1 0l-0.7-0.8c4-3.2 8.1-3.2 12.4 0z"/>
						<path id="&lt;Path&gt;" class="s0" d="m1208.3 311c0 3.7-33.4 3.7-33.4 0 0-3.7 7.5-6.7 16.7-6.7 9.2 0 16.7 3 16.7 6.7z"/>
					</g>
				</g>
			</g>
			<g id="&lt;Group&gt;">
				<path id="&lt;Path&gt;" class="s1" d="m362.9 306.4l-7.9 68.7 20.7 61.4c6.3 14.1 17.4 18.3 25.6 16 7.8-2.1 18.5-7.5 13.3-28.7l-26.7-95.4c-3.2-12.8-12.2-18.3-25-22z"/>
				<path id="&lt;Path&gt;" class="s1" d="m252.6 304.3l14.7 67.6-14.6 63.2c-4.8 14.6-15.4 19.9-23.9 18.5-7.9-1.4-19.7-7-16.9-27.2l18-97.7c1.9-13 10.3-19.4 22.7-24.4z"/>
				<path id="&lt;Path&gt;" class="s2" d="m273.4 790c0 0 3 13.5 6.8 16.9 3.8 3.4 19.9 8.2 18.7 23.3h-50.5c0 0-6-0.2-6-5.6 0-5.5 2.1-18 3.6-30.6 5.3-7 20.3-8.8 27.4-4z"/>
				<path id="&lt;Path&gt;" class="s2" d="m350 792.9c6.6 1 5.9 13.3 20.6 16.8 17.9 3.6 28.8 10 29 16.9-0.2 1.5 0.5 2.7-0.3 3.6h-73.9c-3.1 0-5.5-2.5-5.5-5.5 0.1-7.8 3.8-26.2 3.8-26.2l2.5-3.7c2.6 4.3 20.5 7.8 23.8-1.9z"/>
				<path id="&lt;Path&gt;" class="s0" d="m335.4 172.8c-13.3-3.6-28.1-3.1-41 2.6-13.8 6.2-22.6 18.4-30 32.5-6.7 12.6-13.7 25.1-20.9 37.3-11.9 20-18.4 48-7.3 70.8-4.1 35.8 97.8-4.5 97.8-4.5 0 0 15.9 29.4 28.8 10.4 25.5-27.4-4.3-88.9-4.3-88.9 3-32.6-2.5-54.2-23.1-60.2z"/>
				<path id="&lt;Path&gt;" class="s14" d="m274.1 290.9c23.4 12.5 48.4 20.2 82.1 2.4l-22.2-8.6v-50.9h-40.8v51z"/>
				<path id="&lt;Path&gt;" class="s4" d="m283.2 807.4c3.5-2.9 26.4-279.1 26.4-279.1l3.6-2 26.2 120.3c0 0-20.7 159-18.9 160.8 3.2 3.2 37.1-0.1 39.7-3.1 1.5-1.8 36.2-84.1 36.7-159.4 0.3-46.3-8.1-99.8-19.8-147.4-4.4-20.6-12-39.6-24.2-56.1h-85.7c0 0-26.5 24.1-27.7 96.8 0 0-9.7 172.8 4.7 267.1 3.3 3.1 35.5 5.1 39 2.1z"/>
				<path id="&lt;Path&gt;" class="s2" d="m250.4 468.3c22.3 7 93.6 6.6 119.1 0l-5.9-78.5 42.7-8.7c0 0-13.6-48.8-18.8-61.6-4.7-12.5-14.3-20.1-28.2-25.6l-13.4-4.7c-4.5 9.7-40.6 14.6-65.9-0.4l-19.5 5c-15.5 4.9-25.3 9-30.2 22.2-6.8 17.5-10.9 41.2-14.1 67.2l42.9 7.8z"/>
				<path id="&lt;Path&gt;" class="s15" d="m271.9 248c-2.9-15.6 9.3-22.9 9.4-23l0.5 0.9c-0.1 0-11.7 7-8.9 21.9z"/>
				<path id="&lt;Path&gt;" class="s0" d="m309.8 528.6l-0.4-0.9 22.9-12.1 0.5 0.9z"/>
				<path id="&lt;Path&gt;" class="s0" d="m364 390.1l-0.9-0.5c0.1-0.2 8.9-18.6 3.3-39-1.7-5.8-3.6-12.3-5.8-19.2l0.9-0.3c2.2 6.9 4.2 13.4 5.8 19.3 5.7 20.7-3.2 39.5-3.3 39.7z"/>
				<path id="&lt;Path&gt;" class="s0" d="m259.2 390.1c-0.1-0.2-9-19-3.3-39.7 1.7-5.9 3.6-12.4 5.8-19.3l1 0.3c-2.2 6.9-4.2 13.4-5.8 19.2-5.6 20.4 3.1 38.8 3.2 39z"/>
				<path id="&lt;Path&gt;" class="s15" d="m281.2 276.6c-11-11.1-15.9-24.7-13.5-37.3l1 0.1c-2.4 12.4 2.5 25.7 13.2 36.5z"/>
				<path id="&lt;Path&gt;" class="s1" d="m228.3 417.6c7.3-0.2 14.7 3.8 18.2 9.8 3.3 5.4 7.7 6.6 4 13l-50 71.5c-3.9-5.2-22.6-11.6-26.4-12l38-74.8c3.5-6.4 9.3-7.3 16.2-7.5z"/>
				<g id="&lt;Group&gt;">
					<g id="&lt;Group&gt;">
						<path id="&lt;Path&gt;" class="s0" d="m169.9 552.6l-0.7-0.8c0.2-0.1 16.3-13.8 14.8-24.2-0.6-3.6-3.3-6.5-8-8.5-9-3.8-18.6-1.8-28.4 5.9-7.4 5.8-12.2 12.8-12.2 12.9l-0.8-0.6c0.2-0.3 19.5-28.5 41.8-19.1 5.1 2.2 7.9 5.3 8.5 9.3 1.7 10.9-14.3 24.5-15 25.1z"/>
						<path id="&lt;Path&gt;" class="s9" d="m70.4 689.7l63.8-160.7-18.8-7.9-74 148.8c-1.7 3.4 0.6 7.8 5 9.7z"/>
						<path id="&lt;Path&gt;" class="s10" d="m155.4 725.7l-86.1-36.5c-3.7-1.5-5.3-6-3.6-10.1l64.4-151.8 90.8 38.4-56.4 155.4c-1.4 4-5.6 6.1-9.1 4.6z"/>
						<path id="&lt;Path&gt;" class="s0" d="m158.9 547.7c-0.7 1.7-2.7 2.5-4.4 1.8-1.7-0.7-2.5-2.7-1.8-4.4 0.8-1.7 2.7-2.5 4.4-1.8 1.8 0.7 2.6 2.7 1.8 4.4z"/>
						<path id="&lt;Path&gt;" class="s0" d="m193.8 562.4c-0.7 1.8-2.7 2.6-4.4 1.8-1.7-0.7-2.5-2.7-1.8-4.4 0.8-1.7 2.7-2.5 4.4-1.8 1.8 0.8 2.6 2.7 1.8 4.4z"/>
						<path id="&lt;Path&gt;" class="s0" d="m191.2 561.3l-1-0.2c0-0.1 1.7-8.4 0.7-17.7-1.3-12.5-6.5-20.7-15.5-24.5-4.7-2-8.7-1.9-11.6 0.2-8.6 6.1-7.2 27.2-7.2 27.4l-1 0.1c0-0.9-1.4-21.9 7.6-28.3 3.3-2.3 7.5-2.4 12.6-0.3 22.2 9.4 15.5 42.9 15.4 43.3z"/>
					</g>
					<g id="&lt;Group&gt;">
						<path id="&lt;Path&gt;" class="s0" d="m145.7 564.5l-1-0.1c0-0.4 3.3-37.1 29.1-40.1 5.9-0.6 10.2 0.8 12.9 4.2 7.3 9.4-0.5 30.6-0.8 31.5l-1-0.3c0.1-0.2 8-21.6 1-30.6-2.4-3.1-6.4-4.4-12-3.8-25 2.9-28.2 38.8-28.2 39.2z"/>
						<path id="&lt;Path&gt;" class="s11" d="m165 741.5l-25.1-184.7-21.8 2.5 9.2 178.9c0.1 4.1 4.6 7.1 9.7 6.5z"/>
						<path id="&lt;Path&gt;" class="s12" d="m263.9 730.3l-100.3 11.4c-4.2 0.4-8.1-3-8.6-7.7l-19.9-176.7 105.6-11.9 29.3 175.8c0.8 4.5-2 8.6-6.1 9.1z"/>
						<path id="&lt;Path&gt;" class="s0" d="m173 561.3c0.3 2-1.2 3.7-3.2 4-2 0.2-3.8-1.2-4-3.2-0.2-2 1.2-3.8 3.2-4 2-0.3 3.8 1.2 4 3.2z"/>
						<path id="&lt;Path&gt;" class="s0" d="m213.6 556.6c0.2 2-1.2 3.8-3.2 4-2 0.3-3.8-1.2-4-3.2-0.2-2 1.2-3.8 3.2-4 2-0.2 3.8 1.2 4 3.2z"/>
						<path id="&lt;Path&gt;" class="s0" d="m169.3 561.9c-0.5-0.8-12.9-19.7-7.8-30.5 1.8-3.9 5.7-6.3 11.6-6.9 25.9-3 37.3 32.1 37.4 32.4l-1 0.3c-0.1-0.3-11.2-34.5-36.3-31.7-5.5 0.6-9.1 2.7-10.8 6.3-4.8 10.3 7.7 29.4 7.8 29.6z"/>
					</g>
					<g id="&lt;Group&gt;">
						<path id="&lt;Path&gt;" class="s0" d="m175.8 554.2l-0.8-0.7c0.2-0.1 13.7-16.4 10.3-26.4-1.2-3.5-4.3-5.8-9.3-7-9.5-2.1-18.6 1.5-26.9 10.7-6.3 7-9.8 14.8-9.8 14.8l-1-0.4c0.2-0.3 14.4-31.5 37.9-26 5.4 1.2 8.8 3.8 10.1 7.6 3.5 10.5-9.9 26.7-10.5 27.4z"/>
						<path id="&lt;Path&gt;" class="s6" d="m110.5 679.1l26.1-142-19.9-4.6-38.1 132.1c-1.2 3.6 1.8 7.6 6.5 8.7z"/>
						<path id="&lt;Path&gt;" class="s7" d="m200.5 699.8l-91.2-21c-3.9-0.9-6.2-5-5.2-9.3l28.1-133.4 96.1 22.1-19.6 135.5c-0.7 4.2-4.5 7-8.2 6.1z"/>
						<path id="&lt;Path&gt;" class="s0" d="m162.9 551c-0.3 1.1-1.4 1.8-2.5 1.5-1.1-0.2-1.8-1.3-1.6-2.5 0.3-1.1 1.4-1.8 2.5-1.5 1.2 0.2 1.9 1.3 1.6 2.5z"/>
						<path id="&lt;Path&gt;" class="s0" d="m199.8 558.8c-0.2 1.1-1.4 1.8-2.5 1.6-1.1-0.3-1.8-1.4-1.5-2.5 0.2-1.2 1.3-1.9 2.5-1.6 1.1 0.3 1.8 1.4 1.5 2.5z"/>
						<path id="&lt;Path&gt;" class="s0" d="m198.3 559h-1c0-0.1 0.2-8.6-2.4-17.6-3.4-12-10-19.2-19.5-21.4-5-1.1-8.9-0.4-11.4 2.2-7.4 7.5-2.4 28.1-2.3 28.3l-1 0.2c-0.2-0.9-5.2-21.3 2.5-29.2 2.9-2.8 7-3.7 12.4-2.4 23.5 5.4 22.7 39.6 22.7 39.9z"/>
					</g>
				</g>
				<path id="&lt;Path&gt;" class="s1" d="m192.2 534.3c8 1.7 11.3-11.3 8.8-25.9 0.5-5.8-0.8-11.3-7.5-15.3-11-6.7-21.5 5.7-23 7-5.3 4.5-10.7 12.2-11.4 18-0.8 4.8-0.2 7.8 4.1 9.9 0.1 2.8 6.5 6.8 9.2 4.8 0.6 3.3 7.2 6 9 4.4 4.5 2.6 8.2-0.6 10.8-2.9z"/>
				<path id="&lt;Path&gt;" class="s0" d="m181.8 537.2l-1-0.1c0.6-6.1 2.8-10.6 6.8-13.7l0.6 0.8c-3.8 2.9-5.9 7.2-6.4 13z"/>
				<path id="&lt;Path&gt;" class="s0" d="m163.6 528.3l-1-0.1c0.2-5.9 2.4-10.2 6.4-13.1l0.6 0.8c-3.8 2.7-5.8 6.8-6 12.4z"/>
				<path id="&lt;Path&gt;" class="s0" d="m171.9 532.8c-0.3-6.1 1.8-10.5 6.6-13.5l0.5 0.8c-4.4 2.8-6.4 7-6.1 12.7z"/>
				<path id="&lt;Path&gt;" class="s0" d="m192.7 534.3h-1c0-1.7 0.3-4.2 2.1-5.6l0.7 0.7c-1.2 1-1.8 2.5-1.8 4.9z"/>
				<path id="&lt;Path&gt;" class="s0" d="m201.8 510.7l-1-0.1c0-0.1 0.4-4.4-1.4-7.7l0.9-0.5c2 3.6 1.6 8.1 1.5 8.3z"/>
				<path id="&lt;Path&gt;" class="s0" d="m252 499.5l-0.2-1c0.2 0 18-4.7 21.9-19.8l1 0.3c-4.1 15.7-22.5 20.5-22.7 20.5z"/>
				<g id="&lt;Group&gt;">
					<path id="&lt;Path&gt;" class="s14" d="m323.3 269.9c-16.6 0-30.1-13.5-30.1-30.1v-22.5c0-16.6 13.5-30.1 30.1-30.1 16.5 0 30.1 13.5 30.1 30.1v22.5c0 16.6-13.6 30.1-30.1 30.1z"/>
					<path id="&lt;Path&gt;" class="s0" d="m323.3 270.4c-8.8 0-17.1-3.8-23-10.4l0.8-0.6c5.6 6.4 13.7 10 22.2 10 3.6 0 7.1-0.6 10.5-1.9l0.4 0.9c-3.5 1.4-7.2 2-10.9 2z"/>
					<path id="&lt;Path&gt;" class="s0" d="m293.1 220.5c15.6-4.9 29.7-13.7 42.1-27.1 7.5 1.9 15.3 8.2 17.5 17.3l3.4-13.7-4.5-11.8-20.6-7.4-21.2 1.2-14.6 10.7-7.6 15.7z"/>
					<path id="&lt;Path&gt;" class="s15" d="m335.5 193.7l-0.7-0.7c3.8-3.6 7.2-7.4 10-11.3l0.8 0.6c-2.9 3.9-6.3 7.8-10.1 11.4z"/>
					<path id="&lt;Path&gt;" class="s15" d="m290.3 220.2l-0.4-0.9c0.2-0.1 17.9-7.5 27.1-20.8l0.8 0.6c-9.3 13.5-27.3 21-27.5 21.1z"/>
					<g id="&lt;Group&gt;">
						<path id="&lt;Path&gt;" class="s14" d="m294.3 221.5c-0.3 0-4.1-5.7-9.1-2.1-8 5.8-0.3 22.7 8.3 20.8 8.7-3.5 0.8-18.7 0.8-18.7z"/>
						<path id="&lt;Path&gt;" class="s0" d="m289.4 236.2c-4.3-3-5.7-8.5-4.2-11.5 0.9-1.9 2.8-2.5 5.3-1.7l-0.3 0.9c-2-0.6-3.4-0.2-4.1 1.2-1.3 2.6 0.1 7.6 3.9 10.3z"/>
						<path id="&lt;Path&gt;" class="s0" d="m291.8 233c0 0-2.2-2.6-6.3-2.6v-1c4.5 0 7 2.8 7.1 3z"/>
					</g>
					<path id="&lt;Path&gt;" class="s2" d="m292.3 243.6c0 1.5-1.2 2.6-2.6 2.6-1.4 0-2.6-1.1-2.6-2.6 0-1.4 2.6-5.9 2.6-5.9 0 0 2.6 4.5 2.6 5.9z"/>
					<g id="&lt;Group&gt;">
						<path id="&lt;Path&gt;" class="s2" d="m323.1 242.2c1.7 3.9 10.5 6.2 14.5-0.2z"/>
						<path id="&lt;Path&gt;" class="s0" d="m316.7 226.6c0 1.3-1 2.3-2.3 2.3-1.2 0-2.3-1-2.3-2.3 0-1.2 1.1-2.3 2.3-2.3 1.3 0 2.3 1.1 2.3 2.3z"/>
						<path id="&lt;Path&gt;" class="s0" d="m345.2 226.6c0 1.3-1 2.3-2.3 2.3-1.2 0-2.2-1-2.2-2.3 0-1.2 1-2.3 2.2-2.3 1.3 0 2.3 1.1 2.3 2.3z"/>
						<path id="&lt;Path&gt;" class="s0" d="m309.6 219.6l-0.3-1c3.6-1.2 6.6-1.2 9.2 0l-0.4 0.9c-2.4-1.1-5.2-1.1-8.5 0.1z"/>
						<path id="&lt;Path&gt;" class="s0" d="m309.2 226.2l-0.3-1c4-1.2 7.4-1.2 10.4 0l-0.4 1c-2.8-1.2-5.9-1.2-9.7 0z"/>
						<path id="&lt;Path&gt;" class="s0" d="m337.5 226.2l-0.3-1c4-1.2 7.4-1.2 10.3 0l-0.4 1c-2.7-1.2-5.8-1.2-9.6 0z"/>
						<path id="&lt;Path&gt;" class="s0" d="m338.7 219.6l-0.3-1c3.5-1.2 6.5-1.2 9.2 0l-0.5 0.9c-2.3-1.1-5.1-1.1-8.4 0.1z"/>
						<path id="&lt;Path&gt;" class="s0" d="m330.5 249.3q-1.6 0-3.2-0.4l0.2-1q3 0.8 5.7 0l0.2 1q-1.4 0.4-2.9 0.4z"/>
						<path id="&lt;Path&gt;" class="s0" d="m331 238.3h-2.7v-1h2.7c1.1 0 2.1-0.5 2.7-1.3 0.7-0.7 1-1.8 0.9-2.8l-1.8-13.4 1-0.1 1.8 13.4c0.2 1.3-0.2 2.6-1.1 3.6-0.9 1-2.1 1.6-3.5 1.6z"/>
					</g>
				</g>
				<g id="&lt;Group&gt;">
					<path id="&lt;Path&gt;" class="s3" d="m372.5 460.9h-77.5c-2.3 0-4-1.8-4-4v-84.1c0-2.2 1.7-4 4-4h77.5c2.2 0 4 1.8 4 4v84.1c0 2.2-1.8 4-4 4z"/>
					<path id="&lt;Path&gt;" class="s8" d="m270.7 460.9h26.3c2.8 0 5.1-2.3 5.1-5.1v-82c0-2.7-2.3-5-5.1-5h-26.3c-2.8 0-5 2.3-5 5v82c0 2.8 2.2 5.1 5 5.1z"/>
					<path id="&lt;Compound Path&gt;" fill-rule="evenodd" class="s0" d="m366 384.1h-22.9c-1.8 0-3.2-1.5-3.2-3.3 0-1.7 1.4-3.2 3.2-3.2h22.9c1.8 0 3.2 1.5 3.2 3.2 0 1.8-1.4 3.3-3.2 3.3zm-22.9-5.5c-1.2 0-2.2 1-2.2 2.2 0 1.3 1 2.3 2.2 2.3h22.9c1.2 0 2.2-1 2.2-2.3 0-1.2-1-2.2-2.2-2.2z"/>
				</g>
				<path id="&lt;Path&gt;" class="s0" d="m369.8 466c-0.1-0.1-4.9-10.7-7.6-22.4-3.5-15.6-1.5-26 5.8-30.1 2.3-1.3 4.6-1.7 7-1.2l-0.2 1q-3.2-0.7-6.3 1.1c-16.8 9.4 2 50.8 2.2 51.2z"/>
				<path id="&lt;Path&gt;" class="s0" d="m380.6 451.2c-7.3-7.5-19.3-21.4-17.9-30.7 0.4-2.9 2-5.1 4.8-6.7 2.4-1.3 5.1-1.9 8-1.6l-0.1 1c-2.7-0.2-5.2 0.3-7.4 1.5-2.5 1.4-3.9 3.4-4.3 5.9-1.3 8.9 10.5 22.5 17.6 29.9z"/>
				<g id="&lt;Group&gt;">
					<path id="&lt;Path&gt;" class="s7" d="m369.3 368.8h-61.3c-1.3 0-2.4-1.1-2.4-2.4v-38.4c0-1.3 1.1-2.4 2.4-2.4h61.3c1.3 0 2.4 1.1 2.4 2.4v38.4c0 1.3-1.1 2.4-2.4 2.4z"/>
					<path id="&lt;Path&gt;" class="s6" d="m289.1 368.8h22.1c1.6 0 3-1.4 3-3v-37.1c0-1.7-1.4-3.1-3-3.1h-22.1c-1.6 0-3 1.4-3 3.1v37.1c0 1.6 1.4 3 3 3z"/>
					<path id="&lt;Path&gt;" class="s4" d="m371.7 349.8h-57.6v-5.1h57.6z"/>
					<path id="&lt;Path&gt;" class="s4" d="m340.4 368.8v-43.1h5.1v43.1z"/>
					<path id="&lt;Path&gt;" class="s5" d="m286.1 349.8h28v-5.1h-28z"/>
				</g>
				<g id="&lt;Group&gt;">
					<path id="&lt;Path&gt;" class="s1" d="m411.8 425.8c3 6.7 2.2 15-2 20.6-3.7 5.1-9.8 7.4-17 6.5l-78.7-17.9c3.3-5.6 1.9-21 0.7-24.7l81.3 4.6c7.2 0.7 12.9 4.6 15.7 10.9z"/>
					<g id="&lt;Group&gt;">
						<path id="&lt;Path&gt;" class="s1" d="m328.7 422.2c-1.5 12.6-9.4 13.3-17.2 13.3-7.9 0-29.1-5.3-29.1-5.3-5.3-1.4-4.4-6.3-2.8-6.2 0.8 0.1-2.9-0.8-3.7-0.9-6.6-2.1-4.1-7.5-1.4-7.5-5.3-0.6-5.1-7.3-1.7-7.2-3.7-0.9-3.4-7 2.3-6.8 3.2-0.3 29.1 2.8 29.1 2.8 0.2-2.7-9.9-3.6-10.3-10.3 0.2-0.7 0.7-0.9 1.2-0.9 15 3.5 22.5 10.4 25.2 12.6 4.2 3.3 9.3 8.9 8.4 16.4z"/>
						<path id="&lt;Path&gt;" class="s0" d="m295.2 426.6l-15.5-1.9 0.2-1 15.4 2z"/>
						<path id="&lt;Path&gt;" class="s0" d="m294.9 419.6l-20.4-3.4 0.2-1 20.4 3.4z"/>
						<path id="&lt;Path&gt;" class="s0" d="m295.5 412l-22.6-3.2 0.1-1 22.7 3.2z"/>
					</g>
				</g>
				<path id="&lt;Path&gt;" class="s0" d="m396.9 450.8c-0.1-0.4-8.9-34.6-22.1-37.5l0.2-1c13.8 3 22.5 36.8 22.9 38.2z"/>
				<path id="&lt;Path&gt;" class="s9" d="m427.2 563.6l-63-101.6-14.7 8.2 50 102.2c1.3 2.9 5.3 3.6 8.8 1.7z"/>
				<path id="&lt;Path&gt;" class="s10" d="m493.9 526.3l-67.6 37.8c-2.9 1.6-6.7 0.3-8.4-2.8l-56.9-97.5 71.2-39.8 63.3 94c1.9 2.9 1.1 6.7-1.6 8.3z"/>
				<path id="&lt;Path&gt;" class="s0" d="m388.1 455.8c0.5 0.9 0.2 1.9-0.7 2.4-0.8 0.4-1.9 0.1-2.3-0.7-0.5-0.8-0.2-1.9 0.6-2.3 0.9-0.5 1.9-0.2 2.4 0.6z"/>
				<path id="&lt;Path&gt;" class="s0" d="m415.1 440.1c0.5 0.8 0.2 1.9-0.7 2.4-0.8 0.4-1.9 0.1-2.3-0.7-0.5-0.8-0.2-1.9 0.6-2.4 0.9-0.4 1.9-0.1 2.4 0.7z"/>
				<path id="&lt;Path&gt;" class="s0" d="m413.6 441.7c-0.3-0.3-21.6-27.3-38.2-28.5l0.1-1c17.1 1.2 38 27.7 38.8 28.9z"/>
				<path id="&lt;Path&gt;" class="s0" d="m386.5 456.9c0 0-2.6-2.3-5.9-5.7l0.7-0.7c3.3 3.4 5.8 5.7 5.8 5.7z"/>
			</g>
			<g id="&lt;Group&gt;">
				<path id="&lt;Path&gt;" class="s4" d="m874.8 596.5h-276c-8 0-14.5-6.4-14.5-14.4v-57.1c0-8 6.5-14.4 14.5-14.4h276c8 0 14.5 6.4 14.5 14.4v57.1c0 8-6.5 14.4-14.5 14.4z"/>
				<path id="&lt;Path&gt;" class="s5" d="m634.2 596.5h-43.7c-3.4 0-6.2-2.7-6.2-6.2v-73.5c0-3.5 2.8-6.2 6.2-6.2h43.7c3.4 0 6.2 2.7 6.2 6.2v73.5c0 3.5-2.8 6.2-6.2 6.2z"/>
				<path id="&lt;Path&gt;" class="s7" d="m767 596.5h-15.4v-85.9h15.4z"/>
				<path id="&lt;Path&gt;" class="s7" d="m640.4 561.9v-16.7h248.9v16.7z"/>
				<path id="&lt;Path&gt;" class="s6" d="m640.4 561.9v-16.7h-56.1v16.7z"/>
			</g>
			<g id="&lt;Group&gt;">
				<path id="&lt;Path&gt;" class="s6" d="m462.3 757.7h89.3c4.2 0 7.5 3.3 7.5 7.5v57.5c0 4.1-3.3 7.5-7.5 7.5h-89.3c-4.1 0-7.5-3.4-7.5-7.5v-57.5c0-4.2 3.4-7.5 7.5-7.5z"/>
				<path id="&lt;Path&gt;" class="s7" d="m568.3 757.7h-65.8c-4.6 0-8.4 3.7-8.4 8.4v55.7c0 4.6 3.8 8.4 8.4 8.4h65.8c4.6 0 8.4-3.8 8.4-8.4v-55.7c0-4.7-3.8-8.4-8.4-8.4z"/>
				<path id="&lt;Path&gt;" class="s3" d="m543.6 830.2h-14.7v-72.5h14.7z"/>
				<path id="&lt;Path&gt;" class="s3" d="m494.1 801.3v-14.7h82.6v14.7z"/>
				<path id="&lt;Path&gt;" class="s8" d="m494.1 801.3v-14.7h-39.3v14.7z"/>
				<path id="&lt;Path&gt;" class="s8" d="m516.6 750.3c0 0-12.8-22.5-24.2-14.8-11.4 7.7-6.2 22.2-6.2 22.2h68.3c0 0 7.1-12.5-1-17.9-8.1-5.5-27.5 11-27.5 11-1.6-5-8.7-4.3-9.4-0.5z"/>
			</g>
			<g id="&lt;Group&gt;">
				<path id="&lt;Path&gt;" class="s1" d="m908.8 235.7c-0.2 0.2-9.7 12-11.1 21.7-1.2 5.8-1.6 13.9 4.5 18.7 10.1 8.1 22-2.9 23.6-4 5.8-3.7 10.8-11.4 13.5-16.2 2.3-3.2 1.2-7.6-2.8-10.3 0.3-2.8-5.5-7.5-8.4-5.9-0.2-3.4-6.3-6.8-8.3-5.5-4.1-3.1-8.8-1.5-11 1.5z"/>
				<path id="&lt;Path&gt;" class="s0" d="m651.3 355c-30.3-29.4-5.1-91.6 30.9-167.9-2-23.6 18.8-45.5 40-45.5h2.3c21.2 0 41.7 20 39.5 44.5 30.1 63 55.3 139.9 25.8 168.9-29.4 28.9-108.2 29.4-138.5 0z"/>
				<path id="&lt;Path&gt;" class="s15" d="m658.2 267.4l-1-0.1c0.2-11.5 8.2-37.6 17.7-58.3l0.9 0.5c-9.4 20.5-17.4 46.5-17.6 57.9z"/>
				<path id="&lt;Path&gt;" class="s2" d="m691 306.1l-66.1 55.8c-25.7 23.2-54.1-3-39.1-27.8 20.6-25.9 42.3-47.5 69.4-66.9 31.1-27.4 64.5 16.8 35.8 38.9z"/>
				<path id="&lt;Path&gt;" class="s2" d="m761.1 309.2l66.2 55.8c25.7 23.2 54.1-3.1 39.1-27.8-20.6-25.9-42.4-47.5-69.4-66.9-31.2-27.4-64.6 16.7-35.9 38.9z"/>
				<g id="&lt;Group&gt;">
					<path id="&lt;Path&gt;" class="s2" d="m920.6 280.3c1.7 13-34 66.3-52.2 85.5-19.2 21.1-55.2-1.4-35.6-27.3 3.2-4.3 53.5-77.3 61.3-75.8z"/>
				</g>
				<path id="&lt;Path&gt;" class="s14" d="m778.5 260.4c-40.6 19.4-73.4 20.6-110.8-0.6 10.5-3.8 21.9-5.3 37-7.6v-43h36.8v42.7c14.9 3.3 24.6 4.3 37 8.5z"/>
				<path id="&lt;Path&gt;" class="s2" d="m669.7 371.7c-1.1 10.9-1.2 19.7-3.6 28.6l17.1 16.3c34.4 8.8 64.9 13.4 97.9 1.8-2.4-7.8-5.3-26.9-6.7-42.3-2-20.5 29-98.8 17.8-109.1-3.9-3.7-17.5-8.2-25.3-10.3-33 9.8-49.7 17.5-91.9 0.8-7 1.9-13.5 4.4-17.3 7.9-11.1 10.4 13.9 85.8 12 106.3z"/>
				<path id="&lt;Path&gt;" class="s3" d="m779 409.5c-34.6 6.7-69.2 9.8-99.3 2.8q-9.9-10-19.7-20c-7.1-7.1-13.8-14.9-22.3-20.4-5.5-3.6-11.9-6.2-18.5-5.8-8.8 0.4-16.8 5.1-21.7 12.7-5.7 8.8-7.1 21.4-4 31.6 6.8 21.5 16.3 41.9 29.8 60.9l11 17.2c22.5 12.2 44.8 22.1 62.9 22.1h71c24.3 0.3 20.9-36.4 21.6-65.6z"/>
				<path id="&lt;Path&gt;" class="s2" d="m742.4 496.9c0 0 19.3 12.4 40 14.3l2.5-32.3c0 0-33 4-33.3 4.5-0.3 0.4-9.2 13.5-9.2 13.5z"/>
				<path id="&lt;Path&gt;" class="s16" d="m702.4 471.7c-12.3 6.2-23.7 10.8-34 13.1-17.9 5.8-18 16.4-10.7 29.1 20.4-1.7 58.1-11 58.1-11z"/>
				<path id="&lt;Path&gt;" class="s2" d="m694.3 475.6c-9.2 4.2-17.9 7.4-25.9 9.2-17.9 5.8-18 16.4-10.7 29.1 13.2-1.1 33.6-5.4 46.3-8.2-9.5-9.5-9.7-26.5-9.7-30.1z"/>
				<path id="&lt;Path&gt;" class="s2" d="m674.9 483.1c0.2 0.1-0.6-1.3-0.7-1.4q-1.1-1.8-2.6-3.2c-3.3-3-7.8-4.3-12-4.3-8.7-0.2-18 2.3-26.5 0.6-3-0.6-5.7-2-8.6-3-7.6-2.9-15.9-5.1-24.1-4.1-8.7 1-15.7 6.3-19.6 14.5-2.9 7.1-2.2 14.7 2.9 20.4 5.3 6 12.8 9.3 20.4 10.7 6.6 1.2 13.5-0.1 20.1 0 9.5 0.2 18.2 2.7 27.5 4.3 2.7 0.4 4.8-0.6 6-3.7-12.7-25.5 17.2-30.8 17.2-30.8z"/>
				<path id="&lt;Path&gt;" class="s7" d="m672.1 480.9c-2.7-1.6-7.5-1.8-10.2-1.7-7.3 0.4-14.5 1-21.8 0.7-6.5-0.4-12.5-3.5-18.7-5.5-6.7-2.2-13.7-2.4-20.5-0.4-7.2 2.1-13.7 7.3-14.7 15.5-0.9 7.7 2.7 16.1 8.3 20.9h0.3c3 1.3 6.1 2.3 9.3 2.9 6.6 1.2 13.5-0.1 20.1 0 9.5 0.2 18.2 2.7 27.5 4.3 2.7 0.4 4.8-0.6 6-3.7-12-25.4 16.5-30.2 17.2-30.8 0.2 0-1.4-1.4-2.8-2.2z"/>
				<path id="&lt;Path&gt;" class="s17" d="m599.7 509.4l-0.4-0.6c4.6-2.8 8.1-7.9 9.5-13.7 1.3-5.7 0.4-11.3-2.6-15.9l0.6-0.5c3.2 4.8 4.1 10.7 2.8 16.6-1.4 6-5.1 11.3-9.9 14.1z"/>
				<path id="&lt;Path&gt;" class="s2" d="m777.1 489c-4.2 7.5-4.5 13.8 0.9 22.9 0 0 32.9 3 47.8-1.2 14.9-4.1 13.4-26.1 13.4-26.1-0.4-13-3.3-21.1-9.4-22.8 0 0-39.5 1-39.8 1.5-0.3 0.4-12.9 25.7-12.9 25.7z"/>
				<path id="&lt;Path&gt;" class="s7" d="m823.6 509c8.6-9.5 6.5-35.9 0-43l-2.3-3.9c-11.6 0.3-31.1 0.9-31.3 1.2-0.3 0.4-12.9 25.7-12.9 25.7-4.2 7.5-5.8 13.7-0.4 22.8 0 0 28 2.9 44 0z"/>
				<path id="&lt;Path&gt;" class="s17" d="m820.6 506.9c-9.6-5.1-15.7-18.4-8.3-33.3l0.8 0.3c-7.3 14.5-1.4 27.4 7.9 32.3z"/>
				<path id="&lt;Path&gt;" class="s17" d="m690.5 477.6c-35.4-9.5-62.6-24.1-81-43.4l0.6-0.5c18.3 19.1 45.4 33.6 80.6 43.2z"/>
				<path id="&lt;Path&gt;" class="s3" d="m817.7 393c-39.8 30.3-80.8 61.1-115.3 78.7 1.7 13.4 7 25.3 15.2 36 50-15.1 97.6-30.7 130.9-60.5 39-38 1.1-75.8-30.8-54.2z"/>
				<path id="&lt;Path&gt;" class="s16" d="m837.9 396.1c5 6.6 11.1 12.2 18 16.8q4.3 2.8 8.9 5.2c2.3-19.5-13.6-33.6-31.9-31.1 0.9 3.3 3 6.4 5 9.1z"/>
				<path id="&lt;Path&gt;" class="s17" d="m717.5 508.2l-3.4-4.6 0.7-0.5 3 4.2 28-8.8 0.2 0.8z"/>
				<path id="&lt;Path&gt;" class="s17" d="m702.5 470.5l-0.3-0.8c25.5-12.1 51.5-28.5 77.5-48.7l0.5 0.7c-26 20.2-52.1 36.6-77.7 48.8z"/>
				<path id="&lt;Path&gt;" class="s8" d="m700.1 468.7c0.2 16.8 6 31.1 17.5 41.4l12.7-2.9c-10.8-13.1-15.8-28.8-16.4-46.6z"/>
				<path id="&lt;Path&gt;" class="s3" d="m667.7 392.8c13.4-19.1 15.2-46.1 16.3-86.7 24.8-2.8 51.6-3.1 74.2 0 1.5 31.1 0.5 60.8 18.3 88.5l4.3 20.9-53.4 9.9-38.5-7.3-8.7-4.7-13.7-14.5z"/>
				<path id="&lt;Path&gt;" class="s3" d="m689.1 318.7l-16-62.5 10.1-2.3 21.5 60.9z"/>
				<path id="&lt;Path&gt;" class="s3" d="m751.5 318.7l15.9-62.5-10.1-2.3-21.5 60.9z"/>
				<path id="&lt;Path&gt;" class="s17" d="m731.1 455.3c-11.8-8.4-41.8-30.6-64.9-56.1l0.6-0.6c23.1 25.5 53 47.7 64.8 56.1z"/>
				<path id="&lt;Path&gt;" class="s17" d="m689.1 319.2l-3.7-13.2 0.8-0.2 3.5 12.5 14.5-3.7-3.5-9.9 0.8-0.2 3.7 10.6z"/>
				<path id="&lt;Path&gt;" class="s17" d="m751.8 319.2l-16.5-4.1 3.9-10.9 0.7 0.3-3.6 10.1 14.9 3.7 3.2-12.7 0.8 0.2z"/>
				<path id="&lt;Path&gt;" class="s2" d="m697 310.5c0 1.3-1.1 2.3-2.3 2.3-1.3 0-2.4-1-2.4-2.3 0-1.3 1.1-2.3 2.4-2.3 1.2 0 2.3 1 2.3 2.3z"/>
				<path id="&lt;Path&gt;" class="s2" d="m748.2 310.5c0 1.3-1 2.3-2.3 2.3-1.3 0-2.3-1-2.3-2.3 0-1.3 1-2.3 2.3-2.3 1.3 0 2.3 1 2.3 2.3z"/>
				<path id="&lt;Path&gt;" class="s17" d="m728.4 420.5c-16.7 0-32.9-2.2-48.3-6.7l0.2-0.8c30.7 9 64.3 9 99.8 0l0.2 0.8c-17.8 4.5-35.2 6.7-51.9 6.7z"/>
				<path id="&lt;Compound Path&gt;" fill-rule="evenodd" class="s17" d="m721.5 369.6c-10.7 0-21.2-1.2-25.3-3.9-6.3-4.5-4.4-36.6-4.3-38l0.1-0.4h0.4c18.8 3.1 38.7 3.1 59.2 0h0.4v0.4c0.2 1.5 4.1 36.6-3.7 38.7-4.7 2-15.9 3.2-26.8 3.2zm-28.8-41.4c-0.2 3.9-1.6 32.9 3.9 36.8 8.1 5.4 42.4 4.4 51.5 0.7 5.9-1.6 4.3-27.2 3.2-37.5-20.2 3-39.9 3-58.6 0z"/>
				<g id="&lt;Group&gt;">
					<path id="&lt;Path&gt;" class="s0" d="m741.7 143.3c0 10.3-8.4 18.7-18.6 18.7-10.3 0-18.6-8.4-18.6-18.7 0-10.2 8.3-18.6 18.6-18.6 10.2 0 18.6 8.4 18.6 18.6z"/>
					<path id="&lt;Path&gt;" class="s14" d="m723.3 239.5c-16.6 0-30.1-13.6-30.1-30.1v-22.5c0-16.6 13.5-30.2 30.1-30.2 16.6 0 30.1 13.6 30.1 30.2v22.5c0 16.5-13.5 30.1-30.1 30.1z"/>
					<path id="&lt;Path&gt;" class="s0" d="m723.3 240c-6.9 0-13.4-2.3-18.9-6.6l0.6-0.8c5.3 4.2 11.6 6.4 18.3 6.4 6.5 0 12.7-2.1 17.9-6l0.6 0.8c-5.4 4-11.8 6.2-18.5 6.2z"/>
					<path id="&lt;Path&gt;" class="s0" d="m693.1 190c15.6-4.9 29.7-13.7 42.1-27.1 7.6 2 15.3 8.3 17.5 17.4l3.5-13.8-4.6-11.7-20.6-7.5-21.2 1.3-14.6 10.7-7.6 15.7z"/>
					<g id="&lt;Group&gt;">
						<path id="&lt;Path&gt;" class="s14" d="m694.7 194.5c-0.4-0.1-4.2-5.8-9.2-2.1-7.9 5.8-0.3 22.6 8.3 20.8 8.7-3.5 0.9-18.7 0.9-18.7z"/>
						<path id="&lt;Path&gt;" class="s0" d="m689.7 209.2c-4.2-3-5.7-8.6-4.2-11.6 0.9-1.9 2.9-2.5 5.3-1.7l-0.3 1c-2-0.7-3.4-0.3-4.1 1.2-1.3 2.6 0.1 7.6 3.9 10.3z"/>
						<path id="&lt;Path&gt;" class="s0" d="m692.1 206c0 0-2.2-2.6-6.3-2.6v-1c4.6 0 7 2.8 7.1 2.9z"/>
					</g>
					<g id="&lt;Group&gt;">
						<path id="&lt;Path&gt;" class="s14" d="m751.5 194.5c0.4-0.1 4.2-5.8 9.2-2.1 7.9 5.8 0.3 22.6-8.4 20.8-8.6-3.5-0.8-18.7-0.8-18.7z"/>
						<path id="&lt;Path&gt;" class="s0" d="m756.5 209.2l-0.6-0.8c3.8-2.7 5.2-7.7 3.9-10.3-0.7-1.5-2.1-1.9-4.1-1.2l-0.3-1c2.4-0.8 4.4-0.2 5.3 1.7 1.5 3 0 8.6-4.2 11.6z"/>
						<path id="&lt;Path&gt;" class="s0" d="m754.1 206l-0.8-0.7c0.1-0.1 2.5-2.9 7.1-2.9v1c-4.1 0-6.3 2.6-6.3 2.6z"/>
					</g>
					<g id="&lt;Group&gt;">
						<path id="&lt;Path&gt;" class="s2" d="m714.5 211.9c2 6.4 12.5 10.3 17.2-0.4z"/>
						<path id="&lt;Path&gt;" class="s0" d="m702.1 191.5l-0.3-1c5.4-1.9 9.3-3.2 14.1-0.1l-0.5 0.8c-4.4-2.8-7.9-1.6-13.3 0.3z"/>
						<path id="&lt;Path&gt;" class="s0" d="m744.1 191.5c-5.4-1.9-8.9-3.1-13.3-0.3l-0.5-0.8c4.8-3.1 8.7-1.8 14.1 0.1z"/>
						<path id="&lt;Path&gt;" class="s0" d="m712.1 200.3c-0.3-2-2.2-2.9-3.7-2.7-1.4 0.1-2.8 0.9-2.8 2.6h-1c0-2.3 1.9-3.5 3.7-3.6 2-0.2 4.4 0.9 4.7 3.5z"/>
						<path id="&lt;Path&gt;" class="s0" d="m740.6 200.3c-0.3-2-2.1-2.9-3.6-2.7-1.4 0.1-2.8 0.9-2.8 2.6h-1c0-2.3 1.9-3.5 3.7-3.6 2-0.2 4.4 0.9 4.7 3.5z"/>
						<path id="&lt;Path&gt;" class="s0" d="m723.2 221.9q-1.5 0-3.2-0.4l0.3-0.9q3 0.7 5.6 0l0.3 0.9q-1.5 0.4-3 0.4z"/>
						<path id="&lt;Path&gt;" class="s0" d="m722.3 208.7l-0.2-1c0 0 3.3-0.9 4.3-2.8 0.8-1.4-1.7-7.9-3.4-11.7l0.9-0.4c0.8 1.7 4.6 10.3 3.4 12.6-1.2 2.2-4.8 3.2-5 3.3z"/>
						<path id="&lt;Path&gt;" class="s18" d="m704.4 204.3c0 1.1-1.6 1.9-3.6 1.9-2 0-3.6-0.8-3.6-1.9 0-1.1 1.6-2 3.6-2 2 0 3.6 0.9 3.6 2z"/>
						<path id="&lt;Path&gt;" class="s18" d="m749 204.3c0 1.1-1.6 1.9-3.6 1.9-2 0-3.6-0.8-3.6-1.9 0-1.1 1.6-2 3.6-2 2 0 3.6 0.9 3.6 2z"/>
					</g>
					<path id="&lt;Path&gt;" class="s15" d="m704.9 146.8l-0.4-0.8c12.1-6.4 24.3-6.6 37.2-0.6l-0.4 0.9c-12.6-5.9-24.5-5.7-36.4 0.5z"/>
					<path id="&lt;Path&gt;" class="s15" d="m735.6 163.2l-0.8-0.6c0.1 0 2.8-3.5 3.9-8.7l1 0.2c-1.2 5.5-4 9-4.1 9.1z"/>
				</g>
				<path id="&lt;Path&gt;" class="s15" d="m770.1 250.9c-1.8-16.6-9.7-30-9.7-30.1l0.8-0.6c0.1 0.2 8 13.8 9.9 30.5z"/>
				<path id="&lt;Path&gt;" class="s15" d="m784.2 256.8c-1.4-7.8-7.1-20.8-7.1-21l0.9-0.4c0.1 0.2 5.8 13.3 7.2 21.2z"/>
				<g id="&lt;Group&gt;">
					<g id="&lt;Group&gt;">
						<path id="&lt;Path&gt;" class="s0" d="m915.7 280l-0.8-0.6c0.2-0.2 13.9-16.3 10.7-26.3-1.2-3.5-4.3-5.9-9.3-7.1-9.5-2.3-18.6 1.2-27 10.3-6.4 6.9-10 14.6-10 14.7l-0.9-0.4c0.1-0.3 14.7-31.3 38.2-25.6 5.3 1.3 8.7 3.9 9.9 7.8 3.4 10.5-10.2 26.5-10.8 27.2z"/>
						<path id="&lt;Path&gt;" class="s9" d="m839.5 431.3l37.2-168.8-19.8-4.9-49.2 158.8c-1.1 3.6 1.8 7.6 6.5 8.8z"/>
						<path id="&lt;Path&gt;" class="s10" d="m929.3 453.1l-91-22.1c-3.8-0.9-6.1-5.1-5.1-9.4l39.1-160.2 95.8 23.3-30.6 162.5c-0.8 4.1-4.5 6.8-8.2 5.9z"/>
						<path id="&lt;Path&gt;" class="s0" d="m904.1 276.9c-0.4 1.8-2.3 3-4.1 2.5-1.8-0.4-2.9-2.2-2.4-4.1 0.4-1.8 2.2-2.9 4-2.4 1.8 0.4 2.9 2.2 2.5 4z"/>
						<path id="&lt;Path&gt;" class="s0" d="m940.9 285.9c-0.4 1.8-2.3 2.9-4.1 2.4-1.8-0.4-2.9-2.2-2.4-4 0.4-1.8 2.2-3 4-2.5 1.8 0.4 2.9 2.2 2.5 4.1z"/>
						<path id="&lt;Path&gt;" class="s0" d="m938.1 285.1h-1c0-0.1 0.4-8.6-2.1-17.6-3.3-12.1-9.8-19.3-19.3-21.6-5-1.2-8.8-0.6-11.4 2-7.5 7.4-2.7 28-2.7 28.2l-1 0.2c-0.2-0.8-4.9-21.3 3-29.1 2.8-2.8 7-3.6 12.3-2.3 23.5 5.7 22.2 39.9 22.2 40.2z"/>
					</g>
					<g id="&lt;Group&gt;">
						<path id="&lt;Path&gt;" class="s0" d="m892.7 295.7c0-0.4-2.7-37.2 22.3-44.2 5.7-1.6 10.2-1 13.4 2 8.8 8.1 4.5 30.3 4.3 31.3l-1-0.2c0-0.3 4.4-22.7-4-30.4-2.9-2.7-7.1-3.3-12.4-1.8-24.3 6.9-21.6 42.8-21.6 43.2z"/>
						<path id="&lt;Path&gt;" class="s5" d="m941.2 467.2l-54.4-178.3-21.2 6 37.9 175.1c0.8 4 5.7 6.2 10.7 4.8z"/>
						<path id="&lt;Path&gt;" class="s4" d="m1037.1 440.3l-97.2 27.3c-4.1 1.2-8.5-1.6-9.8-6.1l-48-171.3 102.3-28.7 57.2 168.8c1.5 4.3-0.6 8.9-4.5 10z"/>
						<path id="&lt;Path&gt;" class="s0" d="m920.2 288c0.5 2-0.6 4-2.5 4.5-2 0.6-4-0.6-4.5-2.5-0.6-1.9 0.6-3.9 2.5-4.5 1.9-0.5 3.9 0.6 4.5 2.5z"/>
						<path id="&lt;Path&gt;" class="s0" d="m959.5 276.9c0.5 2-0.6 4-2.5 4.5-2 0.6-4-0.6-4.5-2.5-0.6-1.9 0.6-3.9 2.5-4.5 1.9-0.5 3.9 0.6 4.5 2.5z"/>
						<path id="&lt;Path&gt;" class="s0" d="m916.7 289.3c-0.7-0.7-16-17.4-12.7-28.9 1.2-4.2 4.7-7.1 10.4-8.7 25-7.1 41.9 25.7 42 26l-0.8 0.5c-0.2-0.3-16.7-32.4-41-25.5-5.3 1.5-8.6 4.2-9.7 8-3 10.9 12.3 27.7 12.5 27.9z"/>
					</g>
					<g id="&lt;Group&gt;">
						<path id="&lt;Path&gt;" class="s0" d="m921.8 280.6l-0.9-0.5c0.1-0.2 10.8-18.5 5.9-27.8-1.7-3.2-5.2-5-10.3-5.3-9.8-0.7-18.1 4.4-24.9 14.9-5 7.9-7.2 16.1-7.3 16.1l-0.9-0.2c0.1-0.3 9.1-33.4 33.2-31.8 5.5 0.3 9.2 2.3 11.1 5.9 5.2 9.8-5.5 27.9-5.9 28.7z"/>
						<path id="&lt;Path&gt;" class="s6" d="m877.4 414.4l2.9-144.3-20.3-1.3-16.5 136.4c-0.5 3.8 3.1 7.2 7.9 7.5z"/>
						<path id="&lt;Path&gt;" class="s7" d="m969.6 420.4l-93.4-6.1c-4-0.2-6.9-4-6.7-8.3l6.3-136.2 98.4 6.3 2.4 137c0 4.2-3.2 7.5-7 7.3z"/>
						<path id="&lt;Path&gt;" class="s0" d="m908.5 279.5c0 1.1-1 2-2.2 1.9-1.1 0-2-1-1.9-2.2 0-1.1 1-2 2.2-1.9 1.1 0.1 2 1 1.9 2.2z"/>
						<path id="&lt;Path&gt;" class="s0" d="m946.2 281.3c0 1.1-1 2-2.2 1.9-1.1 0-2-1-1.9-2.2 0-1.1 1-2 2.2-1.9 1.1 0 2 1 1.9 2.2z"/>
						<path id="&lt;Path&gt;" class="s0" d="m943.8 281.9c-0.1-0.1-1.2-8.5-5.2-17-5.3-11.3-13-17.3-22.7-17.9q-7.8-0.5-11 4c-6 8.6 2.2 28 2.3 28.2l-0.9 0.4c-0.3-0.8-8.5-20.2-2.2-29.2 2.4-3.3 6.3-4.8 11.8-4.4 24.1 1.5 28.8 35.4 28.8 35.7z"/>
					</g>
				</g>
				<g id="&lt;Group&gt;">
					<path id="&lt;Path&gt;" class="s1" d="m910 235.3c-0.1 0.1-5.1 5.2-4 10.8 0 0.7 3.9 2.8 3.9 2.8 0 0-1 7.7 7.9 6.5 0.7 4.1 3.6 7.7 8.9 4.9 3 2.8 3.8 2.9 5.2 2.2 3-1.9 6.2-5.6 7.4-7.9 3.6-4.7-25.8-23.8-29.3-19.4z"/>
					<path id="&lt;Path&gt;" class="s0" d="m930.5 263.3q0 0-0.1 0-2.1 0-3.5-2.5c-1.4 1.1-3.5 1.4-5.4 0.8-2.3-0.9-3.8-2.9-4.1-5.7-2 0.7-4.8 0-6.6-1.7-1.6-1.4-2-3.2-1.4-5q-3.1-1.4-3.8-3.8c-0.8-2.7 1.1-5.2 1.1-5.3l0.8 0.5c0 0.1-1.6 2.3-0.9 4.5q0.6 2.2 3.7 3.4 0.2 0.1 0.2 0.3 0.1 0.2 0 0.4c-1 2 0.2 3.6 1 4.3 1.7 1.6 4.5 2.2 6.1 1.2 0.1-0.1 0.3-0.1 0.5 0 0.1 0.1 0.2 0.3 0.2 0.4 0.1 2.8 1.4 4.8 3.6 5.5 1.7 0.6 3.7 0.2 4.7-0.9 0.1-0.1 0.3-0.2 0.4-0.2q0.3 0.1 0.4 0.3 1.3 2.5 3 2.5 0.1 0 0.1 0c2.8 0 5.6-4.4 5.6-4.4l0.9 0.5c-0.2 0.2-3.2 4.9-6.5 4.9z"/>
					<path id="&lt;Path&gt;" class="s0" d="m910.4 249.5l-0.8-0.6 9.8-14.9 0.9 0.5z"/>
					<path id="&lt;Path&gt;" class="s0" d="m927.3 260.5l-0.9-0.6 9.9-14.8 0.8 0.6z"/>
					<path id="&lt;Path&gt;" class="s0" d="m918.3 255.5l-0.8-0.6 10.2-15.4 0.8 0.5z"/>
				</g>
				<g id="&lt;Group&gt;">
					<path id="&lt;Path&gt;" class="s14" d="m537.3 267.8c-5.2-0.2-9.4-2.9-10.4-3.2-9-2.8-25.2-19-25.2-19-4.4-3.9-1.4-7.6 0.1-6.7 0.7 0.5-2.5-2.1-3.1-2.6-5.4-5.1-0.5-8.3 2.1-7-4.8-3.1-1.7-8.6 1.5-6.8-3.2-2.6-0.1-7.5 5.2-4.5 3.1 1.4 26.4 17.1 26.4 17.1 1.3-2.2 6.5-4 9.3 0 3 4.3 4.5 7.6 5.3 9.3 1.9 3.6 2.6 6.2 3.5 9.9-2.8 5.5-9.7 12.1-14.7 13.5z"/>
					<path id="&lt;Path&gt;" class="s17" d="m535.7 252.9c-6.9-8.2-2.2-17.9-2.2-18l0.7 0.4c0 0-4.4 9.3 2.1 17.1z"/>
					<g id="&lt;Group&gt;">
						<path id="&lt;Path&gt;" class="s2" d="m531.6 277.3c-1.7 12.9 33.9 66.2 52.2 85.4 19.2 21.1 55.2-1.4 35.5-27.3-3.1-4.2-53.5-77.2-61.2-75.8z"/>
						<path id="&lt;Path&gt;" class="s2" d="m558.1 259.6l-5.2-9.8c-6.1 8.4-14.3 15.2-27.1 16.6l5.8 10.9z"/>
						<path id="&lt;Path&gt;" class="s17" d="m531.7 277.7l-0.2-0.8c9.4-2.7 19-6.6 25.5-17l0.7 0.4c-6.7 10.7-16.4 14.6-26 17.4z"/>
					</g>
					<path id="&lt;Path&gt;" class="s16" d="m599.3 391.2c7.9-2.8 14.3-8.7 19.2-15.3 2.2-3 4.2-6.2 5.9-9.5q-2.6-0.4-5.2-0.3c-8.8 0.4-16.8 5.1-21.7 12.7-2.6 4-4.3 8.9-5.1 14q3.5-0.4 6.9-1.6z"/>
					<path id="&lt;Path&gt;" class="s17" d="m515.5 249l-13.8-9.4 0.4-0.7 13.9 9.4z"/>
					<path id="&lt;Path&gt;" class="s17" d="m518.4 243l-17.9-13.2 0.5-0.6 17.9 13.1z"/>
					<path id="&lt;Path&gt;" class="s17" d="m522.3 237l-20.1-14.2 0.5-0.6 20.1 14.1z"/>
					<path id="&lt;Path&gt;" class="s17" d="m515.1 251.2l-0.7-0.2c1.7-5 4.9-10.5 9.7-17.1l0.6 0.5c-4.7 6.5-7.8 12-9.6 16.8z"/>
					<path id="&lt;Path&gt;" class="s4" d="m528.2 278.3l-75.1 4.6c-2 0.1-3.6-1.4-3.8-3.4l-4.2-69.3c-0.1-1.9 1.4-3.6 3.4-3.7l75-4.6c2-0.1 3.7 1.4 3.8 3.3l4.2 69.3c0.1 2-1.4 3.7-3.3 3.8z"/>
					<path id="&lt;Path&gt;" class="s7" d="m502.6 279.9l-13.7 0.8-4.7-76.7 13.7-0.9z"/>
					<path id="&lt;Path&gt;" class="s5" d="m443.1 283.5l12.9-0.8c1.8-0.1 3.2-1.7 3.1-3.6l-4.2-69.6c-0.1-1.9-1.7-3.3-3.6-3.2l-12.8 0.8c-1.9 0.1-3.3 1.7-3.2 3.6l4.3 69.6c0.1 1.9 1.7 3.3 3.5 3.2z"/>
					<path id="&lt;Path&gt;" class="s5" d="m433.9 214.5l19.1-1.2c0.9-0.1 1.5-0.8 1.5-1.7l-0.7-11.4c-0.1-0.9-0.8-1.6-1.7-1.5l-19.1 1.2c-0.9 0-1.6 0.8-1.5 1.7l0.7 11.3c0 0.9 0.8 1.6 1.7 1.6z"/>
					<path id="&lt;Path&gt;" class="s4" d="m529.2 208.7l-75.4 4.5c-0.9 0.1-1.6-0.6-1.7-1.4l-0.7-11.5c0-0.9 0.6-1.6 1.5-1.7l75.4-4.5c0.9-0.1 1.6 0.6 1.7 1.4l0.7 11.5c0 0.9-0.6 1.6-1.5 1.7z"/>
					<path id="&lt;Path&gt;" class="s7" d="m497.5 195.6l-13.8 0.8 0.9 14.7 13.8-0.8z"/>
					<path id="&lt;Path&gt;" class="s14" d="m524.3 235.6l11.4 5.3c1.9 0.6 7.6-5.7 7.6-5.7 0 0-1.6-2.5-5.4-3.6l-13.4-3.8c-2.2-0.6-3.1-0.4-3.5 0.4-0.4 0.8-1.8 5 3.3 7.4z"/>
					<path id="&lt;Path&gt;" class="s17" d="m435.6 214.8l-0.1-0.8 92-5.6v0.8z"/>
					<path id="&lt;Path&gt;" class="s7" d="m489 192.1c0 0-18.2-20.2-29.9-11.7-11.8 8.6 5.9 17.5 5.9 17.5l52.8-3.2c0 0 4.8-15-5.3-18.3-10.1-3.3-23.5 15.7-23.5 15.7z"/>
					<path id="&lt;Path&gt;" class="s6" d="m482.2 196.9c0 0-1-7.2 6.8-7.8 7.9-0.5 9.8 6.8 9.8 6.8z"/>
					<path id="&lt;Path&gt;" class="s17" d="m612.3 325.3l-9.1-11.8 0.7-0.5 9 11.8z"/>
				</g>
			</g>
		</g>
	</g>
</svg>